<svg viewBox="0 0 120 30" fill="none" xmlns="http://www.w3.org/2000/svg" width="120" height="30">
  <path
    d="M90.5 7.37274H95.6V11.8727H90.5V21.7427C90.5 23.8027 91.27 24.7227 93.24 24.7227H94.95V29.2027H91.03C86.77 29.2027 84.97 26.7527 84.97 23.4227V11.8827H81.74V7.38274H84.97V2.34274L90.51 0.682739V7.37274H90.5ZM78.26 23.4327C78.26 26.5727 78.35 28.1827 78.68 29.2027H73.55L73.09 27.2627C71.66 28.5527 69.68 29.6627 66.77 29.6627C62.76 29.6627 59.62 26.8127 59.62 22.5127C59.62 17.9927 63.17 15.4127 68.76 15.2327L72.7 15.0927V14.6027C72.7 11.9727 70.79 11.3227 68.48 11.3227C66.52 11.3227 62.33 11.5227 62.33 11.5227V7.37274C62.33 7.37274 66.22 7.17274 69.58 7.17274C74.98 7.17274 78.25 9.23274 78.25 14.9527V23.4327H78.26ZM72.7 18.9227L69.5 19.0127C66.5 19.1027 65.16 20.2527 65.16 22.1027C65.16 23.9527 66.41 25.2827 68.71 25.2827C70.65 25.2827 71.96 24.5427 72.7 23.9027V18.9327V18.9227ZM48.07 21.5427L42.99 7.37274H36.85L45.74 29.1927H49.94L59.02 7.37274H53.33L48.06 21.5427H48.07ZM28.1 7.37274H23.37V29.1927H28.97V14.0027C30.26 12.7827 31.81 12.5727 33.1 12.5727C33.54 12.5727 34.09 12.6327 34.67 12.8127V7.37274C32.59 7.37274 30.88 7.66274 28.69 9.68274L28.09 7.37274H28.1ZM18.64 23.4227C18.64 26.5627 18.73 28.1727 19.06 29.1927H13.93L13.47 27.2527C12.04 28.5427 10.06 29.6527 7.15 29.6527C3.14 29.6527 0 26.8027 0 22.5027C0 17.9827 3.55 15.4027 9.14 15.2227L13.08 15.0827V14.5927C13.08 11.9627 11.17 11.3127 8.86 11.3127C6.9 11.3127 2.71 11.5127 2.71 11.5127V7.36274C2.71 7.36274 6.61 7.16274 9.96 7.16274C15.36 7.16274 18.63 9.22274 18.63 14.9427V23.4227H18.64ZM13.08 18.9127L9.88 19.0027C6.88 19.0927 5.54 20.2427 5.54 22.0927C5.54 23.9427 6.79 25.2727 9.09 25.2727C11.03 25.2727 12.34 24.5327 13.08 23.8927V18.9227V18.9127ZM119.62 18.2327C119.62 24.8327 115.37 29.8727 108.64 29.8727C101.91 29.8727 97.75 24.8527 97.75 18.4127C97.75 10.9527 102.76 6.68274 108.68 6.68274C114.6 6.68274 119.61 10.8127 119.61 18.2327H119.62ZM113.95 18.2827C113.95 14.0827 112.01 11.0527 108.6 11.0527C105.19 11.0527 103.39 14.2227 103.39 18.2827C103.39 22.3427 105.37 25.6027 108.74 25.6027C112.11 25.6027 113.95 22.3827 113.95 18.2827Z" fill="#0076B2" />
</svg>
