<svg xmlns="http://www.w3.org/2000/svg" viewBox="0 0 493 111">
  <path fill-rule="evenodd"
        d="M31.4,28.2H0v46.3h12.1V58.8h15.7V47.9H12.1V39h19.4V28.2H31.4z M70.8,28.2H38.7v46.3h33V63.6H50.8  v-8.1h14.3V45.4H50.8V39h20.1L70.8,28.2L70.8,28.2z M79.9,28.2v46.3H92V60.1h5l10.5,14.4H121l-12.2-17.2c2.2-1.4,4-3.2,5.3-5.4  c1.4-2.4,2.1-5.1,2-7.8c0-2.3-0.5-4.5-1.4-6.6c-0.9-1.9-2.2-3.7-3.8-5c-1.7-1.4-3.6-2.5-5.7-3.2c-2.3-0.7-4.7-1.1-7.1-1.1L79.9,28.2  z M98.1,38.7c1.5-0.1,2.9,0.5,4,1.5c1,1,1.6,2.4,1.5,3.9c0.1,1.5-0.5,2.9-1.5,4c-1.1,1-2.5,1.6-4,1.5H92V38.7H98.1z M138.1,29.1  c-3,1.2-5.7,2.9-8,5.1c-2.2,2.2-4.1,4.7-5.3,7.6c-1.3,3-1.9,6.2-1.9,9.5c0,3.3,0.6,6.5,1.9,9.5c1.3,2.9,3.1,5.4,5.3,7.6  c2.3,2.2,5,3.9,7.9,5.1c3.1,1.2,6.4,1.8,9.8,1.8c4.4,0.1,8.8-1,12.6-3.2c3.7-2.2,6.7-5.4,8.7-9.2l-9.2-6.3c-1.3,2.2-3,4.1-5,5.6  c-2.1,1.4-4.5,2.1-7,2c-1.7,0-3.5-0.3-5.1-0.9c-3-1.2-5.4-3.6-6.6-6.6c-1.2-3.4-1.2-7.2,0-10.6c0.6-1.5,1.5-2.9,2.6-4.1  c1.1-1.1,2.5-2,4-2.6c1.6-0.6,3.4-0.9,5.1-0.9c2.5-0.1,4.9,0.6,7,2c2.1,1.5,3.8,3.4,5,5.6l9.2-6.3c-2-3.8-5-7-8.7-9.2  c-3.8-2.2-8.1-3.3-12.5-3.2C144.6,27.3,141.2,27.9,138.1,29.1z M217.7,28.2h-12.1v16.9h-16.9V28.2h-12.1v46.3h12.1V56h16.9v18.5  h12.1V28.2z M248.1,27.3h-3.9l-21,47.2h13l1.7-3.9h16.6l1.7,3.9h13L248.1,27.3z M246.2,50.3l4,10.7h-8.1L246.2,50.3z M313.5,28.2  h-12.1v27.6c0.2,2.3-0.7,4.6-2.3,6.2c-3.5,2.9-8.7,2.9-12.2,0c-1.6-1.6-2.5-3.9-2.3-6.2V28.2h-12.1v26.7c0,2.9,0.5,5.7,1.5,8.4  c1,2.4,2.4,4.6,4.3,6.5c1.8,1.8,4.1,3.2,6.5,4.1c2.6,1,5.4,1.5,8.2,1.4c2.8,0,5.6-0.5,8.2-1.4c2.4-0.9,4.6-2.3,6.5-4.1  c1.8-1.9,3.3-4.1,4.3-6.5c1-2.7,1.5-5.5,1.5-8.4C313.5,54.9,313.5,28.2,313.5,28.2z"/>
  <polygon fill-rule="evenodd" fill="#BE0000" points="331,111 369,111 369,87 331,87 "/>
  <polygon fill-rule="evenodd" fill="#BE0000" points="362,74 424,74 424,50 362,50 "/>
  <polygon fill-rule="evenodd" fill="#730000" points="493,0 493,24 469,37 469,13 "/>
  <polygon fill-rule="evenodd" fill="#730000" points="448,37 448,61 424,74 424,50 "/>
  <polygon fill-rule="evenodd" fill="#730000" points="393,74 393,98 369,111 369,87 "/>
  <polygon fill-rule="evenodd" fill="#BE0000" points="394,37 469,37 469,13 394,13 "/>
</svg>
