<?xml version="1.0" encoding="UTF-8"?>
<svg xmlns="http://www.w3.org/2000/svg" viewBox="0 0 352.9025 60.3852">
  <defs>
    <linearGradient id="gradient" x1="82.2062" y1="-64.7406" x2="271.2771" y2="124.3302" gradientUnits="userSpaceOnUse">
      <stop offset="0" stop-color="#00ffb4"/>
      <stop offset=".2088" stop-color="#00f9bc"/>
      <stop offset=".5493" stop-color="#00ebd5"/>
      <stop offset=".9769" stop-color="#00d3fc"/>
      <stop offset="1" stop-color="#00d2ff"/>
    </linearGradient>
  </defs>
  <g>
    <path fill="url(#gradient)" d="m153.7871.0057c-.0278,0-.0551.0021-.0829.0021-12.0031.0222-20.3207,5.2681-20.3207,5.2681-.3322.2489-1.0588.7859-1.0588,1.4497v29.0842h10.7317V12.8633c1.6613-.6634,5.4906-2.0117,10.1417-2.0737l.589-.0119c10.5306,0,19.0674,8.5368,19.0674,19.0673,0,10.3727-8.284,18.8048-18.5961,19.0558l-18.6459.0004-3.2769,10.7182h21.0674c.1284.0016,1.0423-.007,1.0423-.007,16.1595-.3512,29.1534-13.551,29.1534-29.7949C183.5987,13.353,170.2517.0057,153.7871.0057ZM40.5423,46.7621c-1.6613.6634-5.4906,2.0117-10.1417,2.0737l-.589.0119c-10.5306,0-19.0674-8.5368-19.0674-19.0673,0-10.3727,8.284-18.8048,18.5961-19.0558l18.6459-.0004L51.2631.0061h-21.0674c-.1284-.0016-1.0423.007-1.0423.007C12.994.3643,0,13.5641,0,29.808c0,16.4644,13.3471,29.8117,29.8116,29.8117.0278,0,.0551-.0021.0829-.0021,12.0031-.0222,20.3207-5.2681,20.3207-5.2681.3322-.2489,1.0588-.7859,1.0588-1.4497v-29.0842h-10.7317v22.9464Zm40.7533-1.1705l-3.2643,10.6763c-9.5321-4.9722-16.0439-14.9502-16.0439-26.451C61.9873,13.3523,75.3306.0006,91.7952.0006c1.1442,0,2.28.0673,3.3905.1935l-3.2727,10.6763h-.1178c-10.4576,0-18.9465,8.4805-18.9465,18.9465,0,6.5791,3.3568,12.3758,8.4469,15.7747Zm40.3159-15.7747c0,16.4646-13.3517,29.8079-29.8163,29.8079-1.1862,0-2.3641-.0673-3.5167-.2019l3.2559-10.6679c.0841.0084.1767.0084.2608.0084,10.466,0,18.9549-8.4805,18.9549-18.9465,0-6.6296-3.4074-12.4683-8.573-15.8504l3.2559-10.6679c9.6078,4.947,16.1785,14.9671,16.1785,26.5183Zm70.0402,24.2856c0,1.7619.5805,3.2503,1.7431,4.4636,1.1618,1.2124,2.7899,1.8191,4.8849,1.8191,2.0681,0,3.6969-.6001,4.8841-1.8003,1.188-1.2002,1.7815-2.6943,1.7815-4.4824s-.5879-3.301-1.7619-4.5403c-1.1749-1.2386-2.8103-1.8575-4.9037-1.8575-2.1457,0-3.7876.6254-4.9233,1.877-1.1373,1.2516-1.7048,2.758-1.7048,4.5208ZM246.0077,0v21.4365c-1.3588-1.5022-2.9172-2.6647-4.6777-3.477-1.7673-.8123-3.8196-1.2202-6.1636-1.2202-2.6152,0-4.9592.5235-7.0388,1.5703-2.0693,1.0434-3.8264,2.5117-5.2612,4.4048-1.4654,1.883-2.5802,4.1329-3.3428,6.7703-.7788,2.6205-1.1626,5.5264-1.1626,8.7043v.8124c0,3.0283.3907,5.8323,1.1805,8.4289.7788,2.5967,1.8834,4.8467,3.3249,6.7296,1.4347,1.917,3.185,3.409,5.2441,4.4797,2.0625,1.0808,4.3894,1.611,6.9705,1.611,2.4566,0,4.6257-.4384,6.5031-1.3358,1.8774-.8972,3.0679-2.165,4.4233-3.8236v4.5109h9.3659V0h-9.3657Zm-.0002,43.0629c-4.6367,10.7298-18.5345,11.4921-18.8789-4.8739-.0032-16.6135,15.4766-14.3366,18.8791-3.7812l-.0002,8.6552Zm39.6009-26.3241c-2.7491,0-5.3303.5163-7.7434,1.536-2.4019,1.0197-4.5335,2.4718-6.3656,4.3582-1.8195,1.8897-3.2593,4.1641-4.2999,6.8288-1.0466,2.6613-1.571,5.6313-1.571,8.9179v1.5827c0,2.872.507,5.5441,1.5127,8.015.9988,2.4743,2.4408,4.6058,4.2832,6.4139,1.8603,1.8422,4.0874,3.2801,6.6855,4.3065,2.5981,1.0401,5.4628,1.5527,8.5864,1.5527,4.1318,0,7.65-.7947,10.5673-2.399,2.8957-1.5947,5.0411-3.4031,6.459-5.4127l-5.8242-4.9079c-8.5723,7.5191-22.9637,4.263-22.887-5.9742,0,0,19.7575-.1899,29.431-.1899v-4c0-2.9944-.405-5.7678-1.2145-8.2965-.8069-2.5389-2.011-4.7134-3.6035-6.5556-1.5925-1.8081-3.5616-3.2203-5.9159-4.2399-2.3439-1.0197-5.0523-1.536-8.0999-1.536h0Zm.0883,8.0783c5.1582.0903,10.2535,3.4774,10.4356,9.2394h-21.1212c.9373-6.4997,5.8399-9.3242,10.6855-9.2394Zm41.8553,34.8147h8.4235l16.927-42.7793h-9.9009l-11.2183,31.2185-11.3374-31.2185h-9.9009l17.007,42.7793Z"/>
  </g>
</svg>
