<?xml version="1.0" encoding="UTF-8"?>
<svg id="Ebene_2" data-name="Ebene 2" xmlns="http://www.w3.org/2000/svg" viewBox="0 0 999.9999 212.3471">
  <defs>
    <style>
      .cls-1, .cls-2 {
        stroke-width: 0px;
      }

      .cls-2 {
        fill: #0092e1;
      }
    </style>
  </defs>
  <g id="logos">
    <g>
      <rect class="cls-2" y="113.2705" width="56.6348" height="56.6348"/>
      <polygon class="cls-2" points="169.9046 56.6357 169.9046 .0009 113.2698 .0009 113.2698 56.6357 56.6368 56.6357 56.6368 0 0 0 0 56.6367 56.6348 56.6367 56.6348 113.2705 113.2698 113.2705 113.2698 169.9054 169.9046 169.9054 169.9046 113.2705 226.5394 113.2705 226.5394 56.6357 169.9046 56.6357"/>
    </g>
    <path class="cls-1" d="M706.4243,82.9397c0-7.479-1.2002-13.9653-3.5956-19.4538-2.4003-5.4885-5.7764-9.9794-10.1282-13.4774-4.3518-3.4955-9.4745-6.1179-15.3679-7.8669-5.8934-1.7466-12.2552-2.6223-19.0854-2.6223-6.8156,0-13.1822.9977-19.1001,2.9882-5.9227,1.9929-11.0746,4.8177-15.4508,8.4767-4.3811,3.659-7.8694,7.9888-10.4648,12.9895-2.5955,5.0007-3.8932,10.5112-3.8932,16.5266h22.442c0-8.2109,2.376-14.1067,7.1374-17.6853,4.752-3.576,11.1138-5.3666,19.0854-5.3666,3.9811,0,7.6011.3879,10.8552,1.1587,3.254.7733,6.0349,2.1149,8.3572,4.025,2.3125,1.9124,4.103,4.4933,5.3666,7.7449,1.2587,3.2541,1.8881,7.3595,1.8881,12.3187v10.2452l-41.4641,3.842c-12.6846,1.1367-22.198,5.2787-28.5403,12.4211-6.3473,7.1449-9.5184,15.7094-9.5184,25.6937,0,5.0422.9124,9.8794,2.7467,14.5142,1.8247,4.6348,4.4104,8.6207,7.7424,11.9528,3.7421,3.8224,8.1719,6.7082,13.2946,8.6597,5.1227,1.9515,10.8551,2.9272,17.1974,2.9272,9.5134,0,17.6853-2.1759,24.5154-6.5253,6.8303-4.3494,11.9919-11.0381,15.49-20.0637h.9757l.4879,23.5397h38.0537v-19.2709h-19.0269v-67.6919ZM684.4702,115.9465c0,11.4821-2.9272,20.8418-8.7817,28.0867-5.8544,7.2473-13.8652,10.8673-24.0276,10.8673-7.157,0-12.7676-1.3636-16.8315-4.0884-4.0687-2.7247-6.0983-7.0156-6.0983-12.87v-11.2283c0-3.659.5854-6.5447,1.766-8.6597,1.1807-2.1174,4.0884-3.337,8.7231-3.6614l45.25-4.1835v5.7374ZM977.558.0018v63.3011c-3.9763-7.723-9.377-13.6189-16.1925-17.6853-6.8204-4.064-14.9728-6.0984-24.4716-6.0984-8.4646,0-15.8801,1.749-22.2322,5.2446-6.352,3.498-11.6016,8.2328-15.7583,14.2092-4.1468,5.9764-7.2644,13.0505-9.3378,21.2223-2.0782,8.1718-3.1176,16.8535-3.1176,26.04,0,9.2695,1.0393,17.9512,3.1176,26.0401,2.0734,8.0913,5.23,15.1459,9.4647,21.1613,4.2346,6.0179,9.5427,10.7746,15.9338,14.2702,6.396,3.4956,13.9043,5.2446,22.5395,5.2446,9.4158,0,17.451-2.054,24.1056-6.1594,6.6545-4.1055,11.9723-9.9794,15.9486-17.6243v20.7345h22.4419V.0018h-22.4419ZM977.558,116.9686c0,10.977-2.9858,20.0441-8.9476,27.1987-5.9667,7.157-14.5873,10.7332-25.8717,10.7332-4.708,0-9.011-.7098-12.9043-2.1345-3.8979-1.4221-7.3082-3.3736-10.2256-5.8544-2.9272-2.4783-5.2202-5.5081-6.879-9.0865-1.6686-3.5761-2.4979-7.5205-2.4979-11.8309v-39.5174c0-4.3079.8293-8.2523,2.4979-11.8308,1.6588-3.5761,3.9518-6.6253,6.879-9.1476,2.9174-2.5198,6.3472-4.4908,10.2842-5.9154,3.9371-1.4221,8.2158-2.1345,12.8457-2.1345,11.2844,0,19.905,3.5981,25.8717,10.7941,5.9618,7.1961,8.9476,16.2827,8.9476,27.2598v21.4662ZM562.2588,42.5685l-34.1509,99.6474h-1.0977l-33.1753-99.6474h-24.2715l47.3235,127.334-8.0499,23.1738h-29.2721v19.2708h43.5422l62.4474-169.7787h-23.2958ZM439.1955,169.9049V.0018h-23.7841v71.9618h-80.1337V.0018h-23.7841v169.903h23.7841v-76.7186h80.1337v76.7186h23.7841ZM804.7301,57.4485c9.6744,0,16.2997,2.6638,19.8807,7.9889,3.576,5.3275,5.3665,12.6651,5.3665,22.0151v82.45h22.4421v-84.8893c0-8.2109-1.0149-15.185-3.0444-20.9174-2.0247-5.7325-4.8591-10.4282-8.5083-14.0873-3.6494-3.659-7.9866-6.3203-13.0116-7.9888-5.0299-1.6661-10.621-2.5004-16.7827-2.5004-9.6744,0-17.5634,2.1345-23.6617,6.4033-6.0983,4.2689-10.894,10.1453-14.3921,17.6243v-20.9784h-22.442v127.334h22.442v-74.4001c0-5.5276.7952-10.6307,2.376-15.3069,1.5903-4.6738,3.8054-8.7206,6.6497-12.1357s6.1813-6.0374,10.0012-7.8669c3.8201-1.8295,8.0499-2.7443,12.6847-2.7443Z"/>
  </g>
</svg>