<svg id="Layer_1" data-name="Layer 1" xmlns="http://www.w3.org/2000/svg" viewBox="0 0 456.97 279.79">
  <defs>
    <style>
      .style_compra_1{fill:none;}.style_compra_2{clip-path:url(#clip-path);}.style_compra_3{fill:#003349;}.style_compra_4{fill:#0c83c6;fill-rule:evenodd;}
    </style>
    <clipPath id="clip-path" transform="translate(-69.15 -69.15)">
      <rect class="style_compra_1" width="594.77" height="416.97"/>
    </clipPath>
  </defs>
  <title>Compra</title>
  <g class="style_compra_2">
    <path class="style_compra_3"
          d="M503.09,321.79H480.52l11.24-26.22Zm-5.81-40H486.61l-28.84,66h11.8L476.31,332h31L514,347.82h12.18ZM431,303.71a9.89,9.89,0,0,1-3.66,8.06q-3.65,3-9.83,3H400.61v-22h16.76q6.47,0,10,2.76t3.56,8.19m13.76,44.11L427,323a24.39,24.39,0,0,0,6.31-2.66,19.49,19.49,0,0,0,4.92-4.22,18.81,18.81,0,0,0,3.23-5.71,23.42,23.42,0,0,0-.51-16,17.71,17.71,0,0,0-4.83-6.55,22.09,22.09,0,0,0-7.67-4.12,33.25,33.25,0,0,0-10.16-1.45H389.09v65.55h11.52V325H415l16.11,22.85ZM359,304.56a10.68,10.68,0,0,1-3.79,8.56q-3.79,3.24-10.35,3.23H331.46V292.76h13.39q6.47,0,10.3,2.95t3.84,8.85m11.71-.29a22.86,22.86,0,0,0-1.73-9.08,19.72,19.72,0,0,0-5-6.93,22,22,0,0,0-7.86-4.45,32.61,32.61,0,0,0-10.35-1.54H319.94v65.55h11.52V326.75h13a34.79,34.79,0,0,0,10.2-1.45A25.09,25.09,0,0,0,363,321a20.19,20.19,0,0,0,5.62-7,22,22,0,0,0,2.06-9.74M285,300.81v47H296.5V282.27H284.23l-20,31-19.94-31H232.07v65.55H243.4V301l20.51,30.71h.37Zm-85.53,14.33a24.78,24.78,0,0,1-1.65,9,22.85,22.85,0,0,1-4.53,7.4,21.22,21.22,0,0,1-7,5,22,22,0,0,1-25-5.1A22.81,22.81,0,0,1,156.7,324a25.71,25.71,0,0,1,0-18.07,22.6,22.6,0,0,1,4.54-7.4,21.11,21.11,0,0,1,7-5,21.76,21.76,0,0,1,8.95-1.82,21.48,21.48,0,0,1,9,1.87,21.87,21.87,0,0,1,7.07,5.06,23,23,0,0,1,4.58,7.44,24.8,24.8,0,0,1,1.65,9m12.08-.19A34.39,34.39,0,0,0,209,301.84a33.2,33.2,0,0,0-7-10.77,32.78,32.78,0,0,0-10.77-7.26,35,35,0,0,0-13.85-2.66,34.16,34.16,0,0,0-24.73,10.06A32.83,32.83,0,0,0,145.51,302a35.23,35.23,0,0,0,0,26.22,32.46,32.46,0,0,0,17.79,18,35,35,0,0,0,13.86,2.67,34.11,34.11,0,0,0,24.72-10.06A33.11,33.11,0,0,0,209,328.06,34.39,34.39,0,0,0,211.53,315m-82.45,22.38-7.4-7.49a40.67,40.67,0,0,1-8.52,6.23,21.61,21.61,0,0,1-10.3,2.29,20.47,20.47,0,0,1-8.66-1.83,20.9,20.9,0,0,1-6.88-5,22.6,22.6,0,0,1-4.5-7.44A25.89,25.89,0,0,1,81.23,315a25.49,25.49,0,0,1,1.59-9.08,22.19,22.19,0,0,1,4.5-7.35,21.37,21.37,0,0,1,6.88-5,20.61,20.61,0,0,1,8.66-1.82,21.8,21.8,0,0,1,10,2.24,37,37,0,0,1,8.33,5.9l7.4-8.52a44.24,44.24,0,0,0-5-4.12,32.06,32.06,0,0,0-5.71-3.23,33.53,33.53,0,0,0-6.79-2.11,41.4,41.4,0,0,0-8.19-.74,34.13,34.13,0,0,0-13.68,2.66,32.75,32.75,0,0,0-10.67,7.31,33.08,33.08,0,0,0-7,10.81,35.23,35.23,0,0,0-2.48,13.21,34.67,34.67,0,0,0,2.53,13.29,32.7,32.7,0,0,0,30.81,20.51,40.22,40.22,0,0,0,8.38-.8,29.89,29.89,0,0,0,7-2.33,34.29,34.29,0,0,0,6-3.66,41.62,41.62,0,0,0,5.29-4.82"
          transform="translate(-69.15 -69.15)"/>
    <polygon class="style_compra_4"
             points="165.53 125.62 151.18 133.91 165.53 142.19 228.49 178.54 291.44 142.19 305.8 133.91 305.8 117.33 305.8 61.21 291.44 69.5 291.44 109.04 291.44 125.62 277.08 133.91 228.49 161.96 179.89 133.91 194.25 125.62 228.49 145.38 262.72 125.62 277.08 117.33 262.72 109.04 248.37 117.33 228.49 128.8 208.6 117.33 194.25 109.04 179.89 117.33 165.53 125.62"/>
    <polygon class="style_compra_4"
             points="291.44 36.35 228.49 0 165.53 36.35 151.18 44.63 151.18 61.21 151.18 117.33 165.53 109.04 165.53 69.5 165.53 52.92 179.89 44.63 228.49 16.58 277.08 44.63 262.72 52.92 228.49 33.16 194.25 52.92 179.89 61.21 179.89 77.79 179.89 100.75 194.25 92.46 194.25 86.08 194.25 69.5 208.61 61.21 228.49 49.73 248.37 61.21 262.72 69.5 277.08 61.21 291.44 52.92 305.8 44.63 291.44 36.35"/>
  </g>
</svg>
