<svg xmlns="http://www.w3.org/2000/svg" width="32.015" height="24.001" viewBox="0 0 32.015 24.001">
  <g transform="translate(0.005 0.001)">
    <path
      d="M51.64,474.42a2.814,2.814,0,0,0,1.88-.675l-9.07-8.655-.63.435c-.68.473-1.23.848-1.65,1.118a10.765,10.765,0,0,1-1.69.818,5.361,5.361,0,0,1-2,.412h0a5.309,5.309,0,0,1-2-.412,10.34,10.34,0,0,1-1.69-.818c-.42-.27-1-.645-1.65-1.118l-.63-.435-9.07,8.655a2.813,2.813,0,0,0,1.88.675Z"
      transform="translate(-22.5 -450.42)"/>
    <path d="M24.3,457.33a9.681,9.681,0,0,1-1.8-1.5V469l8-7.628C28.89,460.323,26.83,458.958,24.3,457.33Z"
          transform="translate(-22.5 -448.105)"/>
    <path d="M52.71,457.335q-3.645,2.351-6.2,4.058l8,7.628V455.85a9.581,9.581,0,0,1-1.8,1.485Z"
          transform="translate(-22.5 -448.11)"/>
    <path
      d="M51.64,445.53H25.36a2.63,2.63,0,0,0-2.12.885,3.361,3.361,0,0,0-.74,2.25,3.931,3.931,0,0,0,1,2.325,8.855,8.855,0,0,0,2.09,1.973l3.66,2.423,2.88,1.913,1.8,1.2.27.18.49.345,1,.645c.26.165.57.345.93.555a6.082,6.082,0,0,0,1,.457,2.884,2.884,0,0,0,.89.158h0a2.883,2.883,0,0,0,.89-.158,6.082,6.082,0,0,0,1-.457c.36-.21.67-.39.93-.555l1-.645.49-.345.27-.18,1.81-1.2,6.55-4.335a8.5,8.5,0,0,0,2.18-2.1,4.372,4.372,0,0,0,.87-2.573,2.55,2.55,0,0,0-.85-1.928A2.781,2.781,0,0,0,51.64,445.53Z"
      transform="translate(-22.5 -445.53)"/>
  </g>
</svg>
