<?xml version="1.0" encoding="UTF-8" standalone="no"?>
<svg
        width="512pt"
        height="512pt"
        xmlns="http://www.w3.org/2000/svg">
    <path
            id="feather"
            fill="#19324c"
            transform="matrix(0.125 0 0 -0.125 195 636.174)"
            d="M1634 5055.39C1603 5041.39 1484 4873.39 1335 4634.39C1298 4574.39 1258 4513.39 1246 4500.39C1221 4472.39 1140 4415.39 1134 4421.39C1132 4424.39 1150 4468.39 1174 4520.39C1223 4624.39 1264 4731.39 1278 4796.39C1289 4842.39 1277 4847.39 1265 4802.39C1253 4752.39 1187 4605.39 1152 4550.39C1134 4520.39 1074 4441.39 1020 4375.39C712 3998.39 494 3706.39 396 3539.39C295 3370.39 222 3137.39 166 2814.39C141 2668.39 114 2392.39 124 2382.39C127 2379.39 135 2381.39 142 2386.39C165 2405.39 217 2410.39 259 2399.39C307 2386.39 338 2349.39 369 2266.39C392 2203.39 398 2159.39 379 2191.39C374 2201.39 348 2225.39 323 2244.39C282 2275.39 271 2279.39 216 2278.39C156 2278.39 155 2278.39 180 2262.39C246 2218.39 306 2143.39 333 2071.39C372 1965.39 367 1936.39 315 1975.39C286 1997.39 221 2011.39 185 2005.39C141 1996.39 54 1910.39 24 1845.39C7 1809.39 0 1776.39 0 1732.39C0 1662.39 11 1632.39 45 1607.39L68 1590.39L48 1641.39C31 1686.39 30 1699.39 40 1736.39C64 1819.39 158 1899.39 234 1899.39C276 1899.39 336 1852.39 356 1804.39C371 1767.39 387 1509.39 374 1509.39C369 1509.39 359 1542.39 353 1583.39C338 1678.39 306 1745.39 268 1765.39C251 1774.39 236 1778.39 233 1776.39C231 1773.39 238 1766.39 249 1760.39C260 1753.39 277 1735.39 285 1718.39C303 1685.39 302 1680.39 264 1449.39C206 1099.39 210 1071.39 324 952.393C346 928.393 359 909.393 354 909.393C327 909.393 184 951.393 162 965.393C131 985.393 101 1053.39 100 1104.39C99 1144.39 99 1144.39 85 1119.39C78 1105.39 68 1072.39 64 1044.39C60 1017.39 55 1000.39 53 1007.39C50 1013.39 42 1019.39 34 1019.39C24 1019.39 20 1006.39 20 972.393C20 919.393 54 834.393 70 844.393C75 847.393 80 844.393 80 836.393C80 828.393 87 818.393 96 815.393C119 806.393 123 807.393 117 823.393C113 832.393 138 825.393 185 803.393C226 784.393 265 769.393 272 769.393C279 769.393 270 757.393 251 742.393C233 727.393 204 695.393 189 670.393C173 645.393 160 630.393 160 637.393C160 643.393 154 646.393 147 643.393C136 639.393 100 539.393 100 514.393C100 511.393 111 509.393 124 509.393C138 509.393 154 519.393 164 534.393C182 562.393 185 573.393 170 564.393C148 550.393 163 577.393 200 617.393C235 655.393 345 717.393 356 706.393C359 704.393 348 686.393 332 667.393C317 647.393 296 613.393 286 590.393C267 550.393 251 537.393 249 562.393C248 574.393 239 548.393 226 496.393C220 470.393 221 468.393 245 471.393C263 473.393 278 487.393 297 519.393C317 552.393 319 560.393 305 549.393C288 535.393 287 535.393 304 566.393C319 596.393 418 684.393 426 676.393C428 674.393 417 648.393 401 618.393C385 588.393 369 550.393 365 532.393C361 511.393 354 502.393 345 505.393C327 512.393 322 502.393 314 431.393C307 370.393 308 369.393 333 369.393C352 369.393 359 376.393 364 396.393C368 411.393 367 425.393 361 429.393C354 433.393 364 458.393 386 494.393C425 561.393 486 636.393 474 604.393C430 483.393 421 464.393 406 467.393C392 469.393 390 456.393 390 369.393C390 270.393 390 269.393 414 269.393C433 269.393 441 277.393 450 305.393C460 334.393 460 343.393 449 349.393C439 356.393 439 363.393 447 382.393C458 406.393 570 532.393 576 527.393C577 525.393 570 498.393 559 466.393C543 419.393 541 393.393 546 333.393C550 292.393 557 259.393 561 259.393C566 259.393 570 268.393 570 280.393C570 292.393 585 316.393 604 335.393C640 371.393 682 379.393 722 358.393C739 349.393 742 349.393 738 360.393C651 589.393 538 1042.39 541 1149.39C541 1163.39 552 1113.39 565 1039.39C601 836.393 723 436.393 840 144.393C895 7.39257 904 -10.6074 919 4.39257C930 17.3926 941 101.393 930 94.3926C915 85.3926 769 429.393 721 588.393C656 799.393 596 1083.39 586 1229.39L581 1304.39L590 1239.39C622 1023.39 670 794.393 716 640.393C750 528.393 800 386.393 811 375.393C826 359.393 857 397.393 880 460.393C908 533.393 990 679.393 1037 736.393C1055 759.393 1091 793.393 1115 810.393C1140 828.393 1160 846.393 1160 851.393C1160 868.393 1115 847.393 1057 803.393C984 746.393 971 746.393 1035 803.393C1111 869.393 1220 1093.39 1220 1181.39C1220 1251.39 1161 1319.39 1099 1319.39C1060 1319.39 975 1272.39 936 1228.39C916 1207.39 898 1189.39 896 1189.39C886 1189.39 925 1269.39 998 1403.39C1082 1554.39 1123 1600.39 1226 1657.39C1259 1675.39 1274 1687.39 1260 1683.39C1227 1674.39 1084 1603.39 1048 1578.39C1004 1546.39 1015 1565.39 1080 1632.39C1217 1772.39 1342 1984.39 1425 2214.39C1450 2286.39 1480 2368.39 1490 2397.39C1501 2425.39 1508 2449.39 1506 2449.39C1503 2449.39 1491 2432.39 1478 2412.39C1436 2343.39 1388 2299.39 1240 2193.39C1093 2089.39 1062 2058.39 947 1909.39C915 1868.39 884 1832.39 878 1830.39C872 1828.39 881 1844.39 898 1865.39C915 1887.39 938 1934.39 949 1970.39C961 2006.39 983 2053.39 998 2075.39C1014 2097.39 1136 2220.39 1269 2349.39C1475 2549.39 1515 2593.39 1540 2645.39C1556 2678.39 1601 2813.39 1639 2945.39C1717 3213.39 1726 3237.39 1769 3296.39C1786 3320.39 1800 3341.39 1800 3345.39C1800 3348.39 1779 3335.39 1754 3317.39C1696 3276.39 1628 3202.39 1578 3125.39C1557 3092.39 1538 3064.39 1536 3062.39C1529 3055.39 1577 3195.39 1590 3220.39C1633 3301.39 1697 3381.39 1753 3422.39C1787 3447.39 1832 3485.39 1852 3506.39C1935 3592.39 1974 3752.39 1932 3836.39C1888 3922.39 1810 3963.39 1703 3956.39C1619 3951.39 1558 3920.39 1459 3830.39L1399 3777.39L1425 3835.39C1476 3951.39 1559 4045.39 1635 4074.39C1689 4095.39 1748 4086.39 1871 4040.39L1948 4012.39L1958 4048.39C1979 4117.39 1993 4275.39 1994 4454.39C1994 4613.39 1992 4645.39 1971 4724.39C1927 4895.39 1857 5000.39 1757 5048.39C1707 5072.39 1678 5074.39 1634 5055.39ZM1314 3664.39C1242 3574.39 1205 3536.39 1249 3597.39C1281 3642.39 1380 3759.39 1386 3759.39C1388 3759.39 1356 3716.39 1314 3664.39ZM1034 3619.39C997 3547.39 965 3491.39 962 3493.39C957 3498.39 1088 3749.39 1096 3749.39C1099 3749.39 1071 3690.39 1034 3619.39ZM607 2577.39C604 2569.39 601 2572.39 601 2583.39C600 2594.39 603 2600.39 606 2596.39C609 2593.39 610 2584.39 607 2577.39ZM597 2537.39C594 2529.39 591 2532.39 591 2543.39C590 2554.39 593 2560.39 596 2556.39C599 2553.39 600 2544.39 597 2537.39ZM647 2537.39C644 2529.39 641 2532.39 641 2543.39C640 2554.39 643 2560.39 646 2556.39C649 2553.39 650 2544.39 647 2537.39ZM587 2497.39C584 2489.39 581 2492.39 581 2503.39C580 2514.39 583 2520.39 586 2516.39C589 2513.39 590 2504.39 587 2497.39ZM637 2487.39C634 2479.39 631 2482.39 631 2493.39C630 2504.39 633 2510.39 636 2506.39C639 2503.39 640 2494.39 637 2487.39ZM577 2117.39C574 2110.39 572 2115.39 572 2129.39C572 2143.39 574 2148.39 577 2142.39C579 2135.39 579 2123.39 577 2117.39ZM527 1976.39C525 1953.39 524 1975.39 524 2024.39C524 2074.39 525 2092.39 527 2066.39C529 2040.39 529 1999.39 527 1976.39ZM567 1992.39C565 1976.39 563 1989.39 563 2019.39C563 2049.39 565 2062.39 567 2047.39C569 2031.39 569 2007.39 567 1992.39ZM557 1657.39C556 1600.39 554 1646.39 554 1759.39C554 1872.39 556 1918.39 557 1862.39C559 1805.39 559 1713.39 557 1657.39ZM517 1637.39C516 1586.39 514 1625.39 514 1724.39C514 1823.39 516 1865.39 517 1817.39C519 1769.39 519 1688.39 517 1637.39ZM567 1447.39C565 1429.39 563 1443.39 563 1479.39C563 1515.39 565 1529.39 567 1512.39C569 1494.39 569 1464.39 567 1447.39ZM527 1362.39C525 1335.39 524 1357.39 524 1409.39C524 1461.39 525 1483.39 527 1457.39C529 1430.39 529 1388.39 527 1362.39ZM577 1332.39C575 1316.39 573 1329.39 573 1359.39C573 1389.39 575 1402.39 577 1387.39C579 1371.39 579 1347.39 577 1332.39ZM537 1217.39C535 1199.39 533 1213.39 533 1249.39C533 1285.39 535 1299.39 537 1282.39C539 1264.39 539 1234.39 537 1217.39Z"/>
    <g
            transform="matrix(9.8612837,0,0,9.8612837,387.46304,419.56923)"
            style="fill:none">
        <path
                d="M 20.3499,8.92293 19.9837,8.7192 C 19.9269,8.68756 19.8989,8.67169 19.8714,8.65524 19.5983,8.49165 19.3682,8.26564 19.2002,7.99523 19.1833,7.96802 19.1674,7.93949 19.1348,7.8831 19.1023,7.82677 19.0858,7.79823 19.0706,7.76998 18.92,7.48866 18.8385,7.17515 18.8336,6.85606 c -5e-4,-0.03208 -4e-4,-0.06485 7e-4,-0.13002 L 18.8415,6.30078 C 18.8529,5.62025 18.8587,5.27894 18.763,4.97262 18.6781,4.70053 18.536,4.44993 18.3462,4.23725 18.1317,3.99685 17.8347,3.82534 17.2402,3.48276 L 16.7464,3.1982 C 16.1536,2.85658 15.8571,2.68571 15.5423,2.62057 15.2639,2.56294 14.9765,2.56561 14.6991,2.62789 c -0.3132,0.0703 -0.606,0.24562 -1.1912,0.59607 l -0.0034,0.00159 -0.3538,0.21186 c -0.0559,0.0335 -0.0842,0.05038 -0.1123,0.06597 -0.2783,0.15472 -0.5889,0.24027 -0.9072,0.25049 -0.032,0.00103 -0.0647,0.00103 -0.1299,0.00103 -0.0648,0 -0.0989,0 -0.1309,-0.00103 C 11.5515,3.74361 11.2402,3.65759 10.9615,3.50224 10.9334,3.48658 10.9056,3.46956 10.8496,3.4359 L 10.4935,3.22213 C 9.90422,2.86836 9.60915,2.69121 9.29427,2.62057 9.0157,2.55807 8.72737,2.55634 8.44791,2.61471 8.13236,2.68062 7.83577,2.85276 7.24258,3.19703 L 7.23994,3.1982 6.75228,3.48124 6.74688,3.48454 C 6.15904,3.82572 5.86441,3.99672 5.6517,4.23614 5.46294,4.4486 5.32185,4.69881 5.2374,4.97018 5.14194,5.27691 5.14703,5.61896 5.15853,6.3027 L 5.16568,6.72736 C 5.16676,6.79166 5.16864,6.82362 5.16817,6.85525 5.16343,7.17499 5.08086,7.48914 4.92974,7.77096 4.9148,7.79883 4.8987,7.8267 4.86654,7.88237 4.83436,7.93809 4.81877,7.96579 4.80209,7.99268 4.63336,8.26452 4.40214,8.49186 4.12733,8.65572 4.10015,8.67193 4.0715,8.68752 4.01521,8.71871 L 3.65365,8.91908 C 3.05208,9.25245 2.75137,9.41928 2.53256,9.65669 2.33898,9.86672 2.19275,10.1158 2.10349,10.3872 2.00259,10.6939 2.00267,11.0378 2.00424,11.7255 l 0.00127,0.5622 c 0.00155,0.6831 0.00368,1.0245 0.10481,1.3291 0.08947,0.2695 0.23463,0.5172 0.42712,0.7259 0.21758,0.236 0.5153,0.4018 1.1123,0.7339 l 0.35834,0.1994 c 0.06099,0.0339 0.09168,0.0506 0.12109,0.0684 0.27231,0.1639 0.50172,0.3906 0.66901,0.6609 0.01807,0.0292 0.03542,0.0595 0.07012,0.1202 0.03426,0.0598 0.05179,0.0897 0.06764,0.1197 0.14667,0.2777 0.2252,0.5863 0.23055,0.9003 5.8e-4,0.0339 9e-5,0.0682 -0.00108,0.1372 l -0.00688,0.4075 c -0.01158,0.6861 -0.01663,1.0295 0.07939,1.3371 0.08495,0.2721 0.22692,0.5227 0.41671,0.7354 0.21452,0.2404 0.51192,0.4118 1.10644,0.7544 l 0.49371,0.2844 c 0.59285,0.3417 0.88917,0.5123 1.20391,0.5775 0.27845,0.0576 0.56595,0.0554 0.8434,-0.0069 0.31358,-0.0704 0.60739,-0.2463 1.19431,-0.5978 l 0.3538,-0.2118 c 0.056,-0.0336 0.0844,-0.0504 0.1124,-0.066 0.2783,-0.1547 0.5886,-0.2407 0.9069,-0.2509 0.032,-0.001 0.0647,-0.001 0.1299,-0.001 0.0654,0 0.098,0 0.1301,0.001 0.3189,0.0103 0.6312,0.0966 0.9099,0.2519 0.0245,0.0137 0.0491,0.0285 0.0922,0.0544 l 0.3762,0.2258 c 0.5893,0.3538 0.8838,0.5304 1.1987,0.6011 0.2785,0.0625 0.5671,0.065 0.8466,0.0067 0.3154,-0.0659 0.6126,-0.2384 1.2055,-0.5825 l 0.495,-0.2873 c 0.5882,-0.3414 0.8831,-0.5126 1.0959,-0.7521 0.1888,-0.2124 0.3301,-0.4625 0.4145,-0.7339 0.0948,-0.3045 0.0891,-0.6439 0.0777,-1.3178 l -0.0074,-0.4395 c -0.0011,-0.0643 -0.0012,-0.0963 -7e-4,-0.1279 0.0047,-0.3198 0.0859,-0.6341 0.237,-0.9159 0.015,-0.0279 0.0312,-0.056 0.0632,-0.1115 0.0322,-0.0556 0.0489,-0.0834 0.0656,-0.1103 0.1687,-0.2719 0.4001,-0.4994 0.675,-0.6633 0.0268,-0.016 0.0545,-0.0313 0.1094,-0.0617 l 0.0019,-9e-4 0.3615,-0.2004 c 0.6016,-0.3333 0.9029,-0.5004 1.1217,-0.7378 0.1936,-0.21 0.3396,-0.4588 0.4289,-0.7301 0.1003,-0.3049 0.0995,-0.6468 0.098,-1.3265 L 21.9945,11.7119 C 21.9929,11.0287 21.9921,10.6874 21.891,10.3828 21.8015,10.1133 21.6555,9.86561 21.463,9.65685 21.2457,9.42111 20.9475,9.25526 20.3517,8.92378 Z"
                stroke="#19324c"
                stroke-width="2"
                stroke-linecap="round"
                stroke-linejoin="round"
                style="fill:none"/>
        <path
                d="m 8.00033,12 c 0,2.2091 1.79086,4 3.99997,4 2.2092,0 4,-1.7909 4,-4 0,-2.20918 -1.7908,-4.00004 -4,-4.00004 -2.20911,0 -3.99997,1.79086 -3.99997,4.00004 z"
                stroke="#19324c"
                stroke-width="2"
                stroke-linecap="round"
                stroke-linejoin="round"
                style="fill:none"/>
    </g>
</svg>
