<svg viewBox="0 0 192 192" xmlns="http://www.w3.org/2000/svg">
  <path
    style="display:inline;fill:#19324c;stroke-width:0.192136"
    d="M 95.999827,0 A 96,96 0 0 0 0,95.999823 96,96 0 0 0 95.999827,191.99965 96,96 0 0 0 192.00017,95.999823 96,96 0 0 0 95.999827,0 Z M 120.465,5.080311 c 0.67028,0.03969 1.36702,0.269131 2.24896,0.692464 3.52778,1.693332 5.99718,5.397299 7.54941,11.429793 0.74079,2.786942 0.81132,3.915839 0.81132,9.525 -0.0353,6.314716 -0.52938,11.888476 -1.27021,14.32264 l -0.35243,1.270207 -2.71663,-0.988054 c -4.33917,-1.622776 -6.42059,-1.940242 -8.32559,-1.19941 -2.68111,1.023055 -5.60916,4.339311 -7.40833,8.431526 l -0.91726,2.04587 2.11667,-1.86965 c 3.49249,-3.174998 5.64441,-4.268303 8.60774,-4.444692 3.77472,-0.246944 6.52688,1.199452 8.07909,4.233332 1.48167,2.96334 0.10549,8.60778 -2.82256,11.64167 -0.70555,0.74084 -2.29285,2.08118 -3.4923,2.96312 -1.97554,1.44638 -4.2336,4.26869 -5.75055,7.126176 -0.45861,0.88194 -2.15173,5.82076 -1.90479,5.57382 0.0706,-0.0706 0.74073,-1.05844 1.48156,-2.2226 1.76389,-2.71639 4.16282,-5.326836 6.20892,-6.773226 0.88194,-0.635 1.62264,-1.09337 1.62264,-0.98754 0,0.14112 -0.49375,0.88191 -1.09347,1.72858 -1.51695,2.081376 -1.83462,2.927746 -4.58628,12.382186 -1.34055,4.65666 -2.92785,9.41917 -3.4923,10.58333 -0.88194,1.83445 -2.29292,3.38672 -9.56014,10.442267 -4.69194,4.55084 -8.996213,8.88996 -9.560653,9.66608 -0.52917,0.77611 -1.30525,2.43417 -1.72858,3.70416 -0.38806,1.27 -1.19914,2.92806 -1.79886,3.70417 -0.59972,0.74083 -0.91756,1.30567 -0.7059,1.23507 0.21167,-0.0705 1.30559,-1.34052 2.43448,-2.78691 4.05695,-5.25639 5.150503,-6.35014 10.336323,-10.01903 5.22111,-3.73945 6.9142,-5.29197 8.39587,-7.726147 0.45861,-0.70555 0.88222,-1.30483 0.98805,-1.30483 0.0706,0 -0.17624,0.84622 -0.5643,1.83399 -0.35277,1.023067 -1.41146,3.915947 -2.2934,6.455947 -2.92806,8.11388 -7.33779,15.59268 -12.170843,20.53156 -2.29305,2.36361 -2.68084,3.0342 -1.12861,1.90531 1.27,-0.88193 6.314453,-3.38666 7.478613,-3.70416 0.49388,-0.14112 -0.0352,0.28226 -1.19941,0.91725 -3.6336,2.01083 -5.080113,3.63376 -8.043433,8.9607 -2.57528,4.72722 -3.951,7.54941 -3.59823,7.54941 0.0706,0 0.70573,-0.63531 1.41128,-1.37615 1.37584,-1.55221 4.37421,-3.21014 5.750043,-3.21014 2.18723,0 4.26899,2.399 4.26899,4.86844 0,3.10445 -3.84563,11.00678 -6.526743,13.3351 -2.25777,2.01083 -1.79909,2.01083 0.77618,0 2.046113,-1.55221 3.633893,-2.29315 3.633893,-1.69343 0,0.17639 -0.70556,0.81142 -1.5875,1.44642 -0.84667,0.59972 -2.116773,1.79879 -2.751773,2.61018 -1.65805,2.01084 -4.5509,7.16159 -5.53868,9.73687 -0.811388,2.2225 -1.904794,3.56323 -2.43396,2.99878 -0.388055,-0.38805 -2.15229,-5.39767 -3.351734,-9.34878 -1.622776,-5.43277 -3.315802,-13.51153 -4.44469,-21.13153 l -0.31781,-2.29288 0.176734,2.64583 c 0.352777,5.15055 2.469446,15.16949 4.7625,22.61309 1.693332,5.60917 6.84351,17.74486 7.37268,17.42736 0.38805,-0.24695 -3e-5,2.71639 -0.38809,3.175 -0.52916,0.52916 -0.84663,-0.10618 -2.786914,-4.93923 -4.127496,-10.3011 -8.431217,-24.41189 -9.701216,-31.57327 -0.458611,-2.61055 -0.84646,-4.37479 -0.84646,-3.8809 -0.105834,3.77472 3.880283,19.75588 6.949446,27.83448 0.141112,0.388 0.03542,0.38778 -0.564306,0.0703 -1.41111,-0.74083 -2.893055,-0.45868 -4.163054,0.81132 -0.670277,0.67028 -1.19941,1.51712 -1.19941,1.94045 0,0.42333 -0.140904,0.74104 -0.317293,0.74104 -0.141111,0 -0.388056,-1.1643 -0.529167,-2.61069 -0.176389,-2.11667 -0.106074,-3.03416 0.45837,-4.69222 0.388055,-1.12889 0.635244,-2.08131 0.599964,-2.15181 -0.211667,-0.17639 -4.162571,4.26878 -4.550627,5.11545 -0.282218,0.67027 -0.282498,0.91733 0.07028,1.16427 0.388057,0.21167 0.387918,0.52879 0.03514,1.55184 -0.3175,0.98777 -0.599413,1.27021 -1.26969,1.27021 -0.846666,0 -0.846977,-0.0354 -0.846977,-3.52795 0,-3.06917 0.07094,-3.52775 0.564824,-3.45715 0.529166,0.10583 0.846598,-0.56418 2.39882,-4.83278 0.423332,-1.12889 -1.728889,1.51676 -3.10472,3.88038 -0.776111,1.27 -1.128544,2.15177 -0.8816,2.29288 0.211666,0.14111 0.24653,0.6351 0.10542,1.16427 -0.176389,0.70555 -0.423197,0.9524 -1.093474,0.9524 -0.881944,0 -0.917188,-0.035 -0.670243,-2.18695 0.282222,-2.50472 0.458474,-2.85763 1.093473,-2.61069 0.3175,0.10583 0.564788,-0.21157 0.7059,-0.9524 0.141111,-0.63499 0.705246,-1.97559 1.26969,-3.03392 0.564444,-1.05833 0.952677,-1.97579 0.882117,-2.04639 -0.282222,-0.28222 -3.774964,2.82257 -4.30413,3.8809 -0.59972,1.09361 -0.564066,1.09334 0.03566,0.59945 0.493888,-0.38806 0.423402,-0.10583 -0.282154,1.05833 -0.670276,1.12889 -1.199514,1.62294 -1.834513,1.69344 -0.846666,0.10584 -0.88191,0.0351 -0.670243,-0.88212 0.45861,-1.83443 0.77604,-2.75136 0.81132,-2.32802 0.07056,0.88194 0.635069,0.42306 1.305346,-0.98805 0.352778,-0.81139 1.093474,-2.01056 1.62264,-2.71612 0.564444,-0.67027 0.952294,-1.30564 0.84646,-1.37614 -0.388054,-0.38806 -4.268302,1.7993 -5.503023,3.13986 -1.305277,1.41111 -1.834444,2.36354 -1.058333,1.86965 0.529166,-0.3175 0.423126,0.0706 -0.211874,1.05834 -0.352777,0.52917 -0.917396,0.88211 -1.411283,0.88211 -0.458612,0 -0.84646,-0.0704 -0.84646,-0.17621 0,-0.88194 1.270242,-4.41004 1.658297,-4.55115 0.246944,-0.10584 0.45837,2.2e-4 0.45837,0.21188 0,0.24695 0.458749,-0.28233 1.023193,-1.16427 0.529166,-0.88195 1.551947,-2.01074 2.186947,-2.5399 0.670272,-0.52917 0.987983,-0.9524 0.74104,-0.9524 -0.246944,0 -1.622676,-0.52964 -3.069064,-1.19992 -1.658054,-0.77615 -2.539931,-1.02289 -2.39882,-0.70539 0.211667,0.56444 0.07035,0.59966 -0.74104,0.28216 -0.317499,-0.10584 -0.564306,-0.4583 -0.564306,-0.74053 0,-0.28222 -0.176562,-0.38798 -0.35295,-0.28215 -0.564444,0.35278 -1.763717,-2.64628 -1.763717,-4.516 0,-1.19945 0.140733,-1.65778 0.49351,-1.65778 0.282223,0 0.56441,0.21157 0.670243,0.42323 0.07056,0.24695 0.246979,-0.35285 0.38809,-1.30535 0.141111,-0.98778 0.494096,-2.15194 0.74104,-2.64583 0.493887,-0.88194 0.493887,-0.88194 0.529167,0.52916 0.03528,1.79917 1.093853,4.19803 2.187463,4.90358 0.77611,0.49389 5.820731,1.97559 6.77323,1.97559 0.176389,0 -0.282223,-0.67003 -1.058333,-1.5167 -4.021663,-4.19805 -4.162777,-5.18609 -2.116667,-17.5333 1.340554,-8.14916 1.375523,-8.32569 0.740524,-9.48986 -0.282222,-0.59972 -0.881635,-1.23462 -1.26969,-1.48156 -0.388056,-0.21167 -0.635384,-0.45848 -0.564824,-0.56431 0.105833,-0.0705 0.635346,0.0706 1.235067,0.38809 1.340554,0.70555 2.4691,3.06889 2.998267,6.42028 0.211666,1.44639 0.564651,2.61069 0.74104,2.61069 0.45861,0 -0.105937,-9.10132 -0.635104,-10.4066 -0.705554,-1.69332 -2.821948,-3.35173 -4.303613,-3.35173 -2.681108,0 -5.997361,2.82251 -6.844027,5.75055 -0.352777,1.30528 -0.317568,1.76372 0.282154,3.35122 l 0.705383,1.79937 -0.81132,-0.59996 c -1.199444,-0.88195 -1.5875,-1.9401 -1.5875,-4.40955 0,-1.55222 0.247254,-2.71632 0.846977,-3.98632 1.058332,-2.29305 4.127536,-5.32712 5.679756,-5.64462 1.269999,-0.21167 3.562713,0.28223 4.585767,1.05834 1.834443,1.37584 2.010935,0.35256 0.635103,-3.38688 -0.9525,-2.53999 -3.069271,-5.18587 -5.397603,-6.73809 -0.881943,-0.56444 -0.846458,-0.5643 1.270207,-0.5643 1.940276,-0.0353 2.328059,0.1058 3.774446,1.19941 0.881943,0.67028 1.799202,1.51688 1.97559,1.86965 0.670278,1.12889 0.458955,-0.42333 -0.352433,-2.64583 -1.093611,-2.92806 -2.187569,-4.233097 -3.8809,-4.691717 -1.481666,-0.38805 -3.316009,-0.21191 -4.127397,0.45837 -0.246945,0.17641 -0.52927,0.24691 -0.635103,0.14108 -0.352778,-0.35278 0.600137,-10.08935 1.48208,-15.2399 1.975554,-11.39471 4.550664,-19.614276 8.113717,-25.576206 3.457218,-5.89139 11.147579,-16.192549 22.01313,-29.492259 1.905,-2.328331 4.02208,-5.115451 4.65708,-6.173783 1.23472,-1.940276 3.56299,-7.12601 3.98632,-8.889897 0.42332,-1.587498 0.84642,-1.410903 0.45837,0.211873 -0.49389,2.293054 -1.94042,6.067472 -3.66903,9.736357 -0.84667,1.834443 -1.48137,3.386977 -1.41077,3.49281 0.21166,0.211667 3.06923,-1.799133 3.95118,-2.78691 0.42333,-0.45861 1.83407,-2.610695 3.13935,-4.72736 5.25638,-8.431381 9.45457,-14.357918 10.54819,-14.851807 0.77611,-0.335138 1.42004,-0.485138 2.09031,-0.44545 z m -10.83913,46.165136 c -0.21167,0 -3.70441,4.1274 -4.8333,5.7149 -1.55221,2.15195 -0.24659,0.81183 2.2934,-2.36316 1.48166,-1.83444 2.6104,-3.35174 2.5399,-3.35174 z m -10.23038,0.35295 c -0.28222,0 -4.903753,8.85459 -4.727363,9.03098 0.10583,0.07056 1.23462,-1.90469 2.53989,-4.44469 1.30528,-2.50472 2.293303,-4.58629 2.187473,-4.58629 z M 82.032202,92.231063 c -0.07276,0.0182 -0.125679,0.21022 -0.09922,0.50126 0,0.38806 0.105524,0.49357 0.211357,0.21135 0.105832,-0.24694 0.07069,-0.5644 -0.03514,-0.67024 -0.02646,-0.0353 -0.05274,-0.0484 -0.077,-0.0424 z m -0.35295,1.41128 c -0.07276,0.0182 -0.125679,0.20971 -0.09922,0.50074 0,0.38806 0.106041,0.4941 0.211874,0.21188 0.10583,-0.24694 0.07018,-0.56441 -0.03566,-0.67025 -0.02646,-0.0353 -0.05274,-0.0484 -0.077,-0.0424 z m 1.763717,0 c -0.07276,0.0182 -0.125679,0.20971 -0.09922,0.50074 0,0.38806 0.10604,0.4941 0.211873,0.21188 0.105831,-0.24694 0.07069,-0.56441 -0.03514,-0.67025 -0.02646,-0.0353 -0.05326,-0.0484 -0.07751,-0.0424 z m -2.116667,1.41128 c -0.07276,0.0182 -0.125679,0.2097 -0.09922,0.50075 0,0.38805 0.10604,0.49409 0.211874,0.21187 0.10583,-0.24694 0.07069,-0.5644 -0.03514,-0.67024 -0.02646,-0.0353 -0.05326,-0.0484 -0.07752,-0.0424 z m 1.764233,0.35244 c -0.07276,0.0182 -0.125678,0.21022 -0.09922,0.50126 0,0.38806 0.105522,0.49357 0.211356,0.21135 0.105831,-0.24694 0.07069,-0.5644 -0.03514,-0.67024 -0.02646,-0.0353 -0.05274,-0.0484 -0.077,-0.0424 z M 81.01366,108.2027 c -0.06449,-0.0165 -0.10387,0.17529 -0.10387,0.5457 0,0.49383 0.07038,0.67017 0.176217,0.42323 0.07055,-0.21167 0.07055,-0.63516 0,-0.88211 -0.02646,-0.0529 -0.05085,-0.0813 -0.07235,-0.0868 z m -1.737879,2.36471 c -0.03969,-0.12568 -0.05943,0.56224 -0.05943,1.88516 0,1.72864 0.03538,2.50482 0.105937,1.69344 0.07055,-0.81139 0.07055,-2.25778 0,-3.175 -0.01764,-0.22931 -0.03328,-0.3617 -0.04651,-0.4036 z m 1.405599,0.85577 c -0.04961,-0.0446 -0.0894,0.41186 -0.0894,1.20561 0,1.05833 0.07103,1.51684 0.141593,0.95239 0.07056,-0.52917 0.07056,-1.37548 0,-1.93993 -0.01764,-0.13229 -0.03566,-0.20319 -0.05219,-0.21807 z m -0.332279,5.91798 c -0.03473,-0.19017 -0.07441,1.4704 -0.07441,4.46019 0,3.98639 0.07066,5.60906 0.105936,3.59823 0.07056,-1.97555 0.07056,-5.22127 0,-7.23211 -0.0088,-0.49389 -0.01995,-0.76292 -0.03152,-0.82631 z m -1.411284,1.72083 c -0.03473,-0.13395 -0.07441,1.35454 -0.07441,3.97391 0,3.4925 0.07066,4.86824 0.105937,3.06907 0.07056,-1.79916 0.07056,-4.65666 0,-6.35 -0.0088,-0.42333 -0.01995,-0.64834 -0.03152,-0.69298 z m 1.743563,11.20293 c -0.04961,-0.0546 -0.0894,0.46137 -0.0894,1.41387 0,1.27 0.07103,1.76413 0.141593,1.12913 0.07056,-0.59972 0.07056,-1.6584 0,-2.2934 -0.01764,-0.14993 -0.03566,-0.23141 -0.05219,-0.2496 z m -1.405599,1.80971 c -0.03969,-0.0827 -0.05943,0.69794 -0.05943,2.07377 0,1.83444 0.03538,2.61028 0.105937,1.65778 0.07055,-0.91721 0.07055,-2.39871 0,-3.35121 -0.01764,-0.22931 -0.03328,-0.35278 -0.04651,-0.38034 z m 1.758549,2.63188 c -0.04961,-0.0446 -0.0894,0.41186 -0.0894,1.20561 0,1.05833 0.07052,1.51684 0.141077,0.9524 0.07055,-0.52917 0.07055,-1.3755 0,-1.93994 -0.01764,-0.13229 -0.03514,-0.20319 -0.05168,-0.21807 z m -1.411283,3.67264 c -0.04961,-0.0546 -0.0894,0.46137 -0.0894,1.41387 0,1.27 0.07103,1.76361 0.141593,1.12861 0.07055,-0.59972 0.07055,-1.65788 0,-2.29288 -0.01764,-0.14993 -0.03566,-0.23141 -0.05219,-0.2496 z"/>
</svg>
