<?xml version="1.0" standalone="no"?>
<svg xmlns="http://www.w3.org/2000/svg" width="152pt" height="152pt" fill="#19324c">
    <g id="g2">
        <path transform="matrix(0.125 0 0 -0.125 0.375 156.203)"
              d="M776.449 980.675C446.343 984.371 144.772 925.692 38.11 824.848C-9.72627 779.597 -11.0078 748.574 30.3641 702.031C60.1001 667.124 191.974 614.121 321.261 584.385C427.276 558.527 478.989 555.939 758.249 555.939C1038.8 555.939 1089.21 558.527 1197.81 584.385C1427.94 637.392 1552.06 725.303 1502.93 798.997C1458.98 867.519 1310.3 925.693 1109.9 955.429C999.683 971.267 886.485 979.442 776.449 980.675ZM667.136 932.987C808.826 933.048 1023.61 920.211 1094.39 903.727C1206.87 877.87 1307.71 830.022 1327.11 795.114C1363.31 726.592 1262.47 658.085 1068.54 616.713C917.273 585.684 599.226 585.684 447.96 616.713C254.029 658.085 153.172 726.592 189.372 795.114C216.523 844.243 371.668 901.14 557.841 928.29C580.79 931.523 619.906 932.966 667.136 932.987ZM1498.9 637.072C1496.48 637.395 1495.19 635.442 1495.19 630.917C1495.19 612.817 1390.46 557.238 1307.71 530.088C1165.5 484.837 1002.6 465.431 758.249 465.431C451.839 465.431 247.55 500.346 97.5771 575.332C70.4268 588.261 40.7071 607.653 30.3641 619.288C0.628059 647.732 -9.72504 620.583 13.5466 575.332C66.5543 473.195 392.367 393.029 758.249 393.029C1125.42 393.029 1449.93 473.19 1502.93 576.62C1517.15 605.063 1519.75 619.286 1509.41 629.629C1504.89 634.154 1501.32 636.749 1498.9 637.072ZM13.1868 463.897C-2.69125 466.079 -5.84642 442.819 13.5466 413.729C84.6545 305.128 376.852 235.309 758.249 235.309C1139.65 235.309 1431.83 305.128 1502.93 413.729C1528.79 452.515 1514.57 480.959 1483.54 452.515C1443.46 416.315 1315.47 368.468 1182.3 338.732C1067.24 314.168 1010.36 310.287 758.249 310.287C506.14 310.287 449.242 314.168 334.177 338.732C261.776 354.247 168.696 382.694 128.617 400.794C87.2456 417.601 44.5756 442.172 32.9397 452.515C25.1825 459.626 18.4795 463.17 13.1868 463.897ZM11.596 296.31C-3.97908 297.037 -5.19114 270.856 16.1412 241.767C40.7058 209.445 79.4884 184.883 186.797 134.461C216.533 120.239 264.372 96.9612 292.815 82.7397C512.603 -28.4472 1012.94 -27.1405 1230.14 84.0464C1258.59 99.5609 1305.12 122.82 1333.57 135.749C1438.29 186.171 1475.79 209.445 1500.36 241.767C1528.8 280.553 1517.17 314.166 1484.85 285.723C1444.77 250.816 1358.13 213.327 1254.71 187.47C903.044 98.2619 338.054 124.121 106.63 240.479C76.8937 254.701 44.5806 275.38 31.6519 285.723C23.5715 292.834 16.7877 296.068 11.596 296.31Z"/>
    </g>
</svg>

