<?xml version="1.0" encoding="UTF-8" standalone="no"?>
<svg
  xmlns="http://www.w3.org/2000/svg"
  version="1.1"
  id="svg2"
  width="430"
  height="362"
  viewBox="0 0 430 362">
  <defs
    id="defs6">
    <clipPath
      clipPathUnits="userSpaceOnUse"
      id="clipPath36">
      <path
        d="M 0,271.5 H 322.5 V 0 H 0 Z"
        id="path34"
      />
    </clipPath>
    <clipPath
      clipPathUnits="userSpaceOnUse"
      id="clipPath48">
      <path
        d="m 78.256,125.631 c 13.628,-11.363 37.908,-32.807 77.934,-20.563 v 0 c -7.309,1.986 -24.552,8.631 -36.12,27.594 v 0 c -18.167,-6.301 -37.725,-7.212 -41.814,-7.031"
        id="path46"
      />
    </clipPath>
    <clipPath
      clipPathUnits="userSpaceOnUse"
      id="clipPath58">
      <path
        d="M 0,271.5 H 322.5 V 0 H 0 Z"
        id="path56"
      />
    </clipPath>
    <clipPath
      clipPathUnits="userSpaceOnUse"
      id="clipPath78">
      <path
        d="M 58.2162,204.954 H 292.208 V 102.556 H 58.2162 Z"
        id="path76"
      />
    </clipPath>
  </defs>
  <g
    id="g10"
    transform="matrix(1.3333333,0,0,-1.3333333,0,362)">
    <path
      d="m 129.692,207.815 h -24.493 v -22.267 h 24.493 z"
      style="fill:#099cec;fill-opacity:1;fill-rule:evenodd;stroke:none"
      id="path12"
    />
    <path
      d="M 100.746,207.815 H 76.253 v -22.267 h 24.493 z"
      style="fill:#099cec;fill-opacity:1;fill-rule:evenodd;stroke:none"
      id="path14"
    />
    <path
      d="m 158.639,207.815 h -24.493 v -22.267 h 24.493 z"
      style="fill:#099cec;fill-opacity:1;fill-rule:evenodd;stroke:none"
      id="path16"
    />
    <path
      d="m 187.586,207.815 h -24.493 v -22.267 h 24.493 z"
      style="fill:#099cec;fill-opacity:1;fill-rule:evenodd;stroke:none"
      id="path18"
    />
    <path
      d="M 216.533,207.815 H 192.04 v -22.267 h 24.493 z"
      style="fill:#099cec;fill-opacity:1;fill-rule:evenodd;stroke:none"
      id="path20"
    />
    <path
      d="m 129.692,234.535 h -24.493 v -22.267 h 24.493 z"
      style="fill:#099cec;fill-opacity:1;fill-rule:evenodd;stroke:none"
      id="path22"
    />
    <path
      d="m 158.639,234.535 h -24.493 v -22.267 h 24.493 z"
      style="fill:#099cec;fill-opacity:1;fill-rule:evenodd;stroke:none"
      id="path24"
    />
    <path
      d="m 187.586,234.535 h -24.493 v -22.267 h 24.493 z"
      style="fill:#099cec;fill-opacity:1;fill-rule:evenodd;stroke:none"
      id="path26"
    />
    <path
      d="m 187.586,261.255 h -24.493 v -22.267 h 24.493 z"
      style="fill:#099cec;fill-opacity:1;fill-rule:evenodd;stroke:none"
      id="path28"
    />
    <g
      id="g30">
      <g
        id="g32"
        clip-path="url(#clipPath36)">
        <g
          id="g38"
          transform="translate(289.4863,200.9404)">
          <path
            d="m 0,0 c -5.027,3.384 -18.234,4.828 -27.838,2.242 -0.516,9.566 -5.449,17.627 -14.473,24.657 l -3.34,2.242 -2.227,-3.362 c -4.375,-6.642 -6.219,-15.491 -5.566,-23.537 0.515,-4.956 2.239,-10.529 5.566,-14.571 -2.549,-1.981 -10.473,-5.808 -21.153,-5.604 h -159.207 c -2.831,-16.812 2.017,-80.698 75.707,-80.698 54.706,0 99.658,24.602 120.24,76.215 6.772,-0.111 24.651,-1.214 33.4,15.691 0.213,0.285 2.227,4.483 2.227,4.483 z"
            style="fill:#099cec;fill-opacity:1;fill-rule:evenodd;stroke:none"
            id="path40"
          />
        </g>
      </g>
    </g>
    <g
      id="g42">
      <g
        id="g44"
        clip-path="url(#clipPath48)">
        <path
          d="m 67.123,90.272 h 100.2 v 53.523 h -100.2 z"
          style="fill:#ffffff;fill-opacity:1;fill-rule:nonzero;stroke:none"
          id="path50"
        />
      </g>
    </g>
    <g
      id="g52">
      <g
        id="g54"
        clip-path="url(#clipPath58)">
        <g
          id="g60"
          transform="translate(118.041,136.585)">
          <path
            d="m 0,0 c -8.74,-4.987 -18.871,-7.79 -29.615,-7.79 -5.445,0 -10.718,0.725 -15.737,2.081 l 3.179,-5.341 c 4.062,-0.802 8.26,-1.223 12.558,-1.223 11.579,0 22.378,3.026 31.786,8.35 C 1.392,-2.634 0.668,-1.345 0,0"
            style="fill:#066da5;fill-opacity:1;fill-rule:evenodd;stroke:none"
            id="path62"
          />
        </g>
        <g
          id="g64"
          transform="translate(134.9849,139.4917)">
          <path
            d="m 0,0 c 4.275,0 7.741,3.489 7.741,7.793 0,4.305 -3.466,7.794 -7.741,7.794 -4.276,0 -7.742,-3.489 -7.742,-7.794 C -7.742,3.489 -4.276,0 0,0"
            style="fill:#ffffff;fill-opacity:1;fill-rule:evenodd;stroke:none"
            id="path66"
          />
        </g>
        <g
          id="g68"
          transform="translate(136.1499,149.4746)">
          <path
            d="m 0,0 c 0,0.714 0.353,1.322 0.87,1.732 -0.606,0.315 -1.284,0.509 -2.013,0.509 -2.443,0 -4.424,-1.993 -4.424,-4.453 0,-2.459 1.981,-4.454 4.424,-4.454 2.443,0 4.424,1.995 4.424,4.454 0,0.087 -0.021,0.17 -0.026,0.256 C 2.943,-2.123 2.604,-2.242 2.227,-2.242 0.997,-2.242 0,-1.238 0,0"
            style="fill:#4d5c64;fill-opacity:1;fill-rule:nonzero;stroke:none"
            id="path70"
          />
        </g>
        <g
          id="g72">
          <g
            id="g74"/>
          <g
            id="g86">
            <g
              clip-path="url(#clipPath78)"
              id="g84"
              style="opacity:0.05000311">
              <g
                transform="translate(288.8447,201.3359)"
                id="g82">
                <path
                  d="m 0,0 c -5.011,3.362 -18.71,4.937 -27.862,2.276 l -2.043,-2.88 c -29.838,-61.757 -67.178,-87.864 -118.198,-89.026 -55.638,0.153 -69.56,29.489 -73.48,69.49 h -8.906 c -1.147,-16.812 3.145,-78.639 77.405,-78.639 54.776,0 99.866,24.545 120.686,76.103 6.791,-0.113 25.717,-0.113 34.068,16.812 l 1.693,3.584 z"
                  style="fill:#000000;fill-opacity:1;fill-rule:evenodd;stroke:none"
                  id="path80"
                />
              </g>
            </g>
          </g>
        </g>
        <path
          d="m 80.706,190.001 h 2.227 v 13.36 h -2.227 z"
          style="fill:#066da5;fill-opacity:1;fill-rule:nonzero;stroke:none"
          id="path88"
        />
        <path
          d="m 87.386,190.001 h 2.227 v 13.36 h -2.227 z"
          style="fill:#066da5;fill-opacity:1;fill-rule:nonzero;stroke:none"
          id="path90"
        />
        <path
          d="m 94.066,190.001 h 2.227 v 13.36 h -2.227 z"
          style="fill:#066da5;fill-opacity:1;fill-rule:nonzero;stroke:none"
          id="path92"
        />
        <path
          d="m 109.652,190.001 h 2.227 v 13.36 h -2.227 z"
          style="fill:#066da5;fill-opacity:1;fill-rule:nonzero;stroke:none"
          id="path94"
        />
        <path
          d="m 116.333,190.001 h 2.227 v 13.36 h -2.227 z"
          style="fill:#066da5;fill-opacity:1;fill-rule:nonzero;stroke:none"
          id="path96"
        />
        <path
          d="m 123.013,190.001 h 2.227 v 13.36 h -2.227 z"
          style="fill:#066da5;fill-opacity:1;fill-rule:nonzero;stroke:none"
          id="path98"
        />
        <path
          d="m 138.599,190.001 h 2.227 v 13.36 h -2.227 z"
          style="fill:#066da5;fill-opacity:1;fill-rule:nonzero;stroke:none"
          id="path100"
        />
        <path
          d="m 145.279,190.001 h 2.227 v 13.36 h -2.227 z"
          style="fill:#066da5;fill-opacity:1;fill-rule:nonzero;stroke:none"
          id="path102"
        />
        <path
          d="m 151.959,190.001 h 2.227 v 13.36 h -2.227 z"
          style="fill:#066da5;fill-opacity:1;fill-rule:nonzero;stroke:none"
          id="path104"
        />
        <path
          d="m 167.546,190.001 h 2.227 v 13.36 h -2.227 z"
          style="fill:#066da5;fill-opacity:1;fill-rule:nonzero;stroke:none"
          id="path106"
        />
        <path
          d="m 174.226,190.001 h 2.227 v 13.36 h -2.227 z"
          style="fill:#066da5;fill-opacity:1;fill-rule:nonzero;stroke:none"
          id="path108"
        />
        <path
          d="m 180.906,190.001 h 2.227 v 13.36 h -2.227 z"
          style="fill:#066da5;fill-opacity:1;fill-rule:nonzero;stroke:none"
          id="path110"
        />
        <path
          d="m 196.493,190.001 h 2.227 v 13.36 h -2.227 z"
          style="fill:#066da5;fill-opacity:1;fill-rule:nonzero;stroke:none"
          id="path112"
        />
        <path
          d="m 203.173,190.001 h 2.227 v 13.36 h -2.227 z"
          style="fill:#066da5;fill-opacity:1;fill-rule:nonzero;stroke:none"
          id="path114"
        />
        <path
          d="m 209.853,190.001 h 2.227 v 13.36 h -2.227 z"
          style="fill:#066da5;fill-opacity:1;fill-rule:nonzero;stroke:none"
          id="path116"
        />
        <path
          d="m 116.333,216.722 h 2.227 v 13.36 h -2.227 z"
          style="fill:#066da5;fill-opacity:1;fill-rule:nonzero;stroke:none"
          id="path118"
        />
        <path
          d="m 123.013,216.722 h 2.227 v 13.36 h -2.227 z"
          style="fill:#066da5;fill-opacity:1;fill-rule:nonzero;stroke:none"
          id="path120"
        />
        <path
          d="m 138.599,216.722 h 2.227 v 13.36 h -2.227 z"
          style="fill:#066da5;fill-opacity:1;fill-rule:nonzero;stroke:none"
          id="path122"
        />
        <path
          d="m 145.279,216.722 h 2.227 v 13.36 h -2.227 z"
          style="fill:#066da5;fill-opacity:1;fill-rule:nonzero;stroke:none"
          id="path124"
        />
        <path
          d="m 151.959,216.722 h 2.227 v 13.36 h -2.227 z"
          style="fill:#066da5;fill-opacity:1;fill-rule:nonzero;stroke:none"
          id="path126"
        />
        <path
          d="m 167.546,216.722 h 2.227 v 13.36 h -2.227 z"
          style="fill:#066da5;fill-opacity:1;fill-rule:nonzero;stroke:none"
          id="path128"
        />
        <path
          d="m 174.226,216.722 h 2.227 v 13.36 h -2.227 z"
          style="fill:#066da5;fill-opacity:1;fill-rule:nonzero;stroke:none"
          id="path130"
        />
        <path
          d="m 180.906,216.722 h 2.227 v 13.36 h -2.227 z"
          style="fill:#066da5;fill-opacity:1;fill-rule:nonzero;stroke:none"
          id="path132"
        />
        <path
          d="m 174.226,243.441 h 2.227 v 13.36 h -2.227 z"
          style="fill:#066da5;fill-opacity:1;fill-rule:nonzero;stroke:none"
          id="path134"
        />
        <path
          d="m 167.546,243.441 h 2.227 v 13.36 h -2.227 z"
          style="fill:#066da5;fill-opacity:1;fill-rule:nonzero;stroke:none"
          id="path136"
        />
        <path
          d="m 180.906,243.441 h 2.227 v 13.36 h -2.227 z"
          style="fill:#066da5;fill-opacity:1;fill-rule:nonzero;stroke:none"
          id="path138"
        />
        <path
          d="m 109.652,216.722 h 2.227 v 13.36 h -2.227 z"
          style="fill:#066da5;fill-opacity:1;fill-rule:nonzero;stroke:none"
          id="path140"
        />
        <g
          id="g142"
          transform="translate(45.0366,23.2676)">
          <path
            d="m 0,0 c -0.877,-2.026 -2.073,-3.803 -3.587,-5.332 -1.515,-1.532 -3.293,-2.746 -5.333,-3.637 -2.042,-0.895 -4.226,-1.341 -6.556,-1.341 -2.36,0 -4.56,0.446 -6.602,1.341 -2.042,0.891 -3.812,2.096 -5.308,3.612 -1.501,1.514 -2.688,3.291 -3.565,5.333 -0.877,2.04 -1.316,4.211 -1.316,6.506 0,2.296 0.439,4.465 1.316,6.506 0.877,2.04 2.064,3.819 3.565,5.336 1.496,1.511 3.266,2.716 5.308,3.611 2.042,0.891 4.242,1.338 6.602,1.338 2.33,0 4.514,-0.447 6.556,-1.338 2.04,-0.895 3.818,-2.106 5.333,-3.636 C -2.073,16.767 -0.877,14.99 0,12.964 0.877,10.938 1.316,8.778 1.316,6.482 1.316,4.187 0.877,2.024 0,0 M 6.292,56.235 C 4.856,56.235 3.667,55.763 2.728,54.823 1.786,53.881 1.316,52.695 1.316,51.261 V 27.389 c -4.848,3.923 -10.445,5.882 -16.792,5.882 -7.399,0 -13.713,-2.614 -18.944,-7.844 -5.23,-5.233 -7.845,-11.546 -7.845,-18.945 0,-7.399 2.615,-13.713 7.845,-18.944 5.231,-5.23 11.545,-7.845 18.944,-7.845 7.335,0 13.65,2.615 18.945,7.845 5.231,5.168 7.845,11.483 7.845,18.944 v 44.779 c 0,1.434 -0.486,2.62 -1.459,3.562 -0.973,0.94 -2.16,1.412 -3.563,1.412"
            style="fill:#066da5;fill-opacity:1;fill-rule:nonzero;stroke:none"
            id="path144"
          />
        </g>
        <g
          id="g146"
          transform="translate(103.4312,23.2676)">
          <path
            d="m 0,0 c -0.877,-2.026 -2.075,-3.803 -3.589,-5.332 -1.515,-1.532 -3.294,-2.746 -5.333,-3.637 -2.042,-0.895 -4.226,-1.341 -6.556,-1.341 -2.36,0 -4.56,0.446 -6.6,1.341 -2.042,0.891 -3.812,2.096 -5.31,3.612 -1.501,1.514 -2.688,3.291 -3.565,5.333 -0.877,2.04 -1.316,4.211 -1.316,6.506 0,2.296 0.439,4.465 1.316,6.506 0.877,2.04 2.064,3.819 3.565,5.336 1.498,1.511 3.268,2.716 5.31,3.611 2.04,0.891 4.24,1.338 6.6,1.338 2.33,0 4.514,-0.447 6.556,-1.338 2.039,-0.895 3.818,-2.106 5.333,-3.636 C -2.075,16.767 -0.877,14.99 0,12.964 0.875,10.938 1.313,8.778 1.313,6.482 1.313,4.187 0.875,2.024 0,0 m 3.467,25.427 c -5.295,5.23 -11.61,7.844 -18.945,7.844 -7.399,0 -13.714,-2.614 -18.942,-7.844 -5.233,-5.233 -7.847,-11.546 -7.847,-18.945 0,-7.399 2.614,-13.713 7.847,-18.944 5.228,-5.23 11.543,-7.845 18.942,-7.845 7.335,0 13.65,2.615 18.945,7.845 5.23,5.168 7.847,11.483 7.847,18.944 -0.034,3.699 -0.695,7.128 -1.986,10.285 -1.292,3.158 -3.245,6.044 -5.861,8.66"
            style="fill:#066da5;fill-opacity:1;fill-rule:nonzero;stroke:none"
            id="path148"
          />
        </g>
        <g
          id="g150"
          transform="translate(216.5063,51.5645)">
          <path
            d="m 0,0 c 0,0.67 -0.134,1.307 -0.405,1.913 -0.272,0.606 -0.631,1.14 -1.078,1.603 -0.448,0.461 -0.973,0.819 -1.579,1.078 -0.605,0.254 -1.26,0.381 -1.961,0.381 -0.989,0 -1.882,-0.257 -2.679,-0.765 L -36.308,-14.4 v 37.315 c 0,1.402 -0.488,2.589 -1.461,3.564 -0.971,0.972 -2.144,1.459 -3.516,1.459 -1.405,0 -2.592,-0.487 -3.563,-1.459 -0.973,-0.975 -1.46,-2.162 -1.46,-3.564 V -43.58 c 0,-1.372 0.487,-2.555 1.46,-3.541 0.971,-0.988 2.158,-1.483 3.563,-1.483 1.372,0 2.545,0.495 3.516,1.483 0.973,0.986 1.461,2.169 1.461,3.541 v 17.269 l 5.836,3.826 22.102,-24.828 c 0.891,-0.861 2.008,-1.291 3.347,-1.291 0.701,0 1.356,0.127 1.961,0.383 0.606,0.254 1.131,0.613 1.579,1.075 0.447,0.461 0.806,0.999 1.078,1.604 0.271,0.604 0.405,1.244 0.405,1.912 0,1.308 -0.463,2.472 -1.387,3.494 L -21.958,-16.983 -1.913,-3.97 C -0.639,-3.108 0,-1.788 0,0"
            style="fill:#066da5;fill-opacity:1;fill-rule:nonzero;stroke:none"
            id="path152"
          />
        </g>
        <g
          id="g154"
          transform="translate(134.3398,41.6377)">
          <path
            d="m 0,0 c 1.529,1.514 3.315,2.71 5.357,3.587 2.042,0.878 4.226,1.316 6.556,1.316 2.104,0 4.047,-0.351 5.836,-1.05 1.783,-0.704 3.491,-1.742 5.117,-3.111 0.957,-0.766 2.041,-1.149 3.253,-1.149 1.436,0 2.623,0.479 3.565,1.436 0.939,0.957 1.411,2.153 1.411,3.587 0,1.499 -0.574,2.759 -1.723,3.781 -4.912,4.335 -10.73,6.504 -17.459,6.504 -7.402,0 -13.717,-2.614 -18.945,-7.844 -5.231,-5.233 -7.847,-11.546 -7.847,-18.945 0,-7.399 2.616,-13.714 7.847,-18.944 5.228,-5.231 11.543,-7.845 18.945,-7.845 6.695,0 12.516,2.168 17.459,6.506 1.053,1.054 1.579,2.278 1.579,3.683 0,1.436 -0.472,2.623 -1.41,3.565 -0.942,0.94 -2.131,1.412 -3.565,1.412 -1.211,-0.034 -2.265,-0.384 -3.157,-1.053 -1.594,-1.372 -3.287,-2.401 -5.07,-3.086 -1.789,-0.686 -3.732,-1.03 -5.836,-1.03 -2.33,0 -4.514,0.44 -6.556,1.317 -2.042,0.877 -3.828,2.073 -5.357,3.587 -1.532,1.514 -2.737,3.294 -3.612,5.335 -0.877,2.04 -1.316,4.224 -1.316,6.553 0,2.326 0.439,4.513 1.316,6.555 0.875,2.04 2.08,3.817 3.612,5.333"
            style="fill:#066da5;fill-opacity:1;fill-rule:nonzero;stroke:none"
            id="path156"
          />
        </g>
        <g
          id="g158"
          transform="translate(318.0986,53.1924)">
          <path
            d="m 0,0 c -0.894,0.859 -2.018,1.536 -3.371,2.033 -1.357,0.492 -2.84,0.837 -4.449,1.029 -1.613,0.191 -3.119,0.285 -4.523,0.285 -3.188,0 -6.187,-0.511 -8.993,-1.53 -2.806,-1.022 -5.404,-2.487 -7.798,-4.402 v 0.957 c 0,1.37 -0.485,2.543 -1.459,3.516 -0.97,0.973 -2.146,1.459 -3.515,1.459 -1.406,0 -2.592,-0.486 -3.566,-1.459 -0.971,-0.973 -1.458,-2.146 -1.458,-3.516 v -43.63 c 0,-1.371 0.487,-2.542 1.458,-3.515 0.974,-0.973 2.16,-1.458 3.566,-1.458 1.369,0 2.545,0.485 3.515,1.458 0.974,0.973 1.459,2.144 1.459,3.515 v 21.816 c 0,2.326 0.441,4.513 1.316,6.555 0.878,2.039 2.073,3.816 3.588,5.332 1.515,1.514 3.293,2.71 5.334,3.588 2.04,0.877 4.224,1.316 6.553,1.316 2.361,0 4.545,-0.399 6.556,-1.196 0.795,-0.352 1.498,-0.526 2.103,-0.526 0.7,0 1.355,0.125 1.962,0.383 0.604,0.254 1.132,0.613 1.579,1.076 0.446,0.461 0.804,0.995 1.076,1.603 0.271,0.603 0.407,1.258 0.407,1.962 C 1.34,-1.979 0.893,-0.862 0,0"
            style="fill:#066da5;fill-opacity:1;fill-rule:nonzero;stroke:none"
            id="path160"
          />
        </g>
        <g
          id="g162"
          transform="translate(231.7031,34.7266)">
          <path
            d="m 0,0 c 0.508,1.752 1.292,3.353 2.343,4.807 1.053,1.45 2.296,2.694 3.731,3.732 1.437,1.033 3.016,1.842 4.737,2.416 1.721,0.572 3.491,0.859 5.31,0.859 1.817,0 3.578,-0.287 5.284,-0.859 1.706,-0.574 3.271,-1.383 4.688,-2.416 1.42,-1.038 2.665,-2.282 3.731,-3.732 C 30.896,3.353 31.699,1.752 32.242,0 Z m 35.065,13.968 c -5.296,5.23 -11.611,7.844 -18.944,7.844 -7.401,0 -13.716,-2.614 -18.944,-7.844 -5.233,-5.233 -7.847,-11.546 -7.847,-18.945 0,-7.399 2.614,-13.713 7.847,-18.944 5.228,-5.23 11.543,-7.845 18.944,-7.845 6.727,0 12.564,2.168 17.509,6.506 0.957,0.987 1.435,2.183 1.435,3.587 0,1.437 -0.471,2.623 -1.414,3.566 -0.939,0.939 -2.126,1.411 -3.562,1.411 -1.242,-0.033 -2.345,-0.45 -3.3,-1.244 -1.501,-1.277 -3.128,-2.234 -4.881,-2.871 -1.757,-0.639 -3.682,-0.958 -5.787,-0.958 -1.852,0 -3.629,0.289 -5.337,0.863 -1.704,0.574 -3.268,1.378 -4.687,2.416 -1.418,1.035 -2.655,2.277 -3.705,3.731 -1.054,1.45 -1.853,3.053 -2.392,4.808 h 37.887 c 1.4,0 2.59,0.47 3.562,1.412 0.974,0.939 1.461,2.128 1.461,3.562 0,3.699 -0.656,7.135 -1.961,10.31 -1.309,3.173 -3.271,6.052 -5.884,8.635"
            style="fill:#066da5;fill-opacity:1;fill-rule:nonzero;stroke:none"
            id="path164"
          />
        </g>
        <g
          id="g166"
          transform="translate(273.5264,183.0479)">
          <path
            d="m 0,0 c -4.874,-1.713 -9.291,-2.097 -15.913,-1.96 -0.066,10e-4 -0.481,0.01 -1.158,0.023 l -1.533,0.025 -0.57,-1.431 c -19.48,-48.848 -62.017,-74.809 -118.174,-74.809 -32.102,0 -53.05,12.157 -64.607,32.9 -4.46,8.003 -7.295,16.985 -8.625,26.178 -0.921,6.377 -1.046,12.564 -0.538,17.137 h 9.39 v -0.016 h 28.947 4.454 24.493 4.454 24.493 4.453 24.494 4.453 28.947 v 0.043 c 8.82,0.099 17.066,2.828 21.206,6.044 l 1.825,1.418 -1.471,1.787 c -2.758,3.35 -4.535,8.259 -5.067,13.374 -0.632,7.804 1.26,16.071 5.208,22.064 l 0.988,1.493 1.422,-0.954 c 8.644,-6.753 13.081,-14.254 13.551,-22.959 l 0.149,-2.757 2.65,0.714 c 8.671,2.335 21.366,1.195 26.024,-1.94 l 1.722,-1.156 C 15.587,15.055 15.509,14.894 15.399,14.67 15.124,14.108 14.89,13.635 14.71,13.28 14.612,13.087 14.533,12.933 14.317,12.549 11.013,6.162 6.157,2.165 0,0 m -197.274,24.767 h 24.493 V 2.546 h -24.493 z m 28.947,0 h 24.493 V 2.546 h -24.493 z m 0,26.72 h 24.493 V 29.22 h -24.493 z m 28.947,-26.72 h 24.493 V 2.546 h -24.493 z m 0,26.72 h 24.493 V 29.22 h -24.493 z m 28.946,-26.72 h 24.493 V 2.546 h -24.493 z m 0,26.72 h 24.493 V 29.22 h -24.493 z m 0,26.72 h 24.493 V 55.94 h -24.493 z m 28.947,-53.44 h 24.493 V 2.546 H -81.487 Z M 18.227,10.398 c 0.214,0.357 0.53,0.99 1.201,2.359 0.242,0.495 0.5,1.026 0.756,1.556 0.089,0.186 0.172,0.358 0.34,0.708 l 0.843,1.757 -4.948,3.324 c -5.349,3.6 -17.544,4.957 -27.1,3.126 -1.232,9.007 -6.283,16.825 -15.146,23.73 l -5.258,3.529 -3.462,-5.227 c -4.527,-6.873 -6.648,-16.142 -5.933,-24.963 0.525,-5.059 2.089,-9.939 4.598,-13.803 C -39.67,4.381 -45.891,2.653 -52.54,2.564 V 29.22 h -28.947 v 22.267 4.453 26.721 h -33.4 V 55.94 h -24.493 -4.454 -28.947 V 29.22 h -28.947 V 2.546 h -11.327 -1.881 L -215.25,0.68 c -0.868,-5.15 -0.855,-12.662 0.264,-20.4 1.403,-9.71 4.404,-19.213 9.147,-27.725 12.35,-22.168 34.789,-35.19 68.491,-35.19 57.346,0 101.274,26.476 121.725,76.185 6.909,-0.124 11.685,0.317 17.092,2.218 7.163,2.518 12.907,7.235 16.758,14.63"
            style="fill:#066da5;fill-opacity:1;fill-rule:nonzero;stroke:none"
            id="path168"
          />
        </g>
        <g
          id="g170"
          transform="translate(299.3916,5.8418)">
          <path
            d="M 0,0 H 0.312 C 0.679,0 0.975,0.122 0.975,0.419 0.975,0.68 0.783,0.854 0.365,0.854 0.191,0.854 0.069,0.837 0,0.819 Z M -0.018,-1.618 H -0.68 v 2.854 c 0.262,0.053 0.627,0.088 1.098,0.088 0.54,0 0.782,-0.088 0.992,-0.21 0.155,-0.12 0.277,-0.346 0.277,-0.626 0,-0.313 -0.244,-0.557 -0.59,-0.661 v -0.035 c 0.277,-0.104 0.434,-0.313 0.521,-0.695 0.088,-0.436 0.139,-0.61 0.21,-0.715 H 1.113 c -0.086,0.105 -0.138,0.366 -0.226,0.697 -0.051,0.314 -0.226,0.452 -0.591,0.452 h -0.314 z m -1.758,1.498 c 0,-1.272 0.941,-2.28 2.228,-2.28 1.254,0 2.175,1.008 2.175,2.261 0,1.272 -0.921,2.298 -2.192,2.298 -1.27,0 -2.211,-1.026 -2.211,-2.279 m 5.134,0 c 0,-1.62 -1.269,-2.89 -2.923,-2.89 -1.636,0 -2.941,1.27 -2.941,2.89 0,1.583 1.305,2.854 2.941,2.854 1.654,0 2.923,-1.271 2.923,-2.854"
            style="fill:#066da5;fill-opacity:1;fill-rule:nonzero;stroke:none"
            id="path172"
          />
        </g>
      </g>
    </g>
  </g>
</svg>
