<svg id="Layer_1" data-name="Layer 1" xmlns="http://www.w3.org/2000/svg" viewBox="0 0 1639.5 350">
  <defs>
    <style>
      .style_microsoft_1{fill:#f25022;}.style_microsoft_2{fill:#fefefe;}.style_microsoft_3{fill:#80ba01;}.style_microsoft_4{fill:#777;}.style_microsoft_5{fill:#02a4ef;}.style_microsoft_6{fill:#ffb902;}
    </style>
  </defs>
  <title>microsoft-seeklogo</title>
  <path class="style_microsoft_1" d="M-692-47h166.5q0,83.25,0,166.5H-692V-47Z" transform="translate(692 47)"/>
  <path class="style_microsoft_2"
        d="M-525-47h17q0,83.25,0,166.5,83.24,0,166.48,0,0-83.25,0-166.5h1289V82.49c-11.88,0-23.76-.09-35.63.08-.27-15,0-30.06-.13-45.08-11.88,3.58-23.69,7.39-35.63,10.79-.29,11.4,0,22.81-.15,34.21-17.56,0-35.12,0-52.68,0,.22-9-.62-18,.67-27,1.07-7,5.15-14.08,12-16.8,8.65-3.55,18.32-1.19,26.54,2.43,0-10.29.08-20.58-.07-30.86C845.13,5.52,825.3,6.45,810,16.44a49.11,49.11,0,0,0-20.31,27.72c-3.82,12.45-1.87,25.6-2.48,38.38-8.33-.06-16.65-.14-25,0,.09,9.62,0,19.24,0,28.85,8.35.17,16.71,0,25.06.13q-.1,60.72,0,121.43h36q0-60.74,0-121.47,26.34,0,52.7,0c0,25.81-.05,51.61,0,77.41.16,12,2.21,24.87,10.17,34.36,6.89,8.4,17.83,12.24,28.39,13,11.13.79,22.63-.57,32.92-5V303h-1289V136.5q-83.25,0-166.49,0,0,83.24,0,166.49h-17q0-83.25,0-166.49-83.25,0-166.5,0v-17H-525q0-83.25,0-166.5Z"
        transform="translate(692 47)"/>
  <path class="style_microsoft_3" d="M-508.5-47H-342q0,83.25,0,166.5-83.24,0-166.48,0,0-83.25,0-166.5Z"
        transform="translate(692 47)"/>
  <path class="style_microsoft_4"
        d="M809.45,16.44c15.35-10,35.18-10.92,52.48-6.16.15,10.28,0,20.57.07,30.86-8.22-3.62-17.89-6-26.54-2.43-6.86,2.72-10.94,9.76-12,16.8-1.29,8.93-.45,18-.67,27,17.56,0,35.12,0,52.68,0,.13-11.4-.14-22.81.15-34.21,11.94-3.4,23.75-7.21,35.63-10.79.1,15-.14,30.05.13,45.08,11.87-.17,23.75,0,35.63-.08v29.24c-11.92-.49-23.85-.13-35.77-.17,0,16.81,0,33.62,0,50.44.19,9.31-.5,18.67.59,27.95.66,5.47,2.65,11.53,7.78,14.36,8.59,4.81,19.49,2.71,27.38-2.57v29.53c-10.29,4.47-21.79,5.83-32.92,5-10.56-.78-21.5-4.62-28.39-13-8-9.49-10-22.34-10.17-34.36-.09-25.8,0-51.6,0-77.41q-26.36,0-52.7,0,0,60.74,0,121.47h-36q0-60.72,0-121.43c-8.35-.16-16.71,0-25.06-.13,0-9.61.07-19.23,0-28.85,8.31-.19,16.63-.11,25,0,.61-12.78-1.34-25.93,2.48-38.38a49.11,49.11,0,0,1,20.31-27.72Z"
        transform="translate(692 47)"/>
  <path class="style_microsoft_4"
        d="M38.47,18.54c7.26-1.1,15.12,1.38,19.93,7.06A20.53,20.53,0,0,1,60.9,49c-4.62,8.2-15,12-24,10C27.58,57.35,19.79,48.66,20.21,39c-.27-10.2,8.26-19.29,18.26-20.43Z"
        transform="translate(692 47)"/>
  <path class="style_microsoft_4"
        d="M-237.5,23h52.37q24.45,62.09,49,124.13c4.17,10.35,8.07,20.82,12.44,31.09,21-51.72,42.24-103.31,63.05-155.1,16.79-.27,33.59-.06,50.39-.1q-.06,105,0,210c-12.12,0-24.23.1-36.34-.07.13-51.65,0-103.3.06-155,0-2.32-.06-4.64-.22-7a27.76,27.76,0,0,0-1.89,3.36c-20.81,52.87-42,105.59-62.71,158.51-8.62.31-17.25,0-25.88.16-21.47-52.87-42.67-105.86-64-158.77-.56-1.1-1.16-2.17-1.81-3.2-.44,22.63-.07,45.28-.19,67.91q0,47,0,94c-11.43,0-22.86,0-34.28,0q0-105,0-210Z"
        transform="translate(692 47)"/>
  <path class="style_microsoft_4"
        d="M137.57,82.35a98.58,98.58,0,0,1,53.49.16,43.16,43.16,0,0,1,10.27,4.28c-.2,11.47,0,22.95-.11,34.43-11.61-8.87-26.34-14.49-41.1-12.63a42.29,42.29,0,0,0-29.91,16.61c-9,11.74-11.09,27.33-9.54,41.69,1.16,11.24,5.81,22.47,14.55,29.92,9.08,8.07,21.81,10.93,33.69,10,11.74-1.35,22.82-6.32,32.31-13.26.1,10.87-.05,21.74.08,32.61-14.72,8.76-32.37,11-49.22,10.19-17.24-.91-34.43-7.44-46.91-19.56-13.56-13.07-20.92-31.71-21.79-50.38-.88-19.41,3.07-39.66,14.24-55.87,9.36-13.83,24-23.62,39.95-28.22Z"
        transform="translate(692 47)"/>
  <path class="style_microsoft_4"
        d="M381.54,79.76c17.28-2.2,35.51-1.22,51.55,6.08a63.68,63.68,0,0,1,31.45,31.79c6.67,14.8,8.29,31.42,7.16,47.47-1.11,15.67-6,31.37-15.83,43.82-10,13.22-25.15,22.18-41.34,25.51a103.42,103.42,0,0,1-42.16,0c-16.56-3.54-31.89-13.15-41.6-27.13-11.4-16.2-14.64-36.8-13.19-56.21,1-16.47,6.1-33.07,16.62-46,11.52-14.47,29.19-23,47.34-25.3Z"
        transform="translate(692 47)"/>
  <path class="style_microsoft_4"
        d="M530.92,80.06c16.65-2.93,34.08-.78,49.84,5.19,0,11,0,22.07,0,33.1A63.46,63.46,0,0,0,543,107.18c-6.73.26-14.13,3.11-17.2,9.51-2.44,6.33-.75,14.63,5.22,18.42,10.21,6.83,22.39,9.73,33,15.85,8.33,4.68,16.41,10.8,20.63,19.62,7.93,16.52,4.57,38.35-9.37,50.67-13.31,12.44-32.48,15.88-50.11,15.22-12.52-.81-25.1-3.28-36.61-8.4,0-11.61-.07-23.21.06-34.81a78.75,78.75,0,0,0,32.67,14.1c8.23,1.34,17.18,1.4,24.85-2.28,7.34-3.65,8.66-14.08,4.3-20.46-4.08-4.92-10.07-7.63-15.72-10.29-10.61-4.77-21.76-8.76-31.08-15.91A37.26,37.26,0,0,1,490.11,138c-2.88-12-2-25.46,5-35.92,8-12.19,21.76-19.5,35.83-22Z"
        transform="translate(692 47)"/>
  <path class="style_microsoft_4"
        d="M668.55,79.71c18-2.23,37.05-1,53.45,7.26a64.25,64.25,0,0,1,30.93,35c4.33,11.43,5.85,23.77,5.6,35.94,0,18.18-4.88,36.84-16.29,51.26-10.68,14-27,23-44.27,25.88-16.87,2.73-34.69,2-50.72-4.29a66.73,66.73,0,0,1-36.58-35.49c-7.13-16.37-7.88-34.79-5.66-52.28s10.25-34.59,23.75-46.22c11.06-9.71,25.3-15.21,39.79-17.07Z"
        transform="translate(692 47)"/>
  <path class="style_microsoft_4"
        d="M281.85,84.8c9.94-6,22.57-6.47,33.42-2.82,0,12,0,24,0,36a38.27,38.27,0,0,0-24.34-5.72c-10.22,1.16-18.32,9-22.52,18-4.56,9.53-5.42,20.31-5.13,30.73q0,36,0,72h-35.5q0-75.21,0-150.43c11.85-.15,23.7-.09,35.55,0,0,8.61,0,17.22,0,25.84,3.85-9.37,9.58-18.47,18.61-23.58Z"
        transform="translate(692 47)"/>
  <path class="style_microsoft_4"
        d="M23.48,82.54c11.94-.05,23.89-.17,35.83.06-.14,50.13,0,100.27-.06,150.4H23.5q0-75.23,0-150.46Z"
        transform="translate(692 47)"/>
  <path class="style_microsoft_2"
        d="M392.28,108.34c10.82-.71,22.34,2.35,30.12,10.22,8.32,8.18,11.54,20.05,12.43,31.37.64,12.39.13,25.3-5.07,36.78a32.9,32.9,0,0,1-17.69,17.38,48.55,48.55,0,0,1-29.35,1.29,35.94,35.94,0,0,1-22.57-18.62c-5.8-11.58-6.67-25-5.47-37.67,1.09-11.55,5.11-23.43,13.91-31.4,6.38-6,15.08-8.87,23.69-9.35Z"
        transform="translate(692 47)"/>
  <path class="style_microsoft_2"
        d="M678.27,108.37c10.17-.71,21,1.64,28.85,8.51,7.21,6,11.2,14.94,13,24a91.44,91.44,0,0,1,.3,32.16c-1.38,7.92-4.12,15.82-9.31,22.09s-13,10.14-21,11.32c-8.62,1.29-17.7.67-25.76-2.8-8.7-3.68-15.44-11.21-19-19.87-4.27-10.32-5.12-21.75-4.27-32.79.82-10.69,3.85-21.66,10.91-30,6.44-7.76,16.32-12,26.28-12.61Z"
        transform="translate(692 47)"/>
  <path class="style_microsoft_2"
        d="M911.23,111.56c11.92,0,23.85-.32,35.77.17v90c-7.89,5.28-18.79,7.38-27.38,2.57-5.13-2.83-7.12-8.89-7.78-14.36-1.09-9.28-.4-18.64-.59-27.95,0-16.82,0-33.63,0-50.44Z"
        transform="translate(692 47)"/>
  <path class="style_microsoft_5" d="M-692,136.49q83.25,0,166.5,0,0,83.25,0,166.49H-692V136.49Z"
        transform="translate(692 47)"/>
  <path class="style_microsoft_6" d="M-508.49,136.51q83.24,0,166.49,0V303H-508.5q0-83.25,0-166.49Z"
        transform="translate(692 47)"/>
</svg>
