<?xml version="1.0" encoding="utf-8"?>
<!-- Generator: Adobe Illustrator 22.0.1, SVG Export Plug-In . SVG Version: 6.00 Build 0)  -->
<svg version="1.1" id="Ebene_1" xmlns="http://www.w3.org/2000/svg" x="0px" y="0px"
     viewBox="0 0 800 800" style="enable-background:new 0 0 800 800;" xml:space="preserve">
<style type="text/css">
	.st0{fill:#14BBEF;}
	.st1{fill:#009FE3;}
</style>
  <path class="st0" d="M397.9,389.3c3.3-0.7,7,0.3,9.5,2.7c-2.5-0.3-5.1-0.2-7.5,0.5c-1.7,0.5-3.3,1.5-4.3,3c-1.1,1.7-1.2,4-0.5,5.9
	c-2-0.1-4-0.4-6-0.7c-0.1-2.4,0.6-4.9,2-6.9C392.6,391.5,395.1,389.8,397.9,389.3L397.9,389.3z"/>
  <path class="st0" d="M401.9,397c0.9-0.6,1.9-0.7,3-0.6c1.7,0,3.3,0.7,4.7,1.6l0,0c-1.2,1.1-2.7,1.9-4.3,2.4
	c-0.7,0.3-1.4,0.3-2.1,0.7c-0.7-0.4-1.4-0.8-1.7-1.5C400.9,398.8,401.1,397.6,401.9,397L401.9,397z"/>
  <path class="st1" d="M405.2,400.4c1.6-0.5,3.1-1.3,4.3-2.4c0.5,0.3,1,0.7,1.4,1.1c0.2,1.7-0.1,3.5-0.7,5.1c-2.3-1.3-4.8-1.9-7.2-3
	C403.8,400.8,404.5,400.7,405.2,400.4L405.2,400.4z"/>
  <path class="st1" d="M389,400.7c2,0.3,4,0.6,6,0.7c0.6,1.6,1.9,2.9,3.4,3.7c1.7,1,3.5,1.6,5.3,2.3c1,0.4,1.9,0.8,2.8,1.4
	c-1.9,1.5-4.3,2.2-6.7,2.2c-2.7,0-5.4-1.1-7.4-3C390.4,406.2,389.2,403.5,389,400.7L389,400.7z"/>
</svg>
