<?xml version="1.0" encoding="UTF-8" standalone="no"?>
<!-- Created with Inkscape (http://www.inkscape.org/) -->
<svg xmlns="http://www.w3.org/2000/svg" version="1.0" width="167.21001" height="24.09" id="svg3036">
  <defs id="defs3038"/>
  <g transform="translate(-452.68196,-519.46191)" id="layer1">
    <path
      d="M 474.11321,527.21441 C 473.35821,528.46691 472.92321,529.93566 472.92321,531.50441 C 472.92321,535.51191 475.75446,538.85566 479.52446,539.64941 L 475.67321,535.84816 L 476.50196,534.14816 C 475.90446,533.70941 475.51946,533.00816 475.51946,532.21941 C 475.51946,531.65816 475.63696,531.12191 475.96321,530.71191 L 475.12071,530.71191 L 475.12071,534.67941 C 474.60571,534.67941 474.19071,534.26191 474.19071,533.74691 L 474.19071,530.73566 C 474.19071,530.22066 474.60821,529.80941 475.12446,529.80941 L 483.26196,529.80941 L 482.14196,527.22191 L 474.11321,527.21441 z M 486.20571,531.74191 L 487.69821,531.74191 C 488.56946,531.86566 488.69321,532.15691 488.56946,532.98566 L 487.65696,534.97691 L 486.62071,534.52066 L 487.28446,533.02691 L 486.57821,533.02566 L 485.70821,534.97691 L 484.67196,534.52066 L 485.29321,533.02691 L 481.81071,533.02566 L 480.31821,536.01316 L 483.77946,539.43566 C 487.13696,538.36441 489.56946,535.21941 489.56946,531.50441 C 489.56946,530.09441 489.21821,528.76566 488.59946,527.60066 C 488.23821,527.09691 486.20571,527.22191 486.20571,527.22191 L 486.20571,531.74191 z M 481.52071,539.82941 L 477.62196,536.01316 L 479.08071,533.02566 L 479.61321,533.02566 L 478.36821,535.72316 L 482.35571,539.75441 C 482.05446,539.79441 481.74821,539.81941 481.43821,539.82566 L 481.52071,539.82941 z M 484.83696,525.90066 L 487.44946,525.90066 C 485.92571,524.19191 483.71571,523.18191 481.24696,523.18191 C 478.81071,523.18191 476.61946,524.23316 475.09696,525.90066 L 483.51071,525.90066 L 484.06571,524.80441 C 484.20196,524.51066 484.55196,524.38316 484.84571,524.51941 C 485.14071,524.65691 485.26821,525.00691 485.13071,525.30066 L 484.83696,525.89441 L 484.83696,525.90066 z M 471.26571,531.50441 C 471.26571,525.99316 475.73446,521.52441 481.24696,521.52441 C 486.75821,521.52441 491.22696,525.99316 491.22696,531.50441 C 491.22696,537.01691 486.75821,541.48566 481.24696,541.48566 C 475.73446,541.48566 471.26571,537.01691 471.26571,531.50441 z"
      id="path3020"
      style="fill:#da1f3d;fill-opacity:1;fill-rule:evenodd;stroke:#da1f3d;stroke-width:0.0775;stroke-linecap:butt;stroke-linejoin:miter;stroke-miterlimit:3.86400008;stroke-dasharray:none;stroke-opacity:1"/>
    <path
      d="M 496.01071,537.51816 C 495.90321,538.67316 496.08321,539.40316 496.01071,540.49066 C 497.45446,541.07066 497.99696,541.36066 500.73696,541.47941 C 501.35196,541.50691 503.21696,541.46816 504.82321,540.52691 C 505.67946,540.01691 507.72196,538.43441 507.74821,535.45066 C 507.74821,534.13441 507.28696,532.72191 506.37696,531.86191 C 505.17196,530.67941 502.85196,530.16816 501.37946,529.54941 C 500.04071,529.01191 499.39821,528.52816 498.96946,527.96441 C 498.78196,527.72191 498.35446,527.07691 498.35446,526.19066 C 498.35446,525.08941 499.15696,523.10066 501.83446,523.10066 C 503.62821,523.10066 504.22946,523.64941 504.82321,523.99441 C 505.50946,524.39316 505.95196,525.42691 505.97946,525.48066 L 506.48446,525.48066 C 506.48446,524.57441 506.37696,523.84941 506.34071,522.83441 C 505.40071,522.43566 505.01946,522.29441 503.94946,522.10566 C 503.30696,521.99816 502.58321,521.99816 502.39696,521.99816 C 499.79946,521.99816 498.48821,522.72441 497.63196,523.53066 C 496.15946,524.90066 495.97196,526.53941 495.97196,527.31941 C 495.97196,529.01191 496.80196,530.40941 498.19446,531.26816 C 498.80946,531.64566 499.79946,532.10191 501.35196,532.69316 C 502.31571,533.06941 503.27946,533.33816 504.08321,534.06316 C 505.09946,534.95066 505.34321,536.00191 505.32821,536.53941 C 505.29321,537.91691 504.63071,540.24566 501.39196,540.27316 C 500.56196,540.27316 499.82696,540.16316 499.53196,540.05566 C 498.22071,539.65316 497.18946,538.85441 496.84071,538.42441 C 496.60071,538.12816 496.57571,537.85191 496.33571,537.50316 L 496.01071,537.51816 z"
      id="path3022"
      style="fill:#da1f3d;fill-opacity:1;fill-rule:nonzero;stroke:#da1f3d;stroke-width:0.0775;stroke-linecap:butt;stroke-linejoin:miter;stroke-miterlimit:3.86400008;stroke-dasharray:none;stroke-opacity:1"/>
    <path
      d="M 548.10571,522.15941 C 547.32946,523.69066 546.69946,525.05691 545.89571,526.58816 C 545.09321,528.14691 544.28946,529.67941 543.48696,531.23691 C 542.84446,532.47316 542.22821,533.73566 541.55946,534.94566 C 541.21196,535.59066 540.83696,536.18191 540.46196,536.79941 C 539.63196,535.37566 538.77571,533.92441 537.97196,532.47316 C 537.06321,530.83441 536.17946,529.19566 535.26946,527.52941 C 534.67946,526.42691 534.03821,525.32566 533.44821,524.19691 C 533.07321,523.47191 532.61946,522.91066 532.29821,522.15941 C 531.82571,522.15941 531.65446,522.18566 531.30696,522.15941 C 530.66446,527.42566 529.01696,539.91316 528.77571,541.06941 C 529.55071,541.06941 530.53071,541.01441 530.71821,541.06941 C 530.79821,539.61816 530.85196,538.25066 530.98571,536.79941 C 531.09321,535.26816 531.25321,533.76316 531.44071,532.23191 C 531.60196,530.51191 531.78946,528.79191 531.97696,527.07191 C 532.93946,528.84566 533.93071,530.64566 534.92071,532.41941 C 535.75071,533.92441 536.63446,535.45566 537.41071,536.98816 C 538.13321,538.38441 538.80821,539.64441 539.42321,541.06941 L 540.16821,541.06941 C 540.38196,540.47816 540.59571,540.02441 540.83696,539.45941 C 541.10446,538.86816 541.37196,538.30441 541.66696,537.71316 C 543.43321,534.08566 545.30696,530.45816 547.18071,526.83066 C 547.55571,529.62566 547.93071,532.41941 548.19821,535.21441 C 548.38571,537.20316 548.69446,539.08066 548.80196,541.06941 C 549.63196,541.06941 550.89696,541.06941 551.89196,541.06941 C 551.75821,540.42316 551.61696,539.70941 551.51071,539.06441 C 551.34946,538.09691 551.25071,537.33691 551.08946,536.36941 C 550.95571,535.26816 550.76821,534.16566 550.63446,533.06441 C 550.39321,531.29066 550.17946,529.49066 549.93821,527.71691 C 549.80446,526.56191 549.61696,525.40691 549.48321,524.25066 C 549.40321,523.49816 549.30571,522.91066 549.25196,522.15941 L 548.10571,522.15941 z"
      id="path3024"
      style="fill:#da1f3d;fill-opacity:1;fill-rule:nonzero;stroke:#da1f3d;stroke-width:0.0775;stroke-linecap:butt;stroke-linejoin:miter;stroke-miterlimit:3.86400008;stroke-dasharray:none;stroke-opacity:1"/>
    <path
      d="M 578.27946,522.15941 C 578.33321,523.09941 578.35946,524.09316 578.38696,525.03441 C 578.43946,526.56566 578.46696,528.09691 578.46696,529.62816 C 578.46696,530.54191 578.46696,531.45566 578.43946,532.34316 C 578.43946,533.90066 578.43946,535.45941 578.41321,537.01816 C 578.35946,538.36191 578.27321,539.69816 578.16571,541.06941 C 578.81571,541.06941 580.07946,541.04191 580.21321,541.06941 C 580.07946,539.88691 580.15321,538.71066 580.07321,537.50191 C 579.99196,536.15816 579.96571,534.78816 579.93946,533.41816 C 579.91196,531.29441 579.85946,529.14441 579.80446,527.02316 C 580.90196,528.09691 582.00071,529.19941 583.09821,530.27441 C 585.02446,532.18191 586.97946,534.06191 588.87946,535.99691 C 590.51321,537.66316 592.09196,539.34941 593.67196,541.06941 L 594.54696,541.06941 C 594.49321,539.83316 594.55446,538.57691 594.52821,537.31441 C 594.50071,536.10441 594.56446,534.46316 594.56446,533.22691 C 594.56446,531.05066 594.51071,529.45816 594.56446,527.28191 C 594.59071,525.64191 594.57696,523.79816 594.71071,522.15941 C 594.08446,522.15941 592.90571,522.18566 592.74446,522.15941 C 592.82571,523.04566 592.76071,523.90566 592.81571,524.76441 C 592.86821,525.78566 592.92196,526.80691 592.94821,527.85566 C 593.02946,530.67691 593.08321,533.52441 593.10946,536.37316 C 591.36946,534.59941 589.62946,532.85316 587.88946,531.10691 C 586.55071,529.76316 585.21196,528.44691 583.90071,527.12941 C 582.85696,526.08191 581.81321,525.03441 580.82196,523.95941 C 580.31321,523.39441 579.77946,522.72316 579.27196,522.15941 L 578.27946,522.15941 z"
      id="path3026"
      style="fill:#da1f3d;fill-opacity:1;fill-rule:nonzero;stroke:#da1f3d;stroke-width:0.0775;stroke-linecap:butt;stroke-linejoin:miter;stroke-miterlimit:3.86400008;stroke-dasharray:none;stroke-opacity:1"/>
    <path
      d="M 512.76946,537.51191 C 512.66196,538.66816 512.84196,539.39816 512.76946,540.48566 C 514.21446,541.06566 514.75571,541.35566 517.49571,541.47441 C 518.11071,541.50191 519.97696,541.46191 521.58196,540.52191 C 522.43946,540.01191 524.48196,538.42816 524.50821,535.44566 C 524.50821,534.12941 524.04571,532.71691 523.13571,531.85691 C 521.93071,530.67441 519.61071,530.16191 518.13821,529.54316 C 516.79946,529.00691 516.15696,528.52316 515.72946,527.95816 C 515.54196,527.71691 515.11321,527.07191 515.11321,526.18566 C 515.11321,525.08316 515.91696,523.09441 518.59321,523.09441 C 520.38696,523.09441 520.98946,523.64441 521.58196,523.98941 C 522.26946,524.38816 522.71071,525.42191 522.73821,525.47566 L 523.24446,525.47566 C 523.24446,524.56941 523.13571,523.84441 523.09946,522.82816 C 522.16071,522.43066 521.77821,522.28816 520.70821,522.10066 C 520.06571,521.99316 519.34321,521.99316 519.15571,521.99316 C 516.55946,521.99316 515.24696,522.71941 514.39071,523.52441 C 512.91821,524.89566 512.73071,526.53441 512.73071,527.31316 C 512.73071,529.00691 513.56071,530.40441 514.95321,531.26441 C 515.56821,531.63941 516.55946,532.09691 518.11196,532.68816 C 519.07571,533.06441 520.03821,533.33316 520.84196,534.05816 C 521.85946,534.94441 522.10196,535.99691 522.08821,536.53316 C 522.05196,537.91191 521.39071,540.24066 518.15071,540.26816 C 517.32071,540.26816 516.58571,540.15816 516.29196,540.05066 C 514.97946,539.64691 513.94821,538.84941 513.60071,538.41941 C 513.35946,538.12316 513.33571,537.84691 513.09446,537.49816 L 512.76946,537.51191 z"
      id="path3028"
      style="fill:#da1f3d;fill-opacity:1;fill-rule:nonzero;stroke:#da1f3d;stroke-width:0.0775;stroke-linecap:butt;stroke-linejoin:miter;stroke-miterlimit:3.86400008;stroke-dasharray:none;stroke-opacity:1"/>
    <path
      d="M 601.39571,522.15941 C 601.44946,523.09941 601.47571,524.09316 601.50196,525.03441 C 601.55571,526.56566 601.58321,528.09691 601.58321,529.62816 C 601.58321,530.54191 601.58321,531.45566 601.55571,532.34316 C 601.55571,533.90066 601.55571,535.45941 601.52946,537.01816 C 601.47571,538.36191 601.38946,539.69816 601.28196,541.06941 C 601.89696,541.06941 603.19571,541.04191 603.32946,541.06941 C 603.19571,539.88691 603.26946,538.71066 603.18946,537.50191 C 603.10821,536.15816 603.08196,534.78816 603.05446,533.41816 C 603.02821,531.29441 602.97446,529.14441 602.92196,527.02316 C 604.01821,528.09691 605.11571,529.19941 606.21321,530.27441 C 608.14071,532.18191 610.09571,534.06191 611.99571,535.99691 C 613.62821,537.66316 615.20821,539.34941 616.78821,541.06941 L 617.66321,541.06941 C 617.60946,539.83316 617.67071,538.57691 617.64446,537.31441 C 617.61696,536.10441 617.68071,534.46316 617.68071,533.22691 C 617.68071,531.05066 617.62696,529.45816 617.68071,527.28191 C 617.70696,525.64191 617.69321,523.79816 617.82696,522.15941 C 617.20071,522.15941 616.02196,522.18566 615.86071,522.15941 C 615.94196,523.04566 615.87821,523.90566 615.93071,524.76441 C 615.98446,525.78566 616.03821,526.80691 616.06446,527.85566 C 616.14571,530.67691 616.19821,533.52441 616.22571,536.37316 C 614.48571,534.59941 612.74571,532.85316 611.00571,531.10691 C 609.66696,529.76316 608.32821,528.44691 607.01696,527.12941 C 605.97321,526.08191 604.92821,525.03441 603.93821,523.95941 C 603.42946,523.39441 602.89571,522.72316 602.38696,522.15941 L 601.39571,522.15941 z"
      id="path3030"
      style="fill:#da1f3d;fill-opacity:1;fill-rule:nonzero;stroke:#da1f3d;stroke-width:0.0775;stroke-linecap:butt;stroke-linejoin:miter;stroke-miterlimit:3.86400008;stroke-dasharray:none;stroke-opacity:1"/>
    <path
      d="M 469.03696,541.06941 C 467.77821,539.64441 466.33696,537.95816 465.15821,536.48066 C 463.87446,534.92191 462.66946,533.30941 461.43821,531.69816 C 462.96321,531.37566 464.35571,531.10691 465.47946,530.00441 C 466.76446,528.74191 466.95196,527.29066 466.97946,526.64566 C 466.97946,525.75941 466.65821,524.84566 466.14946,524.11941 C 465.02571,522.50816 463.17821,522.37316 462.53571,522.32066 C 462.21446,522.29316 461.86571,522.26566 461.54446,522.26566 L 456.37821,522.26566 L 454.74446,522.13191 L 454.74446,541.06941 L 457.69071,541.06941 C 457.63696,540.39691 457.58321,539.78566 457.55571,539.08691 C 457.52946,538.30816 457.52946,537.52816 457.52946,536.72316 C 457.52946,535.13691 457.52946,533.52441 457.50321,531.93941 L 458.11821,531.83191 C 459.45696,533.49816 460.79571,535.16441 462.08071,536.85691 C 463.12446,538.25441 464.23821,539.61816 465.22821,541.06941 L 469.03696,541.06941 z M 457.58321,523.44816 C 458.25196,523.39441 458.89446,523.34066 459.56446,523.34066 C 460.20571,523.34066 460.92946,523.39441 461.51821,523.55566 C 462.40196,523.79816 464.08821,524.52316 464.08821,526.96816 C 464.08821,529.46691 462.26821,530.35441 461.46446,530.64941 C 459.99196,531.16066 457.77071,531.02566 457.50321,531.02566 C 457.47571,529.87066 457.51696,528.71566 457.51696,527.58691 C 457.51696,526.18941 457.52946,524.81941 457.58321,523.44816 z"
      id="path3032"
      style="fill:#da1f3d;fill-opacity:1;fill-rule:evenodd;stroke:#da1f3d;stroke-width:0.0775;stroke-linecap:butt;stroke-linejoin:miter;stroke-miterlimit:3.86400008;stroke-dasharray:none;stroke-opacity:1"/>
    <path
      d="M 563.91446,522.15941 C 563.48571,523.26066 563.04446,524.24816 562.56321,525.32316 C 561.92071,526.80191 561.29196,528.34191 560.64821,529.81941 C 559.76571,531.83441 559.00321,533.53191 558.12071,535.54816 C 557.29071,537.32066 556.49821,539.32191 555.64071,541.06941 C 556.17696,541.01441 557.10946,541.06941 557.77071,541.06941 C 558.58946,538.41191 558.87821,537.78441 560.45821,533.83441 C 561.77071,533.77941 563.00571,533.82066 564.31821,533.82066 C 565.41571,533.82066 566.37821,533.80691 567.47446,533.83441 C 569.28071,537.93066 569.77196,538.62441 570.54821,541.06941 C 571.52071,541.06941 572.89321,541.06941 573.82446,541.06941 C 573.36946,540.20941 573.10446,539.47066 572.67571,538.55691 C 572.16821,537.45566 571.59946,536.21191 571.11696,535.08316 C 570.50196,533.65941 569.85821,532.26191 569.21696,530.81066 C 568.65446,529.54816 568.09946,528.39941 567.51196,527.13566 C 567.08321,526.22191 566.68446,525.30441 566.28321,524.41691 C 565.96196,523.69191 565.49196,522.91066 565.22446,522.15941 L 563.91446,522.15941 z M 561.04571,532.39441 C 561.55446,531.15816 561.96196,530.08566 562.49696,528.84941 C 562.95321,527.77441 563.28196,526.98816 563.79071,525.93941 L 566.73696,532.39441 L 561.04571,532.39441 z"
      id="path3034"
      style="fill:#da1f3d;fill-opacity:1;fill-rule:evenodd;stroke:#da1f3d;stroke-width:0.0775;stroke-linecap:butt;stroke-linejoin:miter;stroke-miterlimit:3.86400008;stroke-dasharray:none;stroke-opacity:1"/>
  </g>
</svg>
