<svg id="Layer_1" data-name="Layer 1" xmlns="http://www.w3.org/2000/svg" viewBox="0 0 529.2 178.54">
  <defs>
    <style>
      .cls-1{fill:none;}.cls-2{clip-path:url(#clip-path);}.cls-3{fill:#003349;}.cls-4{fill:#0c83c6;fill-rule:evenodd;}
    </style>
    <clipPath id="clip-path" transform="translate(-52.14 -52.15)">
      <rect class="cls-1" width="633.49" height="282.83"/>
    </clipPath>
  </defs>
  <title>COMPRA Logo RGB - Quer + Claim</title>
  <g class="cls-2">
    <path class="cls-3"
          d="M563.77,132.11H546.56l8.57-20Zm-4.42-30.49h-8.14l-22,50.35h9l5.14-12.07H567L572.06,152h9.28Zm-50.59,16.71a7.52,7.52,0,0,1-2.79,6.14,11.48,11.48,0,0,1-7.5,2.29H485.62V110H498.4c3.29,0,5.83.71,7.64,2.11a7.44,7.44,0,0,1,2.72,6.25M519.26,152,505.76,133a18.39,18.39,0,0,0,4.82-2,14.94,14.94,0,0,0,3.75-3.22,14.28,14.28,0,0,0,2.46-4.35,17.74,17.74,0,0,0-.39-12.22,13.48,13.48,0,0,0-3.68-5,16.82,16.82,0,0,0-5.85-3.15,25.37,25.37,0,0,0-7.75-1.1H476.84v50h8.78V134.54h11L508.9,152Zm-65.38-33a8.16,8.16,0,0,1-2.89,6.54A11.79,11.79,0,0,1,443.1,128H432.89V110H443.1a12.61,12.61,0,0,1,7.86,2.25q2.93,2.25,2.92,6.75m8.93-.21a17.41,17.41,0,0,0-1.32-6.93,14.79,14.79,0,0,0-3.79-5.28,16.76,16.76,0,0,0-6-3.4,25,25,0,0,0-7.89-1.17H424.1v50h8.79V135.9h9.92a26.62,26.62,0,0,0,7.79-1.11,19.17,19.17,0,0,0,6.35-3.25,15.31,15.31,0,0,0,4.29-5.35,16.71,16.71,0,0,0,1.57-7.43m-65.37-2.65V152h8.78V102h-9.35l-15.22,23.63L366.44,102h-9.35v50h8.64V116.26l15.64,23.42h.28ZM332.21,127a19.06,19.06,0,0,1-1.25,6.89,17.52,17.52,0,0,1-3.47,5.65,16.2,16.2,0,0,1-5.32,3.78,16.44,16.44,0,0,1-6.82,1.39,16.23,16.23,0,0,1-6.85-1.43,16.57,16.57,0,0,1-5.4-3.85,17.78,17.78,0,0,1-3.5-5.68,19.76,19.76,0,0,1,0-13.78,17.37,17.37,0,0,1,3.47-5.64,16.18,16.18,0,0,1,5.32-3.79,16.44,16.44,0,0,1,6.82-1.39,16.2,16.2,0,0,1,6.85,1.43,16.57,16.57,0,0,1,5.4,3.85,17.6,17.6,0,0,1,3.5,5.68,19.1,19.1,0,0,1,1.25,6.89m9.21-.14a26.08,26.08,0,0,0-1.93-10,24.87,24.87,0,0,0-13.57-13.75,26.84,26.84,0,0,0-10.57-2,26.05,26.05,0,0,0-18.85,7.67,25.3,25.3,0,0,0-5.43,8.25,26.87,26.87,0,0,0,0,20,25.27,25.27,0,0,0,5.36,8.21,25,25,0,0,0,8.21,5.54,26.84,26.84,0,0,0,10.57,2,26.05,26.05,0,0,0,18.85-7.67,25,25,0,0,0,5.43-8.25,26.08,26.08,0,0,0,1.93-10M278.54,144l-5.64-5.72a30.61,30.61,0,0,1-6.5,4.75,16.43,16.43,0,0,1-7.85,1.75,15.66,15.66,0,0,1-6.61-1.39,16.21,16.21,0,0,1-5.25-3.82,17.41,17.41,0,0,1-3.42-5.68,19.66,19.66,0,0,1-1.22-7,19.42,19.42,0,0,1,1.22-6.93,17,17,0,0,1,3.42-5.6,16.42,16.42,0,0,1,5.25-3.79,15.66,15.66,0,0,1,6.61-1.39,16.62,16.62,0,0,1,7.64,1.71,28.34,28.34,0,0,1,6.35,4.5l5.65-6.5a34.31,34.31,0,0,0-3.79-3.14,24.23,24.23,0,0,0-4.35-2.46,25.33,25.33,0,0,0-5.18-1.61,31.67,31.67,0,0,0-6.25-.57,26.19,26.19,0,0,0-10.43,2A24.89,24.89,0,0,0,234.73,117,26.84,26.84,0,0,0,232.84,127a26.42,26.42,0,0,0,1.93,10.14,24.94,24.94,0,0,0,23.49,15.64,30.68,30.68,0,0,0,6.39-.61,22.33,22.33,0,0,0,5.32-1.78,26.15,26.15,0,0,0,4.54-2.78,32.87,32.87,0,0,0,4-3.68"
          transform="translate(-52.14 -52.15)"/>
    <path class="cls-3"
          d="M581.2,165.89H566.77v19.48h14.57V182.3H570.19v-5.22H580V174h-9.76V169h11Zm-22.11,6.37a3,3,0,0,1-1.08,2.4,4.5,4.5,0,0,1-2.92.89h-5V169h5a4.71,4.71,0,0,1,3,.82,2.88,2.88,0,0,1,1.06,2.43m4.09,13.11L557.92,178a7,7,0,0,0,1.88-.79,5.69,5.69,0,0,0,1.46-1.25,5.55,5.55,0,0,0,1-1.7,6.9,6.9,0,0,0-.15-4.75,5.37,5.37,0,0,0-1.43-1.95,6.47,6.47,0,0,0-2.28-1.22,9.83,9.83,0,0,0-3-.44h-8.68v19.48h3.42v-6.79h4.28l4.79,6.79ZM542,165.89h-3.42V177.1a5.69,5.69,0,0,1-1.31,4.07,4.77,4.77,0,0,1-3.59,1.36,4.64,4.64,0,0,1-3.61-1.42,5.89,5.89,0,0,1-1.31-4.15V165.89H525.3V177.1a10.84,10.84,0,0,0,.58,3.72,7.31,7.31,0,0,0,1.67,2.68,7,7,0,0,0,2.62,1.63,10.23,10.23,0,0,0,3.42.54,10.43,10.43,0,0,0,3.46-.54,6.79,6.79,0,0,0,2.63-1.64,7.55,7.55,0,0,0,1.68-2.74,11.12,11.12,0,0,0,.6-3.81Zm-26.14,3.18H522v-3.18h-15.8v3.18h6.18v16.3h3.45Zm-12.94-3.18h-3.42V177.1a5.69,5.69,0,0,1-1.31,4.07,4.76,4.76,0,0,1-3.58,1.36,4.66,4.66,0,0,1-3.62-1.42,5.94,5.94,0,0,1-1.31-4.15V165.89h-3.42V177.1a10.84,10.84,0,0,0,.59,3.72,7.16,7.16,0,0,0,1.66,2.68,7,7,0,0,0,2.62,1.63,10.23,10.23,0,0,0,3.42.54,10.43,10.43,0,0,0,3.46-.54,6.79,6.79,0,0,0,2.63-1.64,7.55,7.55,0,0,0,1.68-2.74,11.12,11.12,0,0,0,.6-3.81Zm-20.11,0H468.28v19.48h3.42v-7.93h9.82v-3.12H471.7V169h11.07Zm-27.28,16.78v-8.18H447.2v3h5v3.64a7.41,7.41,0,0,1-2.1,1.07,8.18,8.18,0,0,1-2.6.4,6.72,6.72,0,0,1-2.71-.52,6.35,6.35,0,0,1-2.09-1.46,6.49,6.49,0,0,1-1.35-2.22,8.07,8.07,0,0,1-.47-2.78,7.44,7.44,0,0,1,.48-2.67,7.17,7.17,0,0,1,1.34-2.19,6,6,0,0,1,2-1.49,5.81,5.81,0,0,1,2.49-.55,8.71,8.71,0,0,1,1.68.16,7.26,7.26,0,0,1,1.41.42,6.83,6.83,0,0,1,1.22.65,13.09,13.09,0,0,1,1.14.86l2.17-2.59a12.28,12.28,0,0,0-1.54-1.12,9.33,9.33,0,0,0-1.68-.82,11,11,0,0,0-1.94-.52,13.66,13.66,0,0,0-2.32-.18,10,10,0,0,0-4.05.81,9.73,9.73,0,0,0-5.25,5.39,10.25,10.25,0,0,0-.74,3.9,10.83,10.83,0,0,0,.72,4,9.46,9.46,0,0,0,2.05,3.18,9.36,9.36,0,0,0,3.18,2.11,10.88,10.88,0,0,0,4.15.77,12.09,12.09,0,0,0,2.44-.24,11.39,11.39,0,0,0,2.19-.65,12.44,12.44,0,0,0,1.89-1,17.42,17.42,0,0,0,1.6-1.17m-25.73-3.31-10.43-13.47h-3.17v19.48h3.36V171.51l10.74,13.86h2.87V165.89h-3.37Zm-22.22,6H411V165.89h-3.42Zm-8.63-14v14h3.43V165.89h-3.65l-5.92,9.21-5.93-9.21H383.2v19.48h3.37V171.46l6.09,9.12h.11Zm-24.14,0v14h3.42V165.89h-3.64l-5.93,9.21-5.92-9.21h-3.64v19.48h3.36V171.46l6.09,9.12h.11Zm-25.89,6.23h-6.71l3.34-7.79Zm-1.73-11.87H344l-8.56,19.61h3.5l2-4.7h9.21l2,4.7h3.62Zm-17.74,6.5a2.93,2.93,0,0,1-1.09,2.4,4.47,4.47,0,0,1-2.92.89h-5V169h5a4.73,4.73,0,0,1,3,.82,2.88,2.88,0,0,1,1.06,2.43m4.09,13.11L328.24,178a7.18,7.18,0,0,0,1.88-.79,5.86,5.86,0,0,0,1.46-1.25,5.77,5.77,0,0,0,1-1.7,6.4,6.4,0,0,0,.34-2.18,6.27,6.27,0,0,0-.5-2.57,5.26,5.26,0,0,0-1.43-1.95,6.38,6.38,0,0,0-2.28-1.22,9.78,9.78,0,0,0-3-.44H317v19.48h3.43v-6.79h4.28l4.78,6.79Zm-21-2.7v-8.18h-8.28v3h5v3.64a7.41,7.41,0,0,1-2.1,1.07,8.18,8.18,0,0,1-2.6.4,6.77,6.77,0,0,1-2.72-.52,6.41,6.41,0,0,1-2.08-1.46,6.34,6.34,0,0,1-1.35-2.22,7.84,7.84,0,0,1-.47-2.78,7.44,7.44,0,0,1,.48-2.67,7.17,7.17,0,0,1,1.34-2.19,6,6,0,0,1,2-1.49,5.81,5.81,0,0,1,2.49-.55,8.71,8.71,0,0,1,1.68.16,7,7,0,0,1,1.4.42,6.58,6.58,0,0,1,1.23.65,13.09,13.09,0,0,1,1.14.86l2.17-2.59a13.06,13.06,0,0,0-1.54-1.12,9.1,9.1,0,0,0-1.69-.82,10.65,10.65,0,0,0-1.93-.52,13.66,13.66,0,0,0-2.32-.18,9.85,9.85,0,0,0-9.31,6.2,10.44,10.44,0,0,0-.73,3.9,10.83,10.83,0,0,0,.72,4,9.28,9.28,0,0,0,5.23,5.29,10.79,10.79,0,0,0,4.14.77,12.12,12.12,0,0,0,2.45-.24,11.39,11.39,0,0,0,2.19-.65,12.92,12.92,0,0,0,1.89-1,17.24,17.24,0,0,0,1.59-1.17m-25.08-7a7.5,7.5,0,0,1-.49,2.68,6.56,6.56,0,0,1-1.35,2.2,6.19,6.19,0,0,1-2.07,1.47,6.68,6.68,0,0,1-5.33,0,6.6,6.6,0,0,1-2.1-1.5,6.83,6.83,0,0,1-1.36-2.21,7.6,7.6,0,0,1,0-5.37,6.72,6.72,0,0,1,1.35-2.2,6.19,6.19,0,0,1,2.07-1.47,6.68,6.68,0,0,1,5.33,0,6.6,6.6,0,0,1,2.1,1.5A6.83,6.83,0,0,1,287,173a7.55,7.55,0,0,1,.49,2.69m3.59-.06a10,10,0,0,0-.76-3.89,9.65,9.65,0,0,0-5.28-5.36,10.58,10.58,0,0,0-4.12-.79,10.2,10.2,0,0,0-7.34,3,9.79,9.79,0,0,0-2.11,3.21,10.36,10.36,0,0,0,0,7.79,9.65,9.65,0,0,0,5.28,5.36,10.58,10.58,0,0,0,4.12.79,10.2,10.2,0,0,0,7.34-3,9.79,9.79,0,0,0,2.11-3.21,10.08,10.08,0,0,0,.76-3.9m-27.18-3.34a3,3,0,0,1-1.08,2.4,4.5,4.5,0,0,1-2.92.89h-5V169h5a4.71,4.71,0,0,1,3,.82,2.88,2.88,0,0,1,1.06,2.43m4.09,13.11L262.68,178a7.18,7.18,0,0,0,1.88-.79A5.69,5.69,0,0,0,266,176a5.55,5.55,0,0,0,1-1.7,6.9,6.9,0,0,0-.15-4.75,5.37,5.37,0,0,0-1.43-1.95,6.51,6.51,0,0,0-2.29-1.22,9.76,9.76,0,0,0-3-.44h-8.68v19.48h3.42v-6.79h4.28l4.79,6.79Zm-23.5-12.86a3.19,3.19,0,0,1-1.13,2.55,4.57,4.57,0,0,1-3.07,1h-4v-7h4a4.86,4.86,0,0,1,3.06.88,3.1,3.1,0,0,1,1.14,2.62m3.47-.08a6.84,6.84,0,0,0-.51-2.7,5.9,5.9,0,0,0-1.47-2,6.54,6.54,0,0,0-2.34-1.33,9.85,9.85,0,0,0-3.07-.46h-7.68v19.48h3.42v-6.26h3.87a10.67,10.67,0,0,0,3-.43,7.41,7.41,0,0,0,2.47-1.27,6,6,0,0,0,1.67-2.08,6.51,6.51,0,0,0,.61-2.9"
          transform="translate(-52.14 -52.15)"/>
    <polygon class="cls-4"
             points="14.36 125.62 0 133.91 14.36 142.2 77.31 178.54 140.26 142.2 154.63 133.91 154.63 117.33 154.63 61.21 140.26 69.5 140.26 109.04 140.26 125.62 125.91 133.91 77.31 161.96 28.72 133.91 43.08 125.62 77.31 145.38 111.55 125.62 125.91 117.33 111.55 109.04 97.19 117.33 77.31 128.81 57.43 117.33 43.08 109.04 28.72 117.33 14.36 125.62"/>
    <polygon class="cls-4"
             points="140.26 36.35 77.31 0 14.36 36.35 0 44.63 0 61.21 0 117.33 14.36 109.04 14.36 69.5 14.36 52.92 28.72 44.63 77.31 16.58 125.91 44.63 111.55 52.92 77.31 33.16 43.08 52.92 28.72 61.21 28.72 77.8 28.72 100.75 43.08 92.46 43.08 86.08 43.08 69.5 57.43 61.21 77.31 49.73 97.19 61.21 111.55 69.5 125.91 61.21 140.26 52.92 154.63 44.63 140.26 36.35"/>
  </g>
</svg>
