<?xml version="1.0" encoding="UTF-8" standalone="no"?>
<!-- Created with Inkscape (http://www.inkscape.org/) -->
<svg xmlns="http://www.w3.org/2000/svg" width="153.59279" height="78.809212" viewBox="0 0 40.638091 20.851604"
     version="1.1" id="svg5050">
  <defs id="defs5044">
    <clipPath id="clipPath4793" clipPathUnits="userSpaceOnUse">
      <path id="path4791" d="M 42.095,731.889 H 156.54 v 60 H 42.095 Z"/>
    </clipPath>
  </defs>
  <g id="layer1" transform="translate(-97.741781,-196.48357)">
    <g id="g5253" transform="translate(0.1322915,-0.13228712)">
      <path
        d="m 107.76596,214.78508 v -3.87985 c 0,-0.37818 -0.16439,-0.70485 -0.40111,-0.70485 -0.24694,0 -0.41134,0.32667 -0.41134,0.70485 v 3.87985 h -1.01917 v -3.87985 c 0,-0.37818 -0.1644,-0.70485 -0.40076,-0.70485 -0.24729,0 -0.41169,0.32667 -0.41169,0.70485 v 3.87985 h -1.01882 v -5.42572 h 0.93662 v 0.28434 l 0.31891,-0.32632 c 0.0512,-0.0106 0.0822,-0.0106 0.17498,-0.0106 0.33973,0 0.66852,0.1263 0.91546,0.3683 0.2473,-0.2741 0.55563,-0.3683 0.91581,-0.3683 0.86431,0 1.41958,0.59937 1.41958,1.89301 v 3.58528 z"
        style="fill:#244991;fill-opacity:1;fill-rule:nonzero;stroke:none;stroke-width:0.35277778" id="path4797"/>
      <path
        d="m 110.6738,210.16884 c -0.1337,0 -0.28787,0.16827 -0.32914,0.29422 v 3.41735 c 0.39123,-0.13581 0.85443,-0.71437 0.85443,-2.31281 0,-0.86254 -0.23707,-1.39876 -0.52529,-1.39876 m -0.32914,4.6161 v 2.55023 h -1.01847 v -7.97595 h 0.95673 v 0.28433 l 0.30868,-0.32632 c 0.0515,-0.0106 0.11324,-0.0106 0.13406,-0.0106 0.80221,0 1.50177,0.7045 1.50177,2.45004 0,2.39713 -1.42981,2.95557 -1.88277,3.02825"
        style="fill:#244991;fill-opacity:1;fill-rule:nonzero;stroke:none;stroke-width:0.35277778" id="path4801"/>
      <path
        d="m 117.74551,214.78508 c -0.56621,0 -1.52294,-0.29422 -1.52294,-2.10291 v -2.42923 h -0.33902 v -0.89358 h 0.3496 v -1.4157 h 0.96661 v 1.4157 h 0.78246 v 0.89358 h -0.74048 v 2.59715 c 0,0.81069 0.26741,1.09362 0.61701,1.09362 0.0819,0 0.1644,-0.01 0.23636,-0.0205 v 0.83044 c 0,0 -0.16439,0.0314 -0.3496,0.0314"
        style="fill:#244991;fill-opacity:1;fill-rule:nonzero;stroke:none;stroke-width:0.35277778" id="path4805"/>
      <path
        d="m 120.10115,211.55741 c -0.17462,0.0205 -0.67874,0.48331 -0.67874,1.50319 0,0.65158 0.19543,0.91475 0.37006,0.91475 0.15452,0 0.26741,-0.17851 0.30868,-0.30445 z m 0.072,3.22756 v -0.32561 l -0.33973,0.35736 c -0.0614,0.0212 -0.11324,0.0212 -0.15381,0.0212 -0.64805,0 -1.23507,-0.74683 -1.23507,-1.77729 0,-1.68205 1.2139,-2.29271 1.65664,-2.3555 V 210.6 c 0,-0.31538 -0.17462,-0.45191 -0.44274,-0.45191 -0.25682,0 -0.43215,0.0318 -0.65793,0.0949 v -0.84208 c 0,0 0.29775,-0.0942 0.75107,-0.0942 0.78175,0 1.36807,0.37853 1.36807,1.57762 v 3.90066 z"
        style="fill:#244991;fill-opacity:1;fill-rule:nonzero;stroke:none;stroke-width:0.35277778" id="path4809"/>
      <path
        d="m 123.34865,214.83796 c -0.41169,0 -1.77976,-0.29492 -1.77976,-2.76578 0,-2.47121 1.36807,-2.76542 1.77976,-2.76542 0.30868,0 0.48331,0.042 0.48331,0.042 v 0.82021 c -0.12312,-0.0212 -0.17463,-0.0212 -0.30833,-0.0212 -0.33973,0 -0.92604,0.31538 -0.92604,1.9244 0,1.60867 0.58631,1.92405 0.92604,1.92405 0.1337,0 0.19508,0 0.31891,-0.0208 v 0.82056 c 0,0 -0.18521,0.042 -0.49389,0.042"
        style="fill:#244991;fill-opacity:1;fill-rule:nonzero;stroke:none;stroke-width:0.35277778" id="path4813"/>
      <path
        d="m 125.44436,210.12672 c -0.23671,0 -0.44309,0.31574 -0.44309,1.65135 0,0.10513 0,0.18909 0.0106,0.26247 0.2981,-0.0212 0.72002,-0.49354 0.72002,-1.23014 0,-0.49424 -0.10265,-0.68368 -0.28751,-0.68368 m -0.39123,2.75555 c 0.0512,0.79869 0.37077,1.11372 0.70944,1.11372 0.13405,0 0.21695,0 0.30938,-0.0205 v 0.8202 c -0.0924,0.0208 -0.23707,0.0423 -0.39123,0.0423 -0.73025,0 -1.69721,-0.45262 -1.69721,-2.77672 0,-2.4077 0.89499,-2.75449 1.47108,-2.75449 0.54539,0 1.22379,0.42087 1.22379,1.56669 0,1.35678 -1.14195,1.96638 -1.62525,2.00872"
        style="fill:#244991;fill-opacity:1;fill-rule:nonzero;stroke:none;stroke-width:0.35277778" id="path4817"/>
      <path
        d="m 129.02435,214.78508 v -3.87985 c 0,-0.37818 -0.16475,-0.70485 -0.40146,-0.70485 -0.2473,0 -0.41169,0.32667 -0.41169,0.70485 v 3.87985 h -1.01812 v -5.42572 h 0.93663 v 0.28434 l 0.3182,-0.32632 c 0.0522,-0.0106 0.0825,-0.0106 0.17498,-0.0106 0.87418,0 1.41958,0.59937 1.41958,1.89301 v 3.58528 z"
        style="fill:#244991;fill-opacity:1;fill-rule:nonzero;stroke:none;stroke-width:0.35277778" id="path4821"/>
      <path
        d="m 132.25174,214.78508 c -0.56621,0 -1.52365,-0.29422 -1.52365,-2.10291 v -2.42923 h -0.33902 v -0.89358 h 0.34925 v -1.4157 h 0.96767 v 1.4157 h 0.78176 v 0.89358 h -0.74048 v 2.59715 c 0,0.81069 0.26705,1.09362 0.61736,1.09362 0.0822,0 0.16439,-0.01 0.23671,-0.0205 v 0.83044 c 0,0 -0.16474,0.0314 -0.3496,0.0314"
        style="fill:#244991;fill-opacity:1;fill-rule:nonzero;stroke:none;stroke-width:0.35277778" id="path4825"/>
      <path
        d="m 134.39098,210.12672 c -0.23636,0 -0.44168,0.31574 -0.44168,1.65135 0,0.10513 0,0.18909 0.01,0.26247 0.2988,-0.0212 0.72002,-0.49354 0.72002,-1.23014 0,-0.49424 -0.10266,-0.68368 -0.28822,-0.68368 m -0.39088,2.75555 c 0.0515,0.79869 0.37042,1.11372 0.70979,1.11372 0.13406,0 0.21661,0 0.30903,-0.0205 v 0.8202 c -0.0924,0.0208 -0.23706,0.0423 -0.39087,0.0423 -0.73061,0 -1.69757,-0.45262 -1.69757,-2.77672 0,-2.4077 0.895,-2.75449 1.47108,-2.75449 0.54504,0 1.22414,0.42087 1.22414,1.56669 0,1.35678 -1.14194,1.96638 -1.6256,2.00872"
        style="fill:#244991;fill-opacity:1;fill-rule:nonzero;stroke:none;stroke-width:0.35277778" id="path4829"/>
      <path
        d="m 137.99217,210.25302 c -0.48366,0 -0.83326,0.3997 -0.83326,1.0414 v 3.49074 h -1.01847 v -5.42573 h 0.96696 v 0.4311 c 0.0924,-0.13688 0.32915,-0.4311 0.82303,-0.4311 h 0.18486 v 0.89359 z"
        style="fill:#244991;fill-opacity:1;fill-rule:nonzero;stroke:none;stroke-width:0.35277778" id="path4833"/>
      <path
        d="m 114.38806,209.35936 v 3.8802 c 0,0.37818 -0.16439,0.70415 -0.40111,0.70415 -0.24694,0 -0.41204,-0.32597 -0.41204,-0.70415 v -3.8802 h -1.01812 v 3.58599 c 0,1.29293 0.70344,1.88842 1.52506,1.88842 0.77364,0 1.32468,-0.80434 1.32468,-1.88842 v -3.58599 z"
        style="fill:#244991;fill-opacity:1;fill-rule:nonzero;stroke:none;stroke-width:0.35277778" id="path4837"/>
      <path
        d="m 99.922653,214.84512 c -0.823031,0 -2.180872,-0.42263 -2.180872,-3.40184 0,-2.42993 1.288344,-3.49038 2.311749,-3.4745 0.41875,0.006 0.56586,0.11042 0.56586,0.11042 v 0.87277 c 0,0 -0.16263,-0.1143 -0.56021,-0.0991 -0.812802,0.0303 -1.216733,1.47426 -1.216733,2.59044 0,2.31246 0.782109,2.5079 1.265413,2.5079 0.1337,0 0.23672,-0.0208 0.34996,-0.0416 v 0.86184 c 0,0 -0.22649,0.0737 -0.535167,0.0737"
        style="fill:#244991;fill-opacity:1;fill-rule:nonzero;stroke:none;stroke-width:0.35277778" id="path4841"/>
      <path
        d="m 102.1369,210.20793 c -0.23707,0 -0.47343,0.3683 -0.47343,1.87184 0,1.50354 0.23636,1.87113 0.47343,1.87113 0.23636,0 0.48331,-0.36759 0.48331,-1.87113 0,-1.50354 -0.24695,-1.87184 -0.48331,-1.87184 m 0,4.63726 c -0.5147,0 -1.50213,-0.30515 -1.50213,-2.76542 0,-2.46063 0.98743,-2.76578 1.50213,-2.76578 0.52493,0 1.50213,0.30515 1.50213,2.76578 0,2.46027 -0.9772,2.76542 -1.50213,2.76542"
        style="fill:#244991;fill-opacity:1;fill-rule:nonzero;stroke:none;stroke-width:0.35277778" id="path4845"/>
      <path
        d="m 116.30837,203.37187 h -3.5e-4 c -1.10102,0 -1.9939,-0.89288 -1.9939,-1.99425 0,-1.10102 0.89288,-1.9939 1.9939,-1.9939 h 3.5e-4 v -0.86396 h -3.5e-4 c -1.57833,0 -2.85821,1.27953 -2.85821,2.85786 0,1.57833 1.27988,2.8582 2.85821,2.8582 h 3.5e-4 z"
        style="fill:#2d9edf;fill-opacity:1;fill-rule:nonzero;stroke:none;stroke-width:0.35277778" id="path4849"/>
      <path
        d="m 116.30837,204.86557 h -3.5e-4 c -1.92617,0 -3.48756,-1.56175 -3.48756,-3.48791 0,-1.92617 1.56139,-3.48756 3.48756,-3.48756 h 3.5e-4 v -1.14195 h -3.5e-4 c -2.55694,0 -4.62951,2.07257 -4.62951,4.62951 0,2.55693 2.07257,4.62985 4.62951,4.62985 h 3.5e-4 z"
        style="fill:#244991;fill-opacity:1;fill-rule:nonzero;stroke:none;stroke-width:0.35277778" id="path4853"/>
      <path
        d="m 119.54927,203.37187 v 0 c 1.10102,0 1.9939,-0.89288 1.9939,-1.99425 0,-1.10102 -0.89288,-1.9939 -1.9939,-1.9939 v -0.86396 c 1.57833,0 2.85821,1.27953 2.85821,2.85786 0,1.57833 -1.27988,2.8582 -2.85821,2.8582 z"
        style="fill:#2d9edf;fill-opacity:1;fill-rule:nonzero;stroke:none;stroke-width:0.35277778" id="path4857"/>
      <path
        d="m 119.54927,204.86557 v 0 c 1.92617,0 3.48756,-1.56175 3.48756,-3.48791 0,-1.92617 -1.56139,-3.48756 -3.48756,-3.48756 v -1.14195 c 2.55693,0 4.6295,2.07257 4.6295,4.62951 0,2.55693 -2.07257,4.62985 -4.6295,4.62985 z"
        style="fill:#244991;fill-opacity:1;fill-rule:nonzero;stroke:none;stroke-width:0.35277778" id="path4861"/>
      <path
        d="m 119.08596,198.01897 c 0,0.63923 -0.51788,1.15746 -1.15641,1.15746 -0.64029,0 -1.15816,-0.51823 -1.15816,-1.15746 0,-0.63994 0.51787,-1.15746 1.15816,-1.15746 0.63853,0 1.15641,0.51752 1.15641,1.15746"
        style="fill:#244991;fill-opacity:1;fill-rule:nonzero;stroke:none;stroke-width:0.35277778" id="path4865"/>
    </g>
  </g>
</svg>
