<?xml version="1.0" encoding="UTF-8" standalone="no"?>
<svg
   width="64"
   height="64"
   fill="none"
   viewBox="0 0 64 64"
   version="1.1"
   id="svg6"
   xmlns="http://www.w3.org/2000/svg"
   xmlns:svg="http://www.w3.org/2000/svg">
  <defs
     id="defs3">
    <linearGradient
       id="a"
       x1="0.85000098"
       x2="62.619999"
       y1="62.720001"
       y2="1.8099999"
       gradientUnits="userSpaceOnUse">
      <stop
         stop-color="#FF9419"
         id="stop1" />
      <stop
         offset=".43"
         stop-color="#FF021D"
         id="stop2" />
      <stop
         offset=".99"
         stop-color="#E600FF"
         id="stop3" />
    </linearGradient>
  </defs>
  <path
     fill="url(#a)"
     d="M 20.34,3.66 3.66,20.34 C 1.32,22.68 0,25.86 0,29.18 V 59 c 0,2.76 2.24,5 5,5 h 29.82 c 3.32,0 6.49,-1.32 8.84,-3.66 L 60.34,43.66 C 62.68,41.32 64,38.14 64,34.82 V 5 C 64,2.24 61.76,0 59,0 H 29.18 c -3.32,0 -6.49,1.32 -8.84,3.66 z"
     id="path4"
     style="fill:url(#a)" />
  <path
     fill="#000000"
     d="M 48,16 H 8 v 40 h 40 z"
     id="path5" />
  <path
     fill="#ffffff"
     d="M 30,47 H 13 v 4 h 17 z"
     id="path6" />
</svg>
