<?xml version="1.0" encoding="UTF-8" standalone="no"?>
<svg
  xmlns="http://www.w3.org/2000/svg" x="0px" y="0px" viewBox="0 0 64 63.999998"
  xml:space="preserve" version="1.1" id="svg39" width="64" height="64"> <style type="text/css" id="style2"> .st0{fill:#064F8C;} .st1{fill:#249847;} .st2{fill:#BE2128;} .st3{fill:#172C36;} .st4{fill:#CDCDCE;} </style>
  <g id="Layer_2" transform="translate(0,18.599998)"> </g>
  <g id="g922" transform="matrix(2.2190473,0,0,2.2190473,-14.603456,-34.571419)"><polygon transform="matrix(0.79452357,0,0,0.79452357,3.8001251,12.63966)" class="st0" points="21.3,3.8 3.6,38.8 22.9,22.4 " id="polygon6" style="fill:#064f8c"/>
    <polygon transform="matrix(0.79452357,0,0,0.79452357,3.8001251,12.63966)" class="st1"
             points="38.6,39.9 14.8,30.3 3.5,39.9 " id="polygon8" style="fill:#249847"/>
    <polygon transform="matrix(0.79452357,0,0,0.79452357,3.8001251,12.63966)" class="st2"
             points="39.8,39.6 22.1,4.4 24.7,33.5 " id="polygon10" style="fill:#be2128"/>
    <polygon transform="matrix(0.79452357,0,0,0.79452357,3.8001251,12.63966)" style="fill:#cdcdce" id="polygon34"
             points="23.9,33.2 23,23.3 15.4,29.8 " class="st4"/></g> </svg>
