<?xml version="1.0" encoding="UTF-8"?>
<!-- Generator: Adobe Illustrator 22.1.0, SVG Export Plug-In . SVG Version: 6.00 Build 0)  -->
<svg version="1.1" id="st_x5F_cc_x5F_app_x5F_RGB.svg" xmlns="http://www.w3.org/2000/svg" x="0px" y="0px"
     viewBox="0 0 240.0004 234.0004" style="enable-background:new 0 0 240.0004 234.0004;" xml:space="preserve">
<style type="text/css">
	.style_fonts_1{fill:url(#fonts_1_);}
	.style_fonts_0{fill:#FFFFFF;}
</style>
  <linearGradient id="fonts_1_" gradientUnits="userSpaceOnUse" x1="119.9997" y1="234.0002" x2="119.9997" y2="0.0002">
	<stop offset="0" style="stop-color:#201F21"/>
    <stop offset="1" style="stop-color:#313131"/>
</linearGradient>
  <rect x="-0.0003" y="0.0002" class="style_fonts_1" width="240" height="234"/>
  <g>
	<path class="style_fonts_0"
        d="M132.24969,97.95853c-5.60328,18.77988-10.28088,36.91208-15.88416,54.63138   c-3.18081,9.99579-6.66385,19.53729-11.05544,25.59485c-4.84678,6.81497-13.93402,13.32771-24.83743,13.32771   c-7.72443,0-15.29683-3.63509-15.29683-11.66174c0-4.99789,5.14901-9.69264,9.23837-9.69264   c2.42339,0,3.63508,1.36282,4.24046,2.42339c3.7862,6.81497,7.42128,10.75229,9.08724,10.75229s3.02878-2.27135,5.7544-12.1151   l19.82331-73.26013H99.08337c-1.06058-3.18081,0.45427-7.11812,2.27135-7.87554h14.23625   c2.72562-8.7841,5.92356-17.60862,10.46719-25.63529c6.81497-12.26713,17.7193-21.95976,32.71205-21.95976   c11.3586,0,16.05333,5.45216,16.05333,12.41917c-0.15111,7.42036-6.66293,11.20656-9.69263,11.20656   c-2.42247,0-3.63416-1.81709-4.39159-4.39159c-2.57451-9.69263-5.90643-12.57029-7.87555-12.57029   c-1.9682,0-4.99789,3.63416-8.3289,11.20656c-4.3925,9.54151-7.28729,19.72977-10.01291,29.72464h17.26501   c1.05966,2.12023,0.15112,6.66385-2.42339,7.87554H132.24969z"/>
</g>
</svg>
