<?xml version="1.0" encoding="utf-8"?>
<!-- Generator: Adobe Illustrator 22.0.1, SVG Export Plug-In . SVG Version: 6.00 Build 0)  -->
<svg version="1.1" id="Ebene_1" xmlns="http://www.w3.org/2000/svg" x="0px" y="0px"
     viewBox="0 0 122.9 120.4" style="enable-background:new 0 0 122.9 120.4;" xml:space="preserve">
<style type="text/css">
	.st0{fill:#221E1B;}
</style>
    <g>
	<path class="st0" d="M62.1,0.8c-33.3,0-60.4,27-60.4,60.4c0,26.7,17.3,49.3,41.3,57.3c3,0.6,4.1-1.3,4.1-2.9
		c0-1.4-0.1-6.2-0.1-11.2c-16.8,3.7-20.3-7.1-20.3-7.1c-2.7-7-6.7-8.8-6.7-8.8c-5.5-3.7,0.4-3.7,0.4-3.7c6.1,0.4,9.3,6.2,9.3,6.2
		c5.4,9.2,14.1,6.6,17.6,5c0.5-3.9,2.1-6.6,3.8-8.1c-13.4-1.5-27.5-6.7-27.5-29.8c0-6.6,2.4-12,6.2-16.2c-0.6-1.5-2.7-7.7,0.6-16
		c0,0,5.1-1.6,16.6,6.2c4.8-1.3,10-2,15.1-2s10.3,0.7,15.1,2c11.5-7.8,16.6-6.2,16.6-6.2c3.3,8.3,1.2,14.5,0.6,16
		c3.9,4.2,6.2,9.6,6.2,16.2c0,23.2-14.1,28.3-27.6,29.8c2.2,1.9,4.1,5.5,4.1,11.2c0,8.1-0.1,14.6-0.1,16.6c0,1.6,1.1,3.5,4.1,2.9
		c24-8,41.3-30.6,41.3-57.3C122.5,27.9,95.5,0.8,62.1,0.8z"/>
        <path class="st0" d="M24.6,87.5c-0.1,0.3-0.6,0.4-1,0.2c-0.4-0.2-0.7-0.6-0.5-0.9c0.1-0.3,0.6-0.4,1-0.2S24.8,87.2,24.6,87.5
		L24.6,87.5z"/>
        <path class="st0" d="M27.1,90.3c-0.3,0.3-0.9,0.1-1.2-0.3c-0.4-0.4-0.5-1-0.2-1.3s0.8-0.1,1.2,0.3C27.3,89.4,27.4,90,27.1,90.3
		L27.1,90.3z"/>
        <path class="st0" d="M29.4,93.7c-0.4,0.3-1,0-1.3-0.5c-0.4-0.5-0.4-1.2,0-1.4c0.4-0.3,1,0,1.3,0.5C29.8,92.8,29.8,93.5,29.4,93.7
		L29.4,93.7z"/>
        <path class="st0" d="M32.7,97.1c-0.3,0.4-1,0.3-1.6-0.2c-0.5-0.5-0.7-1.2-0.3-1.5c0.3-0.4,1-0.3,1.6,0.2
		C32.9,96,33.1,96.7,32.7,97.1L32.7,97.1z"/>
        <path class="st0"
              d="M37.2,99c-0.1,0.5-0.8,0.7-1.5,0.5s-1.1-0.8-1-1.2c0.1-0.5,0.8-0.7,1.5-0.5S37.3,98.6,37.2,99L37.2,99z"/>
        <path class="st0" d="M42.1,99.4c0,0.5-0.6,0.9-1.3,0.9s-1.3-0.4-1.3-0.9s0.6-0.9,1.3-0.9C41.6,98.5,42.1,98.9,42.1,99.4L42.1,99.4z
		"/>
        <path class="st0" d="M46.7,98.6c0.1,0.5-0.4,1-1.1,1.1c-0.7,0.1-1.3-0.2-1.4-0.7c-0.1-0.5,0.4-1,1.1-1.1
		C46,97.8,46.7,98.1,46.7,98.6L46.7,98.6z"/>
</g>
</svg>
