<?xml version="1.0" encoding="utf-8"?>
<!-- Generator: Adobe Illustrator 22.0.1, SVG Export Plug-In . SVG Version: 6.00 Build 0)  -->
<svg xmlns:xlink="http://www.w3.org/1999/xlink" version="1.1" id="图层_1" xmlns="http://www.w3.org/2000/svg" x="0px"
     y="0px"
     viewBox="0 0 198.4 212.6" style="enable-background:new 0 0 198.4 212.6;" xml:space="preserve">
<style type="text/css">
	.style_jetbrains_0{clip-path:url(#svg_jetbrains_2_);fill:url(#svg_jetbrains_3_);}
	.style_jetbrains_1{clip-path:url(#svg_jetbrains_5_);fill:url(#svg_jetbrains_6_);}
	.style_jetbrains_2{clip-path:url(#svg_jetbrains_8_);fill:url(#svg_jetbrains_9_);}
	.style_jetbrains_3{clip-path:url(#svg_jetbrains_11_);fill:url(#svg_jetbrains_12_);}
	.style_jetbrains_4{fill:#FFFFFF;}
</style>
    <g>
	<defs>
		<path id="svg_jetbrains_1_" d="M182.9,105.9L182.9,105.9l-134,73.3c-3.1,1.3-5.7,3.5-7.6,6.6c-4.6,7.7-2,17.7,5.7,22.2
			c5.5,3.2,12.1,2.9,17.1-0.3c0.4-0.3,0.8-0.5,1.1-0.8l124.6-87.7c0.8-0.5,2.5-1.8,2.9-2.3l0,0l0,0c1.4-1.3,2.3-3,2.4-5.1
			c0.2-4.1-3-7.6-7.1-7.8c-0.1,0-0.2,0-0.4,0C185.9,104.1,184.2,104.8,182.9,105.9"/>
	</defs>
        <clipPath id="svg_jetbrains_2_">
		<use xlink:href="#svg_jetbrains_1_" style="overflow:visible;"/>
	</clipPath>

        <linearGradient id="svg_jetbrains_3_" gradientUnits="userSpaceOnUse" x1="-189.492" y1="473.851" x2="-186.4917"
                        y2="473.851"
                        gradientTransform="matrix(41.7839 -25.2187 -25.2187 -41.7839 19921.7715 15215.6914)">
		<stop offset="0" style="stop-color:#FEEB22"/>
            <stop offset="1" style="stop-color:#EE7532"/>
	</linearGradient>
        <polygon class="style_jetbrains_0" points="-10.6,132.7 153.1,33.9 242.8,182.7 79.1,281.5 	"/>
</g>
    <g>
	<defs>
		<path id="svg_jetbrains_4_" d="M69.6,14.5c0,3.3,1.3,6.3,3.4,8.5l0,0l0,0c0.6,0.6,1.2,1.1,1.9,1.6l107.7,92.3l0,0c1.2,1.2,2.9,2,4.7,2
			c4.1,0.2,7.6-3,7.8-7c0.1-2.2-0.8-4.2-2.2-5.6l0,0L91.1,6.2c-2.3-2.5-5.5-4-9.1-4C75.2,2.1,69.6,7.7,69.6,14.5"/>
	</defs>
        <clipPath id="svg_jetbrains_5_">
		<use xlink:href="#svg_jetbrains_4_" style="overflow:visible;"/>
	</clipPath>

        <linearGradient id="svg_jetbrains_6_" gradientUnits="userSpaceOnUse" x1="-196.1849" y1="468.4702" x2="-193.185"
                        y2="468.4702"
                        gradientTransform="matrix(38.1375 33.3883 33.3883 -38.1375 -8079.9272 24430.8398)">
		<stop offset="0" style="stop-color:#E95165"/>
            <stop offset="0.3243" style="stop-color:#EB6058"/>
            <stop offset="0.7728" style="stop-color:#ED703F"/>
            <stop offset="1" style="stop-color:#EE7532"/>
	</linearGradient>
        <polygon class="style_jetbrains_1" points="124.1,-60.2 253.3,52.9 140.8,181.5 11.6,68.4 	"/>
</g>
    <g>
	<defs>
		<path id="svg_jetbrains_7_" d="M4.3,55.9c-3,8.1,0.2,17.1,7.4,21.5l0,0l0.1,0c1,0.6,2,1.1,3,1.5c0.6,0.2,72.6,30.1,72.6,30.1l0,0
			c2.8,1.3,6.2,0.5,8.2-2c2.4-3,1.8-7.3-1.1-9.7c-0.2-0.1-62.9-49.7-64.2-50.5l-0.1,0l0,0c-0.9-0.5-1.9-1-2.9-1.4
			c-2.1-0.8-4.2-1.1-6.3-1.1C13.8,44.3,7,48.7,4.3,55.9"/>
	</defs>
        <clipPath id="svg_jetbrains_8_">
		<use xlink:href="#svg_jetbrains_7_" style="overflow:visible;"/>
	</clipPath>

        <linearGradient id="svg_jetbrains_9_" gradientUnits="userSpaceOnUse" x1="-172.6174" y1="461.1754" x2="-169.6169"
                        y2="461.1754"
                        gradientTransform="matrix(-22.6024 -14.1153 -14.1153 22.6024 2697.0466 -12758.3252)">
		<stop offset="0" style="stop-color:#82539C"/>
            <stop offset="9.152592e-02" style="stop-color:#905198"/>
            <stop offset="0.5073" style="stop-color:#C34586"/>
            <stop offset="0.8064" style="stop-color:#DD397A"/>
            <stop offset="0.957" style="stop-color:#E73276"/>
            <stop offset="1" style="stop-color:#E73276"/>
	</linearGradient>
        <polygon class="style_jetbrains_2" points="70.8,153.7 -28.4,91.7 28.4,0.9 127.5,62.8 	"/>
</g>
    <g>
	<defs>
		<path id="svg_jetbrains_10_" d="M74.7,4.5L10.9,47.4c-0.1,0.1-0.3,0.2-0.4,0.3l-0.1,0.1l0,0c-2.7,2-4.9,4.8-6.2,8.2
			c-3.5,9.2,1.2,19.5,10.5,23c5.8,2.2,12,1.1,16.7-2.2l0,0c1-0.8,2-1.6,2.9-2.6l55.3-49.8l0,0c2.9-2.3,4.8-5.8,4.8-9.7v0
			c0-6.8-5.6-12.4-12.4-12.4C79.3,2.1,76.7,3,74.7,4.5"/>
	</defs>
        <clipPath id="svg_jetbrains_11_">
		<use xlink:href="#svg_jetbrains_10_" style="overflow:visible;"/>
	</clipPath>

        <linearGradient id="svg_jetbrains_12_" gradientUnits="userSpaceOnUse" x1="-188.8217" y1="450.1882"
                        x2="-185.8219"
                        y2="450.1882"
                        gradientTransform="matrix(-22.0664 18.2248 18.2248 22.0664 -12283.9932 -6483.9189)">
		<stop offset="0" style="stop-color:#E95165"/>
            <stop offset="0.6592" style="stop-color:#E83C71"/>
            <stop offset="1" style="stop-color:#E73276"/>
	</linearGradient>
        <polygon class="style_jetbrains_3" points="133.1,49.1 38.7,127 -38,34.1 56.4,-43.8 	"/>
</g>
    <rect x="58.4" y="61.9" width="81.5" height="81.5"/>
    <rect x="65.5" y="128.1" class="style_jetbrains_4" width="30.6" height="5.1"/>
    <g>
	<path class="style_jetbrains_4" d="M65.1,83.4l2.4-2.2c0.6,0.8,1.3,1.2,2.1,1.2c0.9,0,1.5-0.6,1.5-1.9v-8.4h3.7v8.4c0,1.7-0.4,2.8-1.3,3.7
		c-0.9,0.9-2.1,1.3-3.6,1.3C67.5,85.6,66.1,84.7,65.1,83.4"/>
        <polygon class="style_jetbrains_4" points="75.6,72.1 86.3,72.1 86.3,75.2 79.2,75.2 79.2,77.3 85.6,77.3 85.6,80.2 79.2,80.2 79.2,82.3
		86.4,82.3 86.4,85.4 75.6,85.4 	"/>
        <polygon class="style_jetbrains_4"
                 points="91.1,75.4 87.1,75.4 87.1,72.1 98.7,72.1 98.7,75.4 94.8,75.4 94.8,85.4 91.1,85.4 	"/>
        <path class="style_jetbrains_4" d="M65.5,88.5h6.8c1.7,0,2.8,0.4,3.6,1.2c0.5,0.5,0.9,1.2,0.9,2.2v0c0,1.5-0.9,2.4-2,3c1.6,0.5,2.6,1.4,2.6,3.2v0
		c0,2.3-1.9,3.7-5,3.7h-6.8V88.5z M73.1,92.6c0-0.7-0.6-1.1-1.7-1.1H69v2.3h2.3C72.5,93.8,73.1,93.4,73.1,92.6L73.1,92.6z
		 M71.9,96.4H69v2.4h2.8c1.1,0,1.8-0.4,1.8-1.2v0C73.7,96.9,73.1,96.4,71.9,96.4"/>
        <path class="style_jetbrains_4" d="M77.9,88.5h6.3c2,0,3.4,0.5,4.3,1.4c0.8,0.8,1.2,1.8,1.2,3.1v0c0,2.1-1.1,3.4-2.7,4.1l3.2,4.6h-4.2l-2.7-4
		h-1.6v4h-3.7V88.5z M84,94.9c1.2,0,2-0.6,2-1.6v0c0-1.1-0.8-1.6-2-1.6h-2.4v3.2H84z"/>
        <path class="style_jetbrains_4"
              d="M94,88.4h3.5l5.7,13.4h-3.9l-1-2.4h-5.1l-0.9,2.4h-3.9L94,88.4z M97.2,96.5l-1.5-3.8l-1.5,3.8H97.2z"/>
        <rect x="103.6" y="88.5" class="style_jetbrains_4" width="3.7" height="13.3"/>
        <polygon class="style_jetbrains_4" points="108.2,88.5 111.6,88.5 117.1,95.5 117.1,88.5 120.7,88.5 120.7,101.8 117.5,101.8 111.8,94.5
		111.8,101.8 108.2,101.8 	"/>
        <path class="style_jetbrains_4" d="M121,99.8l2-2.4c1.3,1,2.8,1.6,4.3,1.6c1,0,1.5-0.3,1.5-0.9v0c0-0.6-0.4-0.9-2.3-1.3c-2.8-0.7-5-1.4-5-4.2v0
		c0-2.5,2-4.2,5.1-4.2c2.3,0,4,0.6,5.5,1.8l-1.8,2.6c-1.2-0.9-2.5-1.3-3.7-1.3c-0.9,0-1.3,0.4-1.3,0.9v0c0,0.6,0.5,0.9,2.3,1.3
		c3,0.7,4.9,1.6,4.9,4.1v0c0,2.7-2.1,4.3-5.4,4.3C124.8,102,122.6,101.3,121,99.8"/>
</g>
</svg>
