<svg id="Layer_1" data-name="Layer 1" xmlns="http://www.w3.org/2000/svg" viewBox="0 0 255.93 255.93">
    <defs>
        <style>.cls-1{fill:#672a7a;}.cls-2{fill:#fff;}</style>
    </defs>
    <title>microsoft-net-framework-seeklogo</title>
    <rect class="cls-1" width="255.93" height="255.93"/>
    <path class="cls-2"
          d="M177.24,111.33a5.58,5.58,0,0,0,2-4.36,5.27,5.27,0,0,0-1.58-3.93,12.22,12.22,0,0,0-3.95-2.37,11.52,11.52,0,0,1-3.21-1.78,2.85,2.85,0,0,1-.86-2.21,2.67,2.67,0,0,1,1-2.16,4.2,4.2,0,0,1,2.72-.83,8.06,8.06,0,0,1,4.86,1.53V91.77a10.15,10.15,0,0,0-4.58-1,8.15,8.15,0,0,0-5.44,1.78,5.91,5.91,0,0,0-.75,8.3,11.38,11.38,0,0,0,3.83,2.43,13.93,13.93,0,0,1,3.51,2,2.66,2.66,0,0,1,.9,2.07q0,3-4.07,3a8.64,8.64,0,0,1-5.57-2.05v3.68a10.48,10.48,0,0,0,5.32,1.29A8.61,8.61,0,0,0,177.24,111.33Z"
          transform="translate(-12.53 -13.53)"/>
    <path class="cls-2"
          d="M209.48,112.7h3.42V94.19h5v-2.9h-5V88q0-4.55,3.6-4.54a4.6,4.6,0,0,1,2.27.56V80.92a7.47,7.47,0,0,0-7.11,1.36,7.11,7.11,0,0,0-2.18,5.54v3.47h-3.65v2.9h3.65Z"
          transform="translate(-12.53 -13.53)"/>
    <path class="cls-2"
          d="M100.21,85.85a2.23,2.23,0,0,0,1.6-3.81,2.3,2.3,0,0,0-3.18,0,2.27,2.27,0,0,0,0,3.18A2.21,2.21,0,0,0,100.21,85.85Z"
          transform="translate(-12.53 -13.53)"/>
    <path class="cls-2"
          d="M117.38,113.21a11.06,11.06,0,0,0,5.86-1.5v-3.26a8.6,8.6,0,0,1-5.27,1.84,6.8,6.8,0,0,1-5.29-2.17,8.49,8.49,0,0,1-2-5.92A8.87,8.87,0,0,1,112.86,96a6.85,6.85,0,0,1,5.33-2.28,8.72,8.72,0,0,1,5.1,1.68V91.85a10.94,10.94,0,0,0-5-1.09A10.58,10.58,0,0,0,110.21,94a12,12,0,0,0-3,8.51,10.77,10.77,0,0,0,2.76,7.65A9.62,9.62,0,0,0,117.38,113.21Z"
          transform="translate(-12.53 -13.53)"/>
    <path class="cls-2"
          d="M239.25,93h.67c.47,0,.9.43,1.3,1.31l.78,1.74h1.24l-1-1.94c-.4-.79-.8-1.24-1.2-1.34v0a2.42,2.42,0,0,0,1.35-.72,1.76,1.76,0,0,0,.49-1.27,1.72,1.72,0,0,0-.6-1.36,3,3,0,0,0-2.06-.61h-2v7.26h1Zm0-3.34h.9a2.18,2.18,0,0,1,1.34.32,1.11,1.11,0,0,1,.35.91c0,.83-.5,1.24-1.5,1.24h-1.09Z"
          transform="translate(-12.53 -13.53)"/>
    <path class="cls-2"
          d="M223.47,106.86q0,6.31,5.61,6.32a6.41,6.41,0,0,0,3.22-.7v-2.92a3.66,3.66,0,0,1-2.22.69,3,3,0,0,1-2.45-.92,4.89,4.89,0,0,1-.72-3.06V94.19h5.39v-2.9h-5.39V85c-1.2.39-2.34.77-3.44,1.11v5.23H219.8v2.9h3.67Z"
          transform="translate(-12.53 -13.53)"/>
    <path class="cls-2"
          d="M240.45,98.13a5.57,5.57,0,0,0,4.08-1.64,5.75,5.75,0,0,0,0-8.09,6,6,0,0,0-8.12.08,5.49,5.49,0,0,0-1.64,4,5.43,5.43,0,0,0,1.62,4A5.59,5.59,0,0,0,240.45,98.13Zm-3.59-9.22a5.18,5.18,0,1,1-1.43,3.58A4.88,4.88,0,0,1,236.86,88.91Z"
          transform="translate(-12.53 -13.53)"/>
    <rect class="cls-2" x="85.92" y="77.75" width="3.42" height="21.41"/>
    <path class="cls-2"
          d="M151.54,113.21a10.17,10.17,0,0,0,7.79-3.09,11.61,11.61,0,0,0,2.88-8.21c0-3.47-.9-6.2-2.68-8.18a9.64,9.64,0,0,0-7.49-3,10.7,10.7,0,0,0-7.77,2.84q-3.14,3.06-3.13,8.64a11.18,11.18,0,0,0,2.75,7.88A9.86,9.86,0,0,0,151.54,113.21Zm-4.86-17.43a6.63,6.63,0,0,1,5.12-2.09,6.32,6.32,0,0,1,5,2.07q1.84,2.16,1.85,6.27A9.4,9.4,0,0,1,157,108.1a6.26,6.26,0,0,1-5.16,2.19,6.63,6.63,0,0,1-5.21-2.17,8.67,8.67,0,0,1-1.94-6A9.12,9.12,0,0,1,146.68,95.78Z"
          transform="translate(-12.53 -13.53)"/>
    <path class="cls-2"
          d="M200.78,110.12a11.57,11.57,0,0,0,2.89-8.21c0-3.47-.91-6.2-2.69-8.18a9.63,9.63,0,0,0-7.48-3,10.71,10.71,0,0,0-7.78,2.84c-2.08,2-3.13,4.92-3.13,8.64a11.14,11.14,0,0,0,2.76,7.88,9.84,9.84,0,0,0,7.65,3.09A10.13,10.13,0,0,0,200.78,110.12Zm-14.67-8a9.16,9.16,0,0,1,2-6.33,6.67,6.67,0,0,1,5.13-2.09,6.32,6.32,0,0,1,5,2.07q1.86,2.16,1.86,6.27a9.4,9.4,0,0,1-1.74,6.07,6.25,6.25,0,0,1-5.16,2.19,6.65,6.65,0,0,1-5.21-2.17A8.67,8.67,0,0,1,186.11,102.11Z"
          transform="translate(-12.53 -13.53)"/>
    <polygon class="cls-2"
             points="137.85 151.86 166.25 151.86 166.25 143.53 137.85 143.53 137.85 117.38 168.5 117.38 168.5 109.05 128.64 109.05 128.64 187.66 170.31 187.66 170.31 179.33 137.85 179.33 137.85 151.86"/>
    <polygon class="cls-2"
             points="178.96 117.38 201.65 117.38 201.65 187.66 210.86 187.66 210.86 117.38 233.5 117.38 233.5 109.05 178.96 109.05 178.96 117.38"/>
    <path class="cls-2"
          d="M40.84,190.07a5.65,5.65,0,0,0-4.27,1.81,6,6,0,0,0-1.76,4.38,6.07,6.07,0,0,0,1.76,4.36,5.67,5.67,0,0,0,4.27,1.83,6,6,0,0,0,4.39-1.83,6.16,6.16,0,0,0,0-8.72A5.91,5.91,0,0,0,40.84,190.07Z"
          transform="translate(-12.53 -13.53)"/>
    <path class="cls-2"
          d="M134.26,92.08a7.54,7.54,0,0,0-2.32,3.62h-.08V91.29h-3.43V112.7h3.43V101.78A9.37,9.37,0,0,1,133.47,96a4.58,4.58,0,0,1,6.13-1.19V91.2a5.71,5.71,0,0,0-2.06-.29A5.17,5.17,0,0,0,134.26,92.08Z"
          transform="translate(-12.53 -13.53)"/>
    <polygon class="cls-2"
             points="51.17 73.22 51.24 73.22 62.38 99.17 64.09 99.17 75.22 73.22 75.3 73.22 75 99.17 78.52 99.17 78.52 69.19 74.12 69.19 63.29 93.68 63.14 93.68 52.58 69.19 47.94 69.19 47.94 99.17 51.33 99.17 51.17 73.22"/>
    <polygon class="cls-2"
             points="102.08 175.44 59.87 109.05 47.92 109.05 47.92 187.66 57.13 187.66 57.13 120.23 100.06 187.66 111.23 187.66 111.23 109.05 102.08 109.05 102.08 175.44"/>
</svg>
