<?xml version="1.0" encoding="utf-8"?>
<!-- Generator: Adobe Illustrator 22.0.0, SVG Export Plug-In . SVG Version: 6.00 Build 0)  -->
<svg version="1.1" id="图层_1" xmlns="http://www.w3.org/2000/svg" x="0px" y="0px"
     viewBox="0 0 652 116.2" style="enable-background:new 0 0 652 116.2;" xml:space="preserve">
<style type="text/css">
	.st0{fill:#0F096A;}
</style>
    <g>
	<g>
		<polygon id="XMLID_22_" class="st0" points="55.1,57.9 104.6,57.9 104.6,14.2 55.1,21.1 		"/>
        <polygon id="XMLID_21_" class="st0" points="53,57.9 53,21.4 15.2,26.7 15.2,57.9 		"/>
        <polygon id="XMLID_20_" class="st0" points="53,59.9 15.2,59.9 15.2,91.2 53,96.5 		"/>
        <polygon id="XMLID_19_" class="st0" points="55.1,59.9 55.1,96.8 104.6,103.7 104.6,59.9 		"/>
	</g>
        <g>
		<path class="st0" d="M473.6,72.3c0,4.5-1.6,8.1-4.8,10.6c-3.2,2.6-7.5,3.9-13,3.9c-2,0-4.2-0.3-6.7-1c-2.5-0.7-4.3-1.4-5.3-2.1
			v-7.4c1.5,1.4,3.5,2.5,6,3.4c2.5,0.9,4.8,1.4,6.9,1.4c6.9,0,10.3-2.7,10.3-8c0-2.2-0.7-4.2-2.2-5.8c-1.5-1.6-4.5-3.7-9.1-6.3
			c-4.4-2.5-7.5-4.9-9.3-7.1c-1.8-2.2-2.7-5-2.7-8.2c0-4.2,1.6-7.7,4.8-10.3c3.2-2.7,7.2-4,12.3-4c4.8,0,8.3,0.6,10.5,1.9v7
			c-2.8-2.2-6.4-3.3-10.9-3.3c-3,0-5.4,0.7-7.3,2.2c-1.9,1.5-2.8,3.4-2.8,5.9c0,1.8,0.3,3.2,0.8,4.3c0.6,1.1,1.5,2.1,2.8,3.2
			c1.3,1,3.6,2.5,6.8,4.2c4.7,2.6,8.1,5.1,9.9,7.5C472.6,66.5,473.6,69.2,473.6,72.3z"/>
            <path class="st0" d="M511.9,68.2h-27c0.1,4.3,1.2,7.6,3.4,9.9c2.2,2.3,5.2,3.4,9.1,3.4c4.3,0,8.3-1.4,11.9-4.2V83
			c-3.3,2.5-7.8,3.7-13.3,3.7c-5.5,0-9.7-1.8-12.8-5.3c-3.1-3.5-4.6-8.4-4.6-14.6c0-3.8,0.8-7.3,2.3-10.4c1.5-3.1,3.6-5.6,6.3-7.3
			c2.7-1.7,5.7-2.6,9-2.6c5,0,8.8,1.6,11.6,4.8c2.8,3.2,4.2,7.8,4.2,13.6V68.2z M505.6,63c-0.1-3.5-0.9-6.3-2.6-8.2
			c-1.7-2-4-2.9-7-2.9c-2.8,0-5.3,1-7.3,3.1c-2,2-3.3,4.8-3.8,8.1H505.6z"/>
            <path class="st0" d="M538.7,53.7c-1.1-0.8-2.7-1.2-4.7-1.2c-2.7,0-4.9,1.3-6.6,3.8c-1.7,2.6-2.5,5.9-2.5,10v19.5h-6.1V47.5h6.1
			v7.9h0.1c0.8-2.6,2.2-4.7,3.9-6.3c1.8-1.5,3.8-2.3,6.1-2.3c1.6,0,2.8,0.2,3.7,0.5V53.7z"/>
            <path class="st0" d="M577.3,47.5L562,85.8H556l-14.5-38.3h6.8l9.7,27.8c0.5,1.5,0.9,3.3,1.3,5.4h0.2c0.2-1.8,0.6-3.6,1.2-5.2
			l10.2-28H577.3z"/>
            <path class="st0" d="M611.9,68.2h-27c0.1,4.3,1.2,7.6,3.4,9.9c2.2,2.3,5.2,3.4,9.1,3.4c4.3,0,8.3-1.4,11.9-4.2V83
			c-3.3,2.5-7.8,3.7-13.3,3.7c-5.5,0-9.7-1.8-12.8-5.3c-3.1-3.5-4.6-8.4-4.6-14.6c0-3.8,0.8-7.3,2.3-10.4c1.5-3.1,3.6-5.6,6.3-7.3
			c2.7-1.7,5.7-2.6,9-2.6c5,0,8.8,1.6,11.6,4.8c2.8,3.2,4.2,7.8,4.2,13.6V68.2z M605.6,63c-0.1-3.5-0.9-6.3-2.6-8.2
			c-1.7-2-4-2.9-7-2.9c-2.8,0-5.3,1-7.3,3.1c-2,2-3.3,4.8-3.8,8.1H605.6z"/>
            <path class="st0" d="M638.8,53.7c-1.1-0.8-2.7-1.2-4.7-1.2c-2.7,0-4.9,1.3-6.6,3.8c-1.7,2.6-2.5,5.9-2.5,10v19.5h-6.1V47.5h6.1
			v7.9h0.2c0.8-2.6,2.2-4.7,3.9-6.3c1.8-1.5,3.8-2.3,6.1-2.3c1.6,0,2.8,0.2,3.7,0.5V53.7z"/>
	</g>
        <g>
		<g>
			<g>
				<path class="st0" d="M201.1,32.2l-15.1,53.6h-7.4l-11-39.2c-0.4-1.5-0.7-3.3-0.8-5.4h-0.2c-0.2,1.8-0.5,3.6-1,5.3l-11.1,39.3
					h-7.3l-15.7-53.6h6.9l11.4,41.1c0.5,1.8,0.8,3.6,0.9,5.4h0.2c0.1-1.5,0.5-3.3,1.1-5.4l11.9-41.1h6.1l11.3,41.4
					c0.4,1.5,0.7,3.2,0.9,5h0.1c0.1-1.3,0.5-3,1-5.1l11-41.3H201.1z"/>
                <path class="st0" d="M213.2,34.9c0,1.1-0.4,2.1-1.2,2.9c-0.8,0.8-1.7,1.1-2.8,1.1c-1.1,0-2.1-0.4-2.8-1.1
					c-0.8-0.7-1.2-1.7-1.2-2.9c0-1.1,0.4-2,1.1-2.8c0.8-0.8,1.7-1.2,2.9-1.2c1.1,0,2.1,0.4,2.9,1.2
					C212.8,32.9,213.2,33.8,213.2,34.9z M212.2,85.8H206V47.5h6.1V85.8z"/>
                <path class="st0" d="M253.2,85.8h-6.1V63.9c0-8.1-3-12.2-8.9-12.2c-3,0-5.5,1.1-7.6,3.4c-2,2.3-3.1,5.2-3.1,8.7v21.8h-6.1V47.5
					h6.1v6.4h0.2c2.9-4.9,7.1-7.3,12.6-7.3c4.2,0,7.4,1.4,9.6,4.1c2.2,2.7,3.3,6.6,3.3,11.7V85.8z"/>
                <path class="st0" d="M295.8,85.8h-6.1v-6.5h-0.2c-2.8,5-7.2,7.4-13.2,7.4c-4.8,0-8.7-1.7-11.6-5.2c-2.9-3.5-4.3-8.1-4.3-13.9
					c0-6.3,1.6-11.4,4.8-15.3c3.2-3.8,7.4-5.8,12.8-5.8c5.2,0,9.1,2.1,11.5,6.2h0.2V29.1h6.1V85.8z M289.7,68.5v-5.6
					c0-3.2-1.1-5.8-3.2-7.9c-2.1-2.1-4.7-3.1-7.7-3.1c-3.7,0-6.6,1.4-8.8,4.1c-2.2,2.7-3.3,6.5-3.3,11.3c0,4.4,1,7.9,3.1,10.4
					c2,2.6,4.8,3.8,8.3,3.8c3.4,0,6.1-1.2,8.3-3.7C288.6,75.4,289.7,72.3,289.7,68.5z"/>
                <path class="st0" d="M341.1,66.5c0,6.1-1.7,11-5.2,14.7c-3.5,3.7-8.1,5.6-13.9,5.6c-5.7,0-10.2-1.8-13.6-5.4
					c-3.4-3.6-5.1-8.3-5.1-14.2c0-6.3,1.7-11.3,5.2-15c3.5-3.7,8.2-5.5,14.3-5.5c5.7,0,10.1,1.8,13.4,5.3
					C339.5,55.4,341.1,60.3,341.1,66.5z M334.8,66.7c0-4.8-1.1-8.5-3.2-11.1c-2.1-2.6-5.2-3.8-9.1-3.8c-3.9,0-7.1,1.3-9.3,3.9
					c-2.3,2.6-3.4,6.3-3.4,11.1c0,4.6,1.2,8.2,3.5,10.8c2.3,2.6,5.4,3.9,9.3,3.9c4,0,7-1.3,9.2-3.8
					C333.7,75.1,334.8,71.5,334.8,66.7z"/>
                <path class="st0" d="M396.9,47.5l-11.5,38.3h-6.4l-7.9-27.4c-0.3-0.9-0.5-2.1-0.6-3.5h-0.2c-0.1,0.9-0.3,2-0.8,3.4l-8.6,27.5
					H355l-11.6-38.3h6.4l7.9,28.8c0.2,1,0.4,2.1,0.5,3.4h0.3c0.1-0.9,0.3-2.1,0.7-3.5l8.8-28.7h5.6l8,28.9c0.2,1,0.4,2.1,0.5,3.4
					h0.3c0-1.2,0.3-2.3,0.6-3.4l7.8-28.9H396.9z"/>
                <path class="st0" d="M423,75.5c0,3.3-1.3,6-3.8,8.1c-2.6,2.1-6,3.1-10.2,3.1c-3.6,0-6.8-0.8-9.5-2.3v-6.6c3,2.4,6.3,3.7,9.9,3.7
					c4.9,0,7.3-1.8,7.3-5.4c0-1.4-0.5-2.6-1.4-3.5c-0.9-0.9-3.1-2.1-6.5-3.7c-3.4-1.4-5.8-3-7.2-4.7c-1.4-1.7-2.1-3.9-2.1-6.6
					c0-3.2,1.3-5.8,3.8-7.9c2.5-2.1,5.8-3.2,9.7-3.2c3,0,5.8,0.6,8.2,1.8v6.2c-2.5-1.8-5.4-2.7-8.7-2.7c-2,0-3.6,0.5-4.9,1.5
					c-1.2,1-1.9,2.3-1.9,3.9c0,1.7,0.5,3,1.4,3.9s2.9,2,5.9,3.2c3.6,1.5,6.2,3.2,7.7,4.9C422.3,70.8,423,73,423,75.5z"/>
			</g>
		</g>
	</g>
</g>
</svg>
