<?xml version="1.0" encoding="UTF-8" standalone="no"?>
<svg
   width="512"
   height="515.92084"
   viewBox="0 0 512 515.92084"
   version="1.1"
   xmlns="http://www.w3.org/2000/svg">
  <path
     style="stroke-width:9.46868;fill:#614159;fill-opacity:1"
     d="M 124.65944,0.01933148 C 118.6163,0.16121966 112.64856,1.0871903 103.63878,2.8622081 66.521077,10.174797 37.283562,29.721505 17.990369,60.120987 2.171993,85.045252 -0.10262071,94.504012 0.00342847,134.94102 0.09508534,170.08282 0.3971173,172.13494 9.2464491,197.94916 35.679028,275.05472 87.368545,345.55843 205.1114,465.09645 l 50.06105,50.82438 26.05075,-25.77184 C 386.6294,385.87383 453.73785,303.10866 484.55982,239.36416 506.90278,193.15561 513.48579,164.76667 511.73115,122.17987 510.66658,96.343112 510.08473,93.931289 500.12965,73.841181 474.45598,22.029528 421.37172,-6.322071 365.22753,1.7955234 320.66158,8.239105 292.94192,29.605836 265.51153,78.655967 c -4.98251,8.909592 -9.4191,16.20097 -9.85466,16.20097 -0.43547,0 -6.19168,-9.300755 -12.7905,-20.66835 C 236.26764,62.820991 223.47479,45.852841 214.4376,36.48254 193.9969,15.288405 176.04459,6.1898934 146.12536,1.8640198 136.82238,0.51895587 130.70257,-0.12254723 124.65944,0.01933148 Z M 389.2085,34.61828 c 10.8443,0.434518 20.54638,4.48129 28.67827,12.169082 22.10312,20.895919 24.66127,55.458118 7.71148,104.168698 -11.50264,33.05662 -26.53313,51.32988 -46.73861,56.8184 -6.26524,1.70141 -19.30907,2.37432 -31.55056,1.6245 l -20.86407,-1.27709 13.34831,8.97879 c 18.70651,12.58272 38.95234,33.48578 44.70314,46.15639 15.37406,33.87306 -8.93008,63.86748 -55.48749,68.47371 -37.94744,3.75442 -63.92869,-13.65385 -72.09458,-48.31424 -1.69006,-7.1729 -2.28526,-7.93289 -2.49547,-3.17071 -0.15187,3.4448 -3.00188,12.11216 -6.33164,19.26404 -7.33377,15.75143 -21.56141,26.86809 -39.24247,30.66001 -6.88752,1.47721 -15.56712,2.54974 -19.28851,2.38782 -25.2078,-1.09779 -51.62205,-12.10417 -61.14877,-25.48313 -7.29713,-10.24786 -8.62462,-26.85702 -3.26857,-40.88165 5.07872,-13.2984 26.24465,-35.92591 45.95087,-49.12649 l 13.35321,-8.94454 -20.86897,1.27709 c -34.12626,2.09044 -51.69482,-6.04484 -66.085891,-30.6013 -14.32441,-24.4428 -25.18956,-67.40025 -23.041495,-91.089502 2.1011,-23.171376 15.530154,-43.818856 32.724896,-50.315507 10.8442,-4.097193 29.38047,-3.071943 41.16055,2.275286 34.38608,15.608618 78.73914,63.454343 99.66218,107.510663 l 7.09007,14.92878 8.45035,-16.48967 C 281.56489,110.42139 316.65988,68.365339 342.64109,50.819249 359.4388,39.475117 375.26586,34.05959 389.2085,34.61828 Z"
     id="path1" />
  <style
     id="style1">
        path {
            fill: #824C76;
        }
    </style>
</svg>
