<svg width="64" height="64" viewBox="0 0 64 64" fill="none" xmlns="http://www.w3.org/2000/svg">
<path d="M32 62L57.975 46.98V16.964L32 2L6.02602 16.964H6.02502L32 31.984V62Z" fill="url(#paint0_linear_1725:872)"/>
<path d="M57.975 16.964L32 2L6.02602 16.964H6.02502L32 31.984L57.975 16.964Z" fill="url(#paint1_linear_1725:872)"/>
<path d="M57.975 16.964L32 2L6.02602 16.964H6.02502L32 31.984L57.975 16.964Z" fill="url(#paint2_linear_1725:872)"/>
<path d="M57.975 16.964L32 2L6.02602 16.964H6.02502L32 31.984L57.975 16.964Z" fill="url(#paint3_linear_1725:872)"/>
<path d="M6.026 46.9799V16.9639L32 31.9839L6.026 46.9799Z" fill="url(#paint4_linear_1725:872)"/>
<path d="M32 31.9844L6.026 46.9804L32 62.0004V31.9844Z" fill="url(#paint5_linear_1725:872)" style="mix-blend-mode:overlay"/>
<path d="M32 61.9999L57.975 46.9799V16.9639L32 31.9839V61.9999Z" fill="url(#paint6_linear_1725:872)"/>
<path d="M32 61.9999L57.975 46.9799V16.9639L32 31.9839V61.9999Z" fill="url(#paint7_linear_1725:872)"/>
<path d="M32 61.9999L57.975 46.9799V16.9639L32 31.9839V61.9999Z" fill="url(#paint8_linear_1725:872)"/>
<g opacity="0.8">
<path d="M25.028 27.9699L32 32V2L6 16.972L25.028 27.9699Z" fill="url(#paint9_linear_1725:872)" style="mix-blend-mode:overlay"/>
</g>
<defs>
<linearGradient id="paint0_linear_1725:872" x1="17.0683" y1="11.5629" x2="61.3962" y2="55.8908" gradientUnits="userSpaceOnUse">
<stop  offset="0" stop-color="#FDB60D"/>
<stop offset="0.54795" stop-color="#FF318C"/>
<stop offset="0.88765" stop-color="#6B57FF"/>
</linearGradient>
<linearGradient id="paint1_linear_1725:872" x1="25.5898" y1="28.0668" x2="28.4505" y2="23.112" gradientUnits="userSpaceOnUse">
<stop  offset="0" stop-color="white" stop-opacity="0.6"/>
<stop offset="0.08098" stop-color="#FFC524" stop-opacity="0.4"/>
<stop offset="0.70457" stop-color="#FFC524" stop-opacity="0"/>
</linearGradient>
<linearGradient id="paint2_linear_1725:872" x1="25.4334" y1="5.59024" x2="29.6963" y2="12.9738" gradientUnits="userSpaceOnUse">
<stop  offset="0" stop-color="#F9ED32" stop-opacity="0.6"/>
<stop offset="0.19796" stop-color="#FFC524" stop-opacity="0.4"/>
<stop offset="0.70457" stop-color="#FFC524" stop-opacity="0"/>
</linearGradient>
<linearGradient id="paint3_linear_1725:872" x1="38.9129" y1="4.99057" x2="37.0135" y2="8.28029" gradientUnits="userSpaceOnUse">
<stop  offset="0" stop-color="#FDB60D" stop-opacity="0.6"/>
<stop offset="0.23369" stop-color="#FDB60D" stop-opacity="0.4"/>
<stop offset="0.5185" stop-color="#FF318C" stop-opacity="0"/>
</linearGradient>
<linearGradient id="paint4_linear_1725:872" x1="6.02553" y1="31.972" x2="48.2774" y2="31.972" gradientUnits="userSpaceOnUse">
<stop offset="0.01477"/>
<stop offset="0.19258"/>
<stop offset="0.57156" stop-color="#6B57FF"/>
<stop offset="0.82576" stop-color="#FF318C"/>
</linearGradient>
<linearGradient id="paint5_linear_1725:872" x1="25.2369" y1="19.192" x2="18.7738" y2="55.8462" gradientUnits="userSpaceOnUse">
<stop offset="0.046628" stop-color="white" stop-opacity="0.86"/>
<stop offset="0.766654" stop-color="#CBCAA4" stop-opacity="0"/>
</linearGradient>
<linearGradient id="paint6_linear_1725:872" x1="32.0001" y1="39.4819" x2="38.997" y2="39.4819" gradientUnits="userSpaceOnUse">
<stop  offset="0" stop-color="#FFB2FF" stop-opacity="0.6"/>
<stop offset="0.08098" stop-color="#D828FF" stop-opacity="0.4"/>
<stop offset="0.70457" stop-color="#FF318C" stop-opacity="0"/>
</linearGradient>
<linearGradient id="paint7_linear_1725:872" x1="58.0814" y1="39.4819" x2="50.9352" y2="39.4819" gradientUnits="userSpaceOnUse">
<stop  offset="0" stop-color="#6644FF" stop-opacity="0.8"/>
<stop offset="0.09676" stop-color="#6B57FF" stop-opacity="0.4"/>
<stop offset="0.70457" stop-color="#FF318C" stop-opacity="0"/>
</linearGradient>
<linearGradient id="paint8_linear_1725:872" x1="51.8655" y1="51.3952" x2="49.8093" y2="47.8337" gradientUnits="userSpaceOnUse">
<stop offset="0.00572" stop-color="#FF318C"/>
<stop offset="0.46934" stop-color="#6B57FF" stop-opacity="0"/>
</linearGradient>
<linearGradient id="paint9_linear_1725:872" x1="18.9999" y1="2.93734" x2="18.9999" y2="20.5615" gradientUnits="userSpaceOnUse">
<stop offset="0.23873" stop-color="#FF5592" stop-opacity="0.65"/>
<stop offset="0.8289" stop-color="#FF57E4" stop-opacity="0"/>
</linearGradient>
</defs>
<path d="M56.1887 64H23.8113C21.7397 64 19.7528 63.1771 18.2879 61.7122C16.823 60.2473 16 58.2604 16 56.1887V47.8113C16 46.7855 16.202 45.7697 16.5946 44.822C16.9872 43.8743 17.5626 43.0132 18.2879 42.2878C19.0133 41.5625 19.8743 40.9872 20.8221 40.5946C21.7698 40.202 22.7855 40 23.8113 40H56.1887C58.2604 40 60.2472 40.8229 61.7121 42.2878C63.177 43.7527 64 45.7396 64 47.8113V56.1887C64 58.2604 63.177 60.2473 61.7121 61.7122C60.2472 63.1771 58.2604 64 56.1887 64Z" fill="#8F38E6"/>
<path d="M32.1019 54.2767V54.2451C32.1019 53.5077 31.9186 52.9336 31.5518 52.5228C31.1851 52.1015 30.6821 51.7697 30.0429 51.5274C30.242 51.4221 30.4254 51.2956 30.5931 51.1482C30.7712 51.0007 30.9231 50.8322 31.0489 50.6426C31.1851 50.4424 31.2899 50.2212 31.3632 49.9789C31.447 49.7367 31.489 49.4575 31.489 49.1415V49.1099C31.489 48.2356 31.1641 47.5404 30.5145 47.0242C29.8753 46.5081 28.9899 46.25 27.8582 46.25H22.75V57.3104H27.9839C28.6022 57.3104 29.1628 57.2472 29.6657 57.1208C30.1792 56.9944 30.614 56.8048 30.9703 56.552C31.337 56.2992 31.6147 55.9831 31.8033 55.6039C32.0024 55.2247 32.1019 54.7823 32.1019 54.2767ZM29.0842 49.5523C29.0842 49.9631 28.927 50.2633 28.6126 50.453C28.2983 50.632 27.8739 50.7216 27.3395 50.7216H25.1076V48.3831H27.4967C28.0101 48.3831 28.4031 48.4831 28.6755 48.6833C28.9479 48.8729 29.0842 49.152 29.0842 49.5207V49.5523ZM29.6972 53.9765C29.6972 54.3873 29.5452 54.6928 29.2413 54.8929C28.9375 55.0825 28.5183 55.1773 27.9839 55.1773H25.1076V52.744H27.9054C28.5341 52.744 28.9899 52.8546 29.2728 53.0758C29.5557 53.2865 29.6972 53.5762 29.6972 53.9449V53.9765Z" fill="white" fill-opacity="0.86"/>
<path d="M41.7003 53.3129V53.2813C41.7003 52.6808 41.6165 52.1067 41.4488 51.559C41.2917 51.0007 41.0402 50.5109 40.6944 50.0895C40.3591 49.6577 39.9347 49.3153 39.4213 49.0625C38.9078 48.8097 38.3001 48.6833 37.598 48.6833C36.9798 48.6833 36.414 48.7992 35.9005 49.0309C35.3976 49.2626 34.9627 49.5787 34.596 49.9789C34.2292 50.3792 33.9411 50.848 33.7315 51.3852C33.5324 51.9224 33.4329 52.4912 33.4329 53.0916V53.1232C33.4329 53.7763 33.5429 54.3715 33.763 54.9087C33.983 55.4354 34.2869 55.8936 34.6746 56.2834C35.0728 56.6731 35.539 56.9733 36.0734 57.184C36.6183 57.3947 37.2051 57.5 37.8338 57.5C38.5987 57.5 39.2641 57.3631 39.8299 57.0892C40.3958 56.8048 40.8778 56.415 41.2759 55.9199L39.9085 54.7033C39.5732 55.0088 39.2484 55.23 38.934 55.3669C38.6197 55.5039 38.2634 55.5723 37.8652 55.5723C37.3308 55.5723 36.8803 55.4354 36.5135 55.1615C36.1573 54.8771 35.9215 54.461 35.8062 53.9133H41.6689C41.6794 53.7974 41.6846 53.6973 41.6846 53.6131C41.6951 53.5288 41.7003 53.4287 41.7003 53.3129ZM39.3741 52.4122H35.7748C35.8691 51.8645 36.0682 51.4273 36.3721 51.1008C36.6864 50.7742 37.0951 50.611 37.598 50.611C38.101 50.611 38.5044 50.7795 38.8083 51.1166C39.1122 51.4431 39.3008 51.875 39.3741 52.4122Z" fill="white" fill-opacity="0.86"/>
<path d="M48.2118 56.9628V55.0351C47.8451 55.2353 47.4521 55.3353 47.033 55.3353C46.5195 55.3353 46.2628 55.0614 46.2628 54.5137V50.8954H48.2432V48.8413H46.2628V46.6766H43.8738V48.8413H42.8678V50.8954H43.8738V54.9087C43.8738 55.4038 43.9314 55.8146 44.0467 56.1412C44.1724 56.4572 44.34 56.7152 44.5496 56.9154C44.7697 57.1155 45.0264 57.2525 45.3198 57.3262C45.6236 57.4105 45.959 57.4526 46.3257 57.4526C46.7239 57.4526 47.0749 57.4052 47.3788 57.3104C47.6826 57.2261 47.9603 57.1103 48.2118 56.9628Z" fill="white" fill-opacity="0.86"/>
<path d="M57.25 57.3104V52.3964C57.25 51.2482 56.9514 50.3529 56.3541 49.7103C55.7568 49.0678 54.8033 48.7465 53.4935 48.7465C52.781 48.7465 52.1732 48.8097 51.6703 48.9361C51.1673 49.0625 50.6853 49.2258 50.2243 49.4259L50.8215 51.2588C51.2092 51.1113 51.576 51.0007 51.9218 50.927C52.278 50.8427 52.6867 50.8006 53.1477 50.8006C53.745 50.8006 54.1956 50.9322 54.4994 51.1956C54.8033 51.4589 54.9552 51.8434 54.9552 52.349V52.4912C54.6514 52.3859 54.337 52.3016 54.0122 52.2384C53.6978 52.1752 53.3259 52.1436 52.8962 52.1436C52.3933 52.1436 51.9322 52.2015 51.5131 52.3174C51.1044 52.4228 50.7482 52.586 50.4443 52.8072C50.1509 53.0284 49.9204 53.3076 49.7527 53.6447C49.5851 53.9817 49.5013 54.382 49.5013 54.8455V54.8771C49.5013 55.2985 49.5746 55.6724 49.7213 55.9989C49.8785 56.315 50.088 56.5836 50.35 56.8048C50.612 57.026 50.9158 57.1945 51.2616 57.3104C51.6179 57.4157 51.9951 57.4684 52.3933 57.4684C52.9801 57.4684 53.4778 57.3736 53.8864 57.184C54.2951 56.9838 54.6461 56.7205 54.9395 56.394V57.3104H57.25ZM54.9867 54.3241C54.9867 54.7665 54.8138 55.1246 54.468 55.3985C54.1327 55.6724 53.6821 55.8093 53.1163 55.8093C52.7286 55.8093 52.4142 55.7198 52.1732 55.5407C51.9322 55.3617 51.8117 55.1088 51.8117 54.7823V54.7507C51.8117 54.3715 51.9584 54.0818 52.2518 53.8817C52.5452 53.6815 52.9486 53.5815 53.4621 53.5815C53.7555 53.5815 54.0279 53.6131 54.2794 53.6763C54.5413 53.7289 54.7771 53.8027 54.9867 53.8975V54.3241Z" fill="white" fill-opacity="0.86"/>
</svg>