<svg width="64" height="64" viewBox="0 0 64 64" fill="none" xmlns="http://www.w3.org/2000/svg">
<path d="M8.6 57.8001L0 6.7001L16 0.100098L26.1 6.1001L35.5 1.1001L54.9 8.6001L44 64.0001L8.6 57.8001Z" fill="url(#paint0_linear)"/>
<path d="M35.5001 1.1001L26.1001 6.1001L28.9001 27.0001L34.6001 31.0001L36.4001 43.1001L42.8001 43.7001L37.9001 21.3001L35.5001 1.1001Z" fill="url(#paint1_linear)"/>
<path d="M28.8 29.1001L26.1 6.1001L16 0.100098L20.2 24.9001L21.8 40.3001L30.5 40.0001L29.8 36.1001L28.8 29.1001Z" fill="url(#paint2_linear)"/>
<path d="M8.6 57.8001L0 6.7001L16 0.100098L20.4 25.8001L8.6 57.8001Z" fill="url(#paint3_linear)"/>
<path d="M20.4 25.6001L16 0.100098L0 6.7001L17.8 22.2001L20.4 25.6001Z" fill="url(#paint4_linear)"/>
<path d="M8.6 57.7999L0 6.69995L17.8 22.2L35.5 45.7L8.6 57.7999Z" fill="url(#paint5_linear)"/>
<path d="M8.6001 57.7999L23.8001 46.8999L44.0001 63.9999L8.6001 57.7999Z" fill="url(#paint6_linear)"/>
<path d="M30.9 44.3L23.8 50.9001L44 64L47.5 46.2001L30.9 44.3Z" fill="url(#paint7_linear)"/>
<path d="M8.6001 57.7999L23.8001 50.8999L44.0001 63.9999L8.6001 57.7999Z" fill="url(#paint8_linear)"/>
<path d="M64.0001 21.7L55.7001 1.3L40.8001 0L17.6001 22.2L23.5001 50.9L35.9001 58.8L64.0001 42.1L57.0001 29L64.0001 21.7Z" fill="url(#paint9_linear)"/>
<path d="M42.5001 20.6L40.8001 0L17.6001 22.2L34.7001 27.5L42.5001 20.6Z" fill="url(#paint10_linear)"/>
<path d="M38.4001 2.19995L17.6001 22.2L34.7001 27.5L44.0001 37.5L41.0001 3.19995L38.4001 2.19995Z" fill="url(#paint11_linear)"/>
<path d="M34.7001 27.5L38.5001 24.1L37.9001 21.2999L35.9001 4.69995L27.1001 13.2L28.7001 25.7L34.7001 27.5Z" fill="url(#paint12_linear)"/>
<path d="M28.7 25.7L27 13.2L19.5 20.5L19.9 22.9L28.7 25.7Z" fill="url(#paint13_linear)"/>
<path d="M38.4001 2.19995L17.6001 22.2L41.0001 3.19995L38.4001 2.19995Z" fill="url(#paint14_linear)"/>
<path d="M36.2001 6.89995L35.9001 4.69995L27.1001 13.2L27.2001 14.3L36.2001 6.89995Z" fill="url(#paint15_linear)"/>
<path d="M27.1 14.4L27 13.2L19.5 20.5V20.7L27.1 14.4Z" fill="url(#paint16_linear)"/>
<path d="M49 14.6001L34.7 27.5001L35.9 58.8001L64 42.1001L57 29.0001L49 14.6001Z" fill="url(#paint17_linear)"/>
<path d="M42.6001 22.3001L43.8001 38.6001L64.0001 42.1001L57.0001 29.0001L52.9001 21.6001L42.6001 22.3001Z" fill="url(#paint18_linear)"/>
<path d="M42.6001 22.3001L43.8001 38.6001L47.0001 39.2001L57.0001 29.0001L52.9001 21.6001L42.6001 22.3001Z" fill="url(#paint19_linear)"/>
<path d="M34.7001 27.5L17.6001 22.2L23.5001 50.9L35.9001 58.7999L34.7001 27.5Z" fill="url(#paint20_linear)"/>
<path d="M29.0999 29.0999L28.5999 25.5999L19.8999 22.8999L20.1999 24.8999L23.0999 47.0999L23.4999 49.1999L32.5999 56.1999L29.0999 29.0999Z" fill="url(#paint21_linear)"/>
<path d="M23.5 50.9001L35.9 58.8L35.3 43.3L23.5 50.9001Z" fill="url(#paint22_linear)"/>
<path d="M48.9999 14.6L56.9999 29L63.9999 21.7001L55.6999 1.30005L45.3999 14.2L48.9999 14.6Z" fill="url(#paint23_linear)"/>
<path d="M52.8999 21.6001L56.9999 29.0001L63.9999 21.7001L52.8999 21.6001Z" fill="url(#paint24_linear)"/>
<path d="M17.6001 22.2L19.0001 28.9L17.6001 22.2Z" fill="url(#paint25_linear)"/>
<path d="M52 12H12V52H52V12Z" fill="url(#paint26_linear)"/>
<g opacity="0.3">
<path opacity="0.3" d="M28.7 27L30.2 39.6L34.8 45.8L42.7 43.7L37.8 21.3L36.6 12H26.7L28.7 27Z" fill="url(#paint27_linear)"/>
<g opacity="0.3">
<path opacity="0.3" d="M52 49.2001V20.0001L49 14.6001L34.7 27.5001L35.7 52.0001H47.2999L52 49.2001Z" fill="url(#paint28_linear)"/>
<path opacity="0.3" d="M51.9999 12H47.0999L45.3999 14.2L48.9999 14.6L51.9999 20V12Z" fill="url(#paint29_linear)"/>
</g>
<path opacity="0.3" d="M20.2 24.9L23.8 51.2L30.5 40L29.8 36.1L28.8 29.1L26.8 12H18L20.2 24.9Z" fill="url(#paint30_linear)"/>
<path opacity="0.3" d="M49.0001 14.6L45.4001 14.2L47.1001 12H28.3001L17.6001 22.2L23.5001 50.9L25.3001 52H35.7001L34.7001 27.5L49.0001 14.6Z" fill="url(#paint31_linear)"/>
<path opacity="0.3" d="M12 17.2L17.8 22.2L20.4 25.6L18 12H12V17.2Z" fill="url(#paint32_linear)"/>
<g opacity="0.3">
<path opacity="0.3" d="M12 17.2V52H21.6L23.8 50.9L17.8 22.2L12 17.2Z" fill="url(#paint33_linear)"/>
</g>
</g>
<path d="M32 44.45H17V46.95H32V44.45Z" fill="white"/>
<path d="M31.2001 16.9001L29.0001 25.6001L26.4001 16.9001H23.9001L21.3001 25.6001L19.1001 16.9001H15.6001L19.9001 31.9001H22.7001L25.1001 23.2001L27.6001 31.9001H30.4001L34.7001 16.9001H31.2001Z" fill="white"/>
<path d="M35.3 29.7L37.3 27.4C38.7 28.5 40.1 29.2 41.8 29.2C43.2 29.2 44 28.7 44 27.8C44 27 43.5 26.5 41 25.9C38 25.1 36 24.3 36 21.3C36 18.6 38.2 16.8 41.3 16.8C43.5 16.8 45.4001 17.5 46.9001 18.7L45 21.1C43.7 20.2 42.4 19.6 41.1 19.6C39.8001 19.6 39.2001 20.2 39.2001 20.9C39.2001 21.9 39.8 22.2 42.4 22.9C45.5 23.7 47.2001 24.8 47.2001 27.4C47.2001 30.4 44.9001 32.1 41.7001 32.1C39.4001 32.2 37.1 31.4 35.3 29.7Z" fill="white"/>
<defs>
<linearGradient id="paint0_linear" x1="22.9189" y1="1.3349" x2="39.4815" y2="60.9601" gradientUnits="userSpaceOnUse">
<stop offset="0.2849" stop-color="#07C3F2"/>
<stop offset="0.9409" stop-color="#087CFA"/>
</linearGradient>
<linearGradient id="paint1_linear" x1="28.4221" y1="-2.0575" x2="37.0493" y2="35.0848" gradientUnits="userSpaceOnUse">
<stop offset="0.0669317" stop-color="#42FFFA"/>
<stop offset="0.3409" stop-color="#07C3F2"/>
<stop offset="0.9409" stop-color="#087CFA"/>
</linearGradient>
<linearGradient id="paint2_linear" x1="13.9113" y1="-1.9686" x2="27.4469" y2="32.0067" gradientUnits="userSpaceOnUse">
<stop offset="0.2849" stop-color="#07C3F2"/>
<stop offset="0.9409" stop-color="#087CFA"/>
</linearGradient>
<linearGradient id="paint3_linear" x1="3.6813" y1="-6.008" x2="18.3021" y2="53.3834" gradientUnits="userSpaceOnUse">
<stop offset="0.0669317" stop-color="#42FFFA"/>
<stop offset="0.3409" stop-color="#07C3F2"/>
<stop offset="0.9409" stop-color="#087CFA"/>
</linearGradient>
<linearGradient id="paint4_linear" x1="9.0556" y1="17.3499" x2="13.4509" y2="12.8031" gradientUnits="userSpaceOnUse">
<stop offset="0.00971316" stop-color="#42FFFA"/>
<stop offset="0.9216" stop-color="#07C3F2" stop-opacity="0"/>
</linearGradient>
<linearGradient id="paint5_linear" x1="-15.9882" y1="19.2239" x2="27.2386" y2="47.0124" gradientUnits="userSpaceOnUse">
<stop offset="0.1985" stop-color="#07C3F2"/>
<stop offset="0.9403" stop-color="#087CFA"/>
</linearGradient>
<linearGradient id="paint6_linear" x1="0.210797" y1="54.4603" x2="25.0934" y2="55.1868" gradientUnits="userSpaceOnUse">
<stop offset="0.1291" stop-color="#1D53B8"/>
<stop offset="0.8696" stop-color="#087CFA"/>
</linearGradient>
<linearGradient id="paint7_linear" x1="34.515" y1="44.3264" x2="39.9077" y2="63.7401" gradientUnits="userSpaceOnUse">
<stop offset="0.2771" stop-color="#087BFA"/>
<stop offset="0.6826" stop-color="#085DFA"/>
</linearGradient>
<linearGradient id="paint8_linear" x1="22.7829" y1="32.3064" x2="26.597" y2="63.1826" gradientUnits="userSpaceOnUse">
<stop offset="0.5232" stop-color="#087BFA"/>
<stop offset="0.9771" stop-color="#086DFA"/>
</linearGradient>
<linearGradient id="paint9_linear" x1="27.9823" y1="8.9712" x2="56.0006" y2="50.0564" gradientUnits="userSpaceOnUse">
<stop offset="0.1286" stop-color="#FCF84A"/>
<stop offset="0.4986" stop-color="#07C3F2"/>
</linearGradient>
<linearGradient id="paint10_linear" x1="40.297" y1="-0.2663" x2="37.5612" y2="5.5272" gradientUnits="userSpaceOnUse">
<stop  offset="0" stop-color="#73A4AA"/>
<stop offset="0.6751" stop-color="#FCF84A"/>
</linearGradient>
<linearGradient id="paint11_linear" x1="26.063" y1="-9.44045" x2="35.8518" y2="57.0967" gradientUnits="userSpaceOnUse">
<stop offset="0.1786" stop-color="#FCF84A"/>
<stop offset="0.8591" stop-color="#07C3F2"/>
</linearGradient>
<linearGradient id="paint12_linear" x1="29.6246" y1="3.66915" x2="37.0949" y2="35.8308" gradientUnits="userSpaceOnUse">
<stop offset="0.1787" stop-color="#FCF84A"/>
<stop offset="0.9725" stop-color="#12C6EC"/>
</linearGradient>
<linearGradient id="paint13_linear" x1="21.6828" y1="14.4588" x2="27.7795" y2="27.1483" gradientUnits="userSpaceOnUse">
<stop offset="0.1286" stop-color="#FCF84A"/>
<stop offset="0.9414" stop-color="#07C3F2"/>
</linearGradient>
<linearGradient id="paint14_linear" x1="27.1025" y1="-2.43135" x2="31.6968" y2="28.7972" gradientUnits="userSpaceOnUse">
<stop offset="0.1786" stop-color="#FCF84A"/>
<stop offset="0.8591" stop-color="#07C3F2"/>
</linearGradient>
<linearGradient id="paint15_linear" x1="30.5318" y1="5.07935" x2="33.0551" y2="15.9429" gradientUnits="userSpaceOnUse">
<stop offset="0.1787" stop-color="#D3FF8C"/>
<stop offset="0.8762" stop-color="#12C6EC"/>
</linearGradient>
<linearGradient id="paint16_linear" x1="22.3306" y1="15.0867" x2="24.1018" y2="18.7733" gradientUnits="userSpaceOnUse">
<stop offset="0.1286" stop-color="#FCF84A"/>
<stop offset="0.9414" stop-color="#07C3F2"/>
</linearGradient>
<linearGradient id="paint17_linear" x1="34.3602" y1="24.7686" x2="52.5936" y2="51.5055" gradientUnits="userSpaceOnUse">
<stop  offset="0" stop-color="#07C3F2"/>
<stop offset="0.906" stop-color="#00A0FF"/>
</linearGradient>
<linearGradient id="paint18_linear" x1="60.8028" y1="31.2328" x2="37.918" y2="34.1388" gradientUnits="userSpaceOnUse">
<stop  offset="0" stop-color="#07C3F2"/>
<stop offset="1" stop-color="#0895F7"/>
</linearGradient>
<linearGradient id="paint19_linear" x1="55.7227" y1="29.3388" x2="39.0247" y2="31.4592" gradientUnits="userSpaceOnUse">
<stop  offset="0" stop-color="#07C3F2"/>
<stop offset="1" stop-color="#0895F7"/>
</linearGradient>
<linearGradient id="paint20_linear" x1="15.0193" y1="18.5194" x2="38.7204" y2="53.2739" gradientUnits="userSpaceOnUse">
<stop offset="0.080633" stop-color="#FCF84A"/>
<stop offset="0.5708" stop-color="#07C3F2"/>
</linearGradient>
<linearGradient id="paint21_linear" x1="17.7155" y1="20.027" x2="35.8444" y2="57.7605" gradientUnits="userSpaceOnUse">
<stop offset="0.1286" stop-color="#FCF84A"/>
<stop offset="0.4216" stop-color="#07C3F2"/>
</linearGradient>
<linearGradient id="paint22_linear" x1="22.9508" y1="42.6721" x2="38.3655" y2="53.1083" gradientUnits="userSpaceOnUse">
<stop offset="0.09347" stop-color="#087CFA"/>
<stop offset="0.6584" stop-color="#07C3F2"/>
</linearGradient>
<linearGradient id="paint23_linear" x1="50.0014" y1="1.32285" x2="57.9102" y2="29.3332" gradientUnits="userSpaceOnUse">
<stop  offset="0" stop-color="#FCF84A"/>
<stop offset="0.4651" stop-color="#07C3F2"/>
<stop offset="0.9409" stop-color="#087CFA"/>
</linearGradient>
<linearGradient id="paint24_linear" x1="67.0916" y1="23.5191" x2="43.662" y2="26.97" gradientUnits="userSpaceOnUse">
<stop  offset="0" stop-color="#0863FA"/>
<stop offset="0.9409" stop-color="#1AC8FB"/>
</linearGradient>
<linearGradient id="paint25_linear" x1="16.5548" y1="22.9887" x2="20.2428" y2="28.3965" gradientUnits="userSpaceOnUse">
<stop offset="0.1286" stop-color="#FCF84A"/>
<stop offset="0.4216" stop-color="#07C3F2"/>
</linearGradient>
<linearGradient id="paint26_linear" x1="10.9954" y1="10.1836" x2="46.0048" y2="46.546" gradientUnits="userSpaceOnUse">
<stop  offset="0" stop-color="#006396"/>
<stop offset="0.0470796" stop-color="#005682"/>
<stop offset="0.1677" stop-color="#003754"/>
<stop offset="0.2832" stop-color="#001F2F"/>
<stop offset="0.3905" stop-color="#000E15"/>
<stop offset="0.4867" stop-color="#000406"/>
<stop offset="0.5623"/>
<stop offset="0.9138"/>
</linearGradient>
<linearGradient id="paint27_linear" x1="29.1698" y1="7.5805" x2="36.1049" y2="37.4377" gradientUnits="userSpaceOnUse">
<stop offset="0.0669317" stop-color="#42FFFA"/>
<stop offset="0.3409" stop-color="#07C3F2"/>
<stop offset="0.9409" stop-color="#0838AF"/>
</linearGradient>
<linearGradient id="paint28_linear" x1="35.8383" y1="23.7558" x2="53.5593" y2="49.7414" gradientUnits="userSpaceOnUse">
<stop offset="0.1825" stop-color="#07C3F2"/>
<stop offset="0.906" stop-color="#00171C"/>
</linearGradient>
<linearGradient id="paint29_linear" x1="48.1538" y1="11.1923" x2="50.7873" y2="20.5192" gradientUnits="userSpaceOnUse">
<stop  offset="0" stop-color="#FCF84A"/>
<stop offset="0.4651" stop-color="#07C3F2"/>
<stop offset="0.9409" stop-color="#087CFA"/>
</linearGradient>
<linearGradient id="paint30_linear" x1="16.6857" y1="9.917" x2="28.9918" y2="40.806" gradientUnits="userSpaceOnUse">
<stop offset="0.0167591" stop-color="#086DFA"/>
<stop offset="1" stop-color="#08328E"/>
</linearGradient>
<linearGradient id="paint31_linear" x1="33.9138" y1="10.125" x2="30.7779" y2="53.8918" gradientUnits="userSpaceOnUse">
<stop offset="0.0186027" stop-color="#00FE80"/>
<stop offset="0.3413" stop-color="#21DE9B"/>
<stop offset="0.9563" stop-color="#0770B1"/>
</linearGradient>
<linearGradient id="paint32_linear" x1="11.2741" y1="2.7406" x2="21.3885" y2="34.7979" gradientUnits="userSpaceOnUse">
<stop offset="0.1985" stop-color="#07C3F2"/>
<stop offset="0.9403" stop-color="#0845D7"/>
</linearGradient>
<linearGradient id="paint33_linear" x1="6.0432" y1="20.4878" x2="23.749" y2="53.7281" gradientUnits="userSpaceOnUse">
<stop  offset="0" stop-color="#07C3F2"/>
<stop offset="0.9409" stop-color="#0838AF"/>
</linearGradient>
</defs>
</svg>
