<?xml version="1.0" standalone="no"?>
<!DOCTYPE svg PUBLIC "-//W3C//DTD SVG 20010904//EN"
 "http://www.w3.org/TR/2001/REC-SVG-20010904/DTD/svg10.dtd">
<svg version="1.0" xmlns="http://www.w3.org/2000/svg"
 width="700.000000pt" height="700.000000pt" viewBox="0 0 700.000000 700.000000"
 preserveAspectRatio="xMidYMid meet">
<metadata>
Created by potrace 1.14, written by Peter Selinger 2001-2017
</metadata>
<g transform="translate(0.000000,700.000000) scale(0.100000,-0.100000)"
fill="#000000" stroke="none">
<path d="M1108 6415 c-2 -2 -21 -5 -44 -8 -106 -15 -238 -88 -327 -181 -58
-62 -123 -188 -141 -276 -10 -50 -13 -210 -12 -710 l2 -645 23 -48 c111 -226
421 -225 532 1 l23 47 2 613 c0 421 4 616 11 620 6 4 276 7 600 6 638 -1 650
0 723 54 52 38 70 61 98 121 65 141 0 311 -146 382 l-47 23 -647 2 c-356 0
-649 0 -650 -1z"/>
<path d="M4598 6408 c-80 -17 -156 -81 -194 -164 -75 -161 14 -354 184 -398
35 -10 200 -13 640 -12 339 1 596 -3 599 -8 3 -5 7 -282 8 -615 1 -476 4 -614
15 -641 60 -159 242 -237 390 -168 89 42 137 96 163 184 12 41 14 158 12 699
-2 707 -1 684 -60 806 -23 49 -111 169 -123 169 -4 0 -21 13 -38 29 -37 35
-127 82 -204 106 -50 16 -114 18 -705 20 -357 1 -667 -2 -687 -7z"/>
<path d="M1940 5233 c-28 -10 -66 -37 -102 -73 -93 -93 -89 -61 -86 -806 l3
-639 24 -48 c31 -60 81 -110 140 -139 l46 -23 660 0 660 0 47 24 c61 31 111
81 140 139 l23 47 0 660 0 660 -23 46 c-29 59 -82 112 -141 141 l-46 23 -650
2 c-571 1 -655 0 -695 -14z"/>
<path d="M4305 5241 c-87 -24 -152 -77 -192 -159 l-28 -57 0 -360 1 -360 24
-50 c31 -63 82 -114 145 -145 50 -24 50 -24 410 -24 344 -1 362 0 406 20 67
31 115 79 148 147 l30 62 0 347 c0 395 -1 405 -76 488 -85 95 -85 95 -488 97
-192 1 -363 -2 -380 -6z"/>
<path d="M3703 3486 c-54 -17 -113 -60 -146 -107 -58 -81 -57 -64 -54 -768 2
-645 2 -646 24 -691 29 -59 79 -110 139 -140 l49 -25 660 0 660 0 45 22 c59
29 110 79 140 139 l25 49 0 660 0 660 -23 47 c-29 59 -83 113 -142 141 -45 22
-49 22 -690 24 -509 2 -654 -1 -687 -11z"/>
<path d="M1969 2905 c-84 -21 -148 -73 -191 -155 -23 -44 -23 -51 -26 -394 -3
-304 -1 -356 13 -400 22 -67 60 -118 115 -154 80 -52 96 -54 475 -50 l350 3
51 27 c60 31 109 84 138 147 20 44 20 62 20 406 l0 360 -24 50 c-31 63 -85
117 -147 146 -46 21 -59 22 -389 24 -228 1 -355 -2 -385 -10z"/>
<path d="M804 2614 c-114 -34 -188 -109 -212 -219 -5 -23 -8 -331 -7 -685 2
-705 0 -682 62 -805 72 -142 194 -245 350 -296 67 -22 76 -22 718 -24 706 -2
712 -2 785 53 50 38 68 60 97 122 67 139 4 305 -145 381 l-47 24 -614 1 c-557
1 -615 2 -620 17 -3 9 -5 276 -4 594 1 632 0 648 -56 725 -71 97 -200 144
-307 112z"/>
<path d="M6067 2618 c-74 -16 -132 -54 -179 -118 -52 -72 -51 -62 -53 -713 -1
-334 -5 -610 -8 -614 -4 -3 -278 -7 -609 -8 -332 0 -616 -5 -633 -9 -53 -15
-129 -73 -162 -124 -55 -84 -62 -184 -19 -278 39 -85 110 -142 202 -162 22 -5
330 -8 685 -8 l644 2 78 27 c153 53 270 154 338 292 66 133 66 135 65 855 l-2
645 -23 48 c-60 123 -197 193 -324 165z"/>
</g>
</svg>
