<?xml version="1.0" encoding="UTF-8" standalone="no"?>
<svg
  viewBox="0 0 256 256"
  width="400"
  height="400"
  xmlns="http://www.w3.org/2000/svg">
  <g
    id="g1"
    transform="matrix(0.625,0,0,0.625,48,48)">
    <path
      d="m 165.65,37.65 c 0,20.79 -16.05,11.93 -36.84,11.93 -20.79,0 -38.45,8.87 -38.45,-11.93 C 90.35,16.86 107.21,0 128,0 c 20.79,0 37.65,16.86 37.65,37.65 z"
      fill="#ffffff"
      style="opacity:0.8"
      id="path1"/>
    <path
      d="M 37.65,198.68 H 218.36 V 256 H 37.65 Z"
      stroke-width="0.46"
      fill="#ffffff"
      style="opacity:0.8"
      id="path2"/>
    <path
      d="m 0,97.88 h 29.86 v 60.24 H 0 Z"
      stroke-width="0.27"
      fill="#ffffff"
      style="opacity:0.8"
      id="path3"/>
    <path
      d="M 229.36,97.88 H 256 v 60.24 h -26.64 z"
      stroke-width="0.25"
      fill="#ffffff"
      style="opacity:0.8"
      id="path4"/>
    <path
      d="m 222.12,128 c 0,-26.59 -11.09,-50.63 -28.87,-67.76 H 62.75 C 44.97,77.37 33.88,101.41 33.88,128 c 0,26.59 11.09,50.63 28.87,67.76 h 130.5 c 17.78,-17.13 28.87,-41.17 28.87,-67.76 z"
      fill="#ffffff"
      style="opacity:0.2"
      id="path5"/>
    <path
      d="M 128,11.29 C 63.65,11.29 11.29,63.65 11.29,128 11.29,192.35 63.65,244.71 128,244.71 192.35,244.71 244.71,192.35 244.71,128 244.71,63.65 192.35,11.29 128,11.29 Z M 62.76,60.24 h 130.48 c 17.79,17.13 28.88,41.17 28.88,67.76 0,26.59 -11.09,50.63 -28.88,67.77 H 62.76 C 44.97,178.63 33.88,154.59 33.88,128 c 0,-26.59 11.09,-50.63 28.88,-67.76 z"
      fill="#ffffff"
      id="path6"/>
    <path
      d="M 68.91,168.27 C 60.77,156.42 56.47,142.49 56.47,128 c 0,-14.49 4.3,-28.42 12.44,-40.27 l 18.63,12.78 c -5.54,8.08 -8.47,17.58 -8.47,27.49 0,9.91 2.93,19.42 8.47,27.49 z"
      fill="#ffffff"
      style="opacity:0.6"
      id="path7"/>
  </g>
  <style
    id="style1">
    svg {
    background: #1d3461;
    }
  </style>
</svg>
