<svg version="1.1" id="Layer_1" xmlns="http://www.w3.org/2000/svg" viewBox="0 0 512 512">
  <path style="fill:#2A4B8C;"
        d="M187.077,49.231v19.694c0,38.065,30.858,68.922,68.923,68.922s0-88.615,0-88.615H187.077z"/>
  <path style="fill:#1D3461;" d="M256,49.231c0,0,0,53.826,0,88.615c38.065,0,68.923-30.857,68.923-68.922V49.231H256z"/>
  <path style="fill:#2A4B8C;"
        d="M187.077,462.769v-19.694c0-38.065,30.858-68.922,68.923-68.922s0,88.615,0,88.615H187.077z"/>
  <path style="fill:#1D3461;" d="M256,462.769c0,0,0-53.826,0-88.615c38.065,0,68.923,30.857,68.923,68.922v19.694H256z"/>
  <rect x="32.821" y="190.359" style="fill:#819ED9;" width="157.538" height="131.282"/>
  <rect x="334.769" y="190.359" style="fill:#819ED9;" width="157.538" height="131.282"/>
  <path style="fill:#1D3461;"
        d="M315.077,164.103v183.795H512V164.103H315.077z M354.462,203.487h39.385v105.026h-39.385V203.487z M472.615,308.513h-39.385V203.487h39.385V308.513z"/>
  <path style="fill:#2A4B8C;"
        d="M0,164.103v183.795h196.923V164.103H0z M78.769,308.513H39.385V203.487h39.385V308.513z M157.538,308.513h-39.385V203.487h39.385V308.513z"/>
  <rect x="157.538" y="131.282" style="fill:#D5DFF2;" width="196.923" height="249.436"/>
  <rect x="256" y="131.282" style="fill:#ABBFE6;" width="98.462" height="249.436"/>
  <circle style="fill:#1D3461;" cx="256" cy="256" r="26.256"/>
</svg>
