<?xml version="1.0" encoding="UTF-8"?>
<svg id="Layer_1" xmlns="http://www.w3.org/2000/svg" viewBox="0 0 1460.31 400">
  <defs>
    <style>.cls-1{fill:none;}.cls-1,.cls-2,.cls-3,.cls-4{stroke-width:0px;}.cls-3{fill:#fff;}.cls-4{fill:#e95420;}
    </style>
  </defs>
  <path class="cls-2" d="m318.1,350.21v-176.07h19.82v158.79h82.32v17.28h-102.13Z"/>
  <path class="cls-2"
        d="m485.96,353c-9.49,0-17.96-1.36-25.41-4.07-7.46-2.71-13.3-7.11-17.53-13.21-4.24-6.1-6.35-14.14-6.35-24.14s2.37-17.49,7.11-23.5c4.74-6.01,11.31-10.37,19.69-13.08,8.38-2.71,17.82-4.07,28.33-4.07,4.74,0,9.74.43,14.99,1.27,5.25.85,8.55,1.61,9.91,2.29v-7.62c0-5.76-.72-11.31-2.16-16.64-1.44-5.34-4.36-9.7-8.76-13.08-4.41-3.39-11.1-5.08-20.07-5.08s-16.43.68-21.34,2.03c-4.91,1.36-8.55,2.46-10.92,3.3l-2.54-16.26c3.05-1.35,7.71-2.62,13.97-3.81,6.26-1.18,13.63-1.78,22.1-1.78,12.02,0,21.55,2.12,28.58,6.35,7.03,4.23,12.11,10.04,15.24,17.4,3.13,7.37,4.7,15.8,4.7,25.28v82.57c-3.56.85-9.91,2.03-19.05,3.56-9.15,1.52-19.31,2.29-30.49,2.29Zm2.79-16.26c5.93,0,11.26-.21,16.01-.63,4.74-.42,8.72-.97,11.94-1.65v-44.21c-1.7-.85-4.57-1.69-8.64-2.54-4.06-.85-9.32-1.27-15.75-1.27-5.42,0-10.92.6-16.51,1.78-5.59,1.19-10.29,3.56-14.1,7.11-3.81,3.56-5.72,8.89-5.72,16.01,0,9.49,2.96,16.09,8.89,19.82,5.93,3.73,13.89,5.59,23.88,5.59Z"/>
  <path class="cls-2"
        d="m570.51,350.21v-127.03c5.25-1.35,12.11-2.88,20.58-4.57,8.47-1.69,18.63-2.54,30.49-2.54,13.72,0,24.39,2.54,32.01,7.62,7.62,5.08,13,12.16,16.13,21.21,3.13,9.06,4.7,19.61,4.7,31.63v73.68h-19.05v-68.34c0-12.03-1.1-21.6-3.3-28.71-2.2-7.12-5.93-12.28-11.18-15.5-5.25-3.22-12.54-4.83-21.85-4.83-7.11,0-13.38.43-18.8,1.27-5.42.85-8.98,1.52-10.67,2.03v114.08h-19.05Z"/>
  <path class="cls-2"
        d="m767.23,353.26c-12.87,0-24.22-2.76-34.04-8.26-9.83-5.5-17.45-13.38-22.87-23.63-5.42-10.25-8.13-22.49-8.13-36.71s2.33-25.49,6.99-35.82c4.66-10.33,11.43-18.42,20.33-24.26,8.89-5.84,19.6-8.77,32.14-8.77,8.13,0,15.28,1.14,21.47,3.43,6.18,2.29,10.8,4.53,13.85,6.73v-69.61l18.8-3.3v193.09c-3.22,1.02-7.2,2.08-11.94,3.18-4.74,1.1-10.12,2.03-16.13,2.79-6.01.76-12.83,1.14-20.45,1.14Zm.25-17.02c7.45,0,13.59-.38,18.42-1.14s8.51-1.48,11.05-2.16v-89.18c-2.88-2.37-7.28-4.78-13.21-7.24-5.93-2.45-12.62-3.68-20.07-3.68s-14.1,1.31-19.44,3.94c-5.34,2.63-9.65,6.31-12.96,11.05-3.3,4.74-5.68,10.25-7.11,16.51-1.44,6.27-2.16,12.96-2.16,20.07,0,11.01,1.91,20.37,5.72,28.07,3.81,7.71,9.15,13.59,16.01,17.66,6.86,4.07,14.78,6.1,23.76,6.1Z"/>
  <path class="cls-2"
        d="m880.44,353.26c-11.35,0-20.2-.98-26.55-2.92s-10.63-3.43-12.83-4.45l4.57-16.77c1.86.68,5.67,2.12,11.43,4.32,5.76,2.2,13.55,3.3,23.37,3.3,9.31,0,16.85-1.44,22.61-4.32,5.76-2.88,8.64-7.88,8.64-14.99,0-4.57-1.02-8.26-3.05-11.05-2.03-2.79-5.3-5.38-9.78-7.75-4.49-2.37-10.63-5.08-18.42-8.13-6.61-2.71-12.7-5.59-18.29-8.64s-10.12-6.94-13.59-11.69c-3.47-4.74-5.21-10.84-5.21-18.29s1.86-13.63,5.59-19.05c3.72-5.42,9.02-9.65,15.88-12.7,6.86-3.05,15.03-4.57,24.52-4.57,8.81,0,16.26.76,22.36,2.29,6.1,1.53,10.42,2.88,12.96,4.07l-4.32,16.51c-2.2-1.18-5.76-2.58-10.67-4.19-4.91-1.61-11.86-2.41-20.83-2.41-7.11,0-13.3,1.48-18.55,4.45-5.25,2.97-7.88,7.67-7.88,14.1,0,4.57,1.1,8.26,3.3,11.05,2.2,2.79,5.5,5.3,9.91,7.5,4.4,2.2,9.82,4.57,16.26,7.11,7.28,2.88,13.85,5.89,19.69,9.02,5.84,3.14,10.54,7.16,14.1,12.07,3.56,4.91,5.33,11.43,5.33,19.56s-2.03,14.7-6.1,20.2c-4.06,5.51-9.87,9.62-17.4,12.32-7.54,2.71-16.56,4.07-27.06,4.07Z"/>
  <path class="cls-2"
        d="m1013.47,353c-13.89,0-25.49-2.84-34.81-8.51-9.32-5.67-16.35-13.68-21.09-24.01-4.74-10.33-7.11-22.27-7.11-35.82s2.45-25.74,7.37-36.08c4.91-10.33,11.98-18.42,21.21-24.26,9.23-5.84,20.2-8.76,32.9-8.76,6.94,0,13.55.6,19.82,1.78,6.26,1.19,11.18,2.71,14.74,4.57l-4.83,16.01c-3.39-1.53-7.2-2.79-11.43-3.81-4.24-1.02-9.83-1.53-16.77-1.53-14.06,0-24.77,4.57-32.14,13.72-7.37,9.14-11.05,21.94-11.05,38.36,0,10.16,1.52,19.1,4.57,26.8,3.05,7.71,7.96,13.72,14.74,18.04,6.77,4.32,15.75,6.48,26.93,6.48,6.61,0,12.41-.76,17.4-2.29,4.99-1.52,8.68-2.88,11.05-4.06l3.81,16.26c-3.22,1.7-8.13,3.3-14.74,4.83-6.61,1.52-13.46,2.29-20.58,2.29Z"/>
  <path class="cls-2"
        d="m1113.37,353c-9.49,0-17.96-1.36-25.41-4.07-7.46-2.71-13.3-7.11-17.53-13.21-4.24-6.1-6.35-14.14-6.35-24.14s2.37-17.49,7.11-23.5c4.74-6.01,11.31-10.37,19.69-13.08,8.38-2.71,17.82-4.07,28.33-4.07,4.74,0,9.74.43,14.99,1.27,5.25.85,8.55,1.61,9.91,2.29v-7.62c0-5.76-.72-11.31-2.16-16.64-1.44-5.34-4.36-9.7-8.76-13.08-4.41-3.39-11.1-5.08-20.07-5.08s-16.43.68-21.34,2.03c-4.91,1.36-8.55,2.46-10.92,3.3l-2.54-16.26c3.05-1.35,7.71-2.62,13.97-3.81,6.26-1.18,13.63-1.78,22.1-1.78,12.02,0,21.55,2.12,28.58,6.35,7.03,4.23,12.11,10.04,15.24,17.4,3.13,7.37,4.7,15.8,4.7,25.28v82.57c-3.56.85-9.91,2.03-19.05,3.56-9.15,1.52-19.31,2.29-30.49,2.29Zm2.79-16.26c5.93,0,11.26-.21,16.01-.63,4.74-.42,8.72-.97,11.94-1.65v-44.21c-1.7-.85-4.57-1.69-8.64-2.54-4.06-.85-9.32-1.27-15.75-1.27-5.42,0-10.92.6-16.51,1.78-5.59,1.19-10.29,3.56-14.1,7.11-3.81,3.56-5.72,8.89-5.72,16.01,0,9.49,2.96,16.09,8.89,19.82,5.93,3.73,13.89,5.59,23.88,5.59Z"/>
  <path class="cls-2"
        d="m1197.92,397.21v-174.04c3.39-1.18,7.41-2.29,12.07-3.3,4.66-1.02,10.04-1.91,16.13-2.67s12.87-1.14,20.33-1.14c13.04,0,24.47,2.75,34.3,8.26,9.82,5.51,17.44,13.38,22.87,23.63,5.42,10.25,8.13,22.48,8.13,36.71,0,13.38-2.33,25.24-6.99,35.57-4.66,10.33-11.39,18.42-20.2,24.26-8.81,5.84-19.56,8.77-32.27,8.77-8.13,0-15.29-1.14-21.47-3.43-6.19-2.29-10.8-4.53-13.85-6.73v54.12h-19.05Zm52.08-60.98c7.62,0,14.1-1.31,19.44-3.94,5.34-2.62,9.66-6.31,12.96-11.05,3.3-4.74,5.67-10.2,7.11-16.39,1.44-6.18,2.16-12.83,2.16-19.94,0-11.01-1.87-20.41-5.59-28.2-3.73-7.79-9.02-13.72-15.88-17.79s-14.86-6.1-24.01-6.1c-7.46,0-13.59.38-18.42,1.14-4.83.76-8.43,1.48-10.8,2.16v89.18c2.88,2.2,7.28,4.57,13.21,7.11,5.93,2.54,12.53,3.81,19.82,3.81Z"/>
  <path class="cls-2"
        d="m1399.08,353c-15.42,0-27.91-2.96-37.47-8.89-9.57-5.93-16.6-14.06-21.09-24.39-4.49-10.33-6.73-22.1-6.73-35.31,0-15.41,2.79-28.2,8.38-38.37,5.59-10.16,12.83-17.78,21.72-22.87s18.25-7.62,28.07-7.62c11.01,0,20.54,2.33,28.58,6.99,8.04,4.66,14.27,11.77,18.67,21.34,4.4,9.57,6.61,21.72,6.61,36.46,0,1.19-.04,2.59-.13,4.19-.09,1.61-.21,3.09-.38,4.45h-91.72c.68,14.91,4.7,26.47,12.07,34.68,7.37,8.22,18.84,12.32,34.43,12.32,8.64,0,15.71-.8,21.21-2.41,5.5-1.61,9.44-3,11.81-4.19l3.3,16.01c-2.37,1.36-6.99,2.96-13.85,4.83-6.86,1.86-14.7,2.79-23.5,2.79Zm-44.97-79.52h72.41c-.17-8.64-1.61-16.04-4.32-22.23-2.71-6.18-6.57-10.92-11.56-14.23-5-3.3-11.14-4.96-18.42-4.96s-13.97,1.95-19.56,5.84c-5.59,3.9-9.95,8.98-13.08,15.24-3.14,6.27-4.95,13.04-5.46,20.32Z"/>
  <rect class="cls-4" width="254" height="400"/>
  <path class="cls-3"
        d="m192.26,309.63h-76.3c-.22,0-.43.09-.58.24-.15.16-.24.37-.24.59l.12,12.44c0,.45.37.81.82.81h61.63v12.87h-75.09v-156.37c0-.45-.37-.82-.82-.82h-40.07c-.45,0-.82.37-.82.82v169.57c0,.45.37.82.82.82h13c.22,0,.43-.09.58-.24.15-.15.24-.36.24-.58l-.16-156.87,13.25-.15-.48,156.33c0,.22.09.43.24.58.15.16.36.24.58.24h103.28c.45,0,.82-.37.82-.82v-38.64c0-.45-.37-.82-.82-.82Z"/>
  <rect class="cls-1" x="30.25" y="169.38" width="193.57" height="193.57"/>
</svg>
