<?xml version="1.0" encoding="UTF-8"?>
<svg id="Layer_1" xmlns="http://www.w3.org/2000/svg" viewBox="0 0 1121.72 400">
  <defs>
    <style>.cls-1{fill:none;}.cls-1,.cls-2,.cls-3,.cls-4{stroke-width:0px;}.cls-3{fill:#fff;}.cls-4{fill:#e95420;}
    </style>
  </defs>
  <circle class="cls-3" cx="167.63" cy="198.25" r="26.3"/>
  <circle class="cls-3" cx="161.71" cy="323.76" r="26.3"/>
  <path class="cls-3"
        d="m198.31,314.1c8.18-10.31,13.94-22.5,16.71-35.45,4.84-22.59.32-46.29-12.4-65.51-3.03,7.14-8.17,13.17-14.79,17.32,7.1,13.38,9.26,28.82,6.08,43.67-1.56,7.27-4.31,14.12-8.18,20.38,6.19,5.08,10.56,11.91,12.59,19.6Z"/>
  <path class="cls-2"
        d="m382.12,354.03c-15.75,0-28.37-3.05-37.86-9.15-9.49-6.1-16.39-14.39-20.71-24.9-4.32-10.5-6.48-22.27-6.48-35.31v-110.52h19.82v108.23c0,18.8,4.19,32.48,12.58,41.03,8.38,8.55,19.27,12.83,32.65,12.83s24.52-4.32,32.9-12.96c8.38-8.64,12.58-22.27,12.58-40.9v-108.23h19.82v110.52c0,13.04-2.16,24.81-6.48,35.31-4.32,10.5-11.22,18.8-20.71,24.9-9.49,6.1-22.19,9.15-38.11,9.15Z"/>
  <path class="cls-2"
        d="m533.16,353.27c-7.46,0-14.23-.38-20.33-1.14-6.1-.76-11.48-1.69-16.13-2.79-4.66-1.1-8.68-2.16-12.07-3.18v-189.79l19.05-3.3v72.92c3.05-2.2,7.66-4.45,13.85-6.73,6.18-2.29,13.34-3.43,21.47-3.43,12.7,0,23.46,2.92,32.27,8.77,8.8,5.84,15.54,13.93,20.2,24.26,4.66,10.33,6.99,22.19,6.99,35.57,0,14.23-2.71,26.47-8.13,36.71-5.42,10.25-13.04,18.17-22.87,23.75-9.82,5.59-21.26,8.38-34.3,8.38Zm-.26-17.02c9.15,0,17.15-2.03,24.01-6.1,6.86-4.06,12.15-9.95,15.88-17.66,3.72-7.71,5.59-17.06,5.59-28.07,0-7.11-.72-13.8-2.16-20.07-1.44-6.26-3.81-11.77-7.11-16.51-3.3-4.74-7.62-8.42-12.96-11.05-5.34-2.62-11.81-3.94-19.44-3.94s-13.89,1.23-19.82,3.68c-5.93,2.46-10.33,4.87-13.21,7.24v89.18c2.37.68,5.97,1.4,10.8,2.16,4.83.76,10.96,1.14,18.42,1.14Z"/>
  <path class="cls-2"
        d="m678.81,352.76c-13.21,0-23.67-2.5-31.38-7.5-7.71-4.99-13.21-12.07-16.51-21.21-3.3-9.15-4.95-19.73-4.95-31.76v-73.68h19.05v68.6c0,11.86,1.18,21.34,3.56,28.46,2.37,7.11,6.22,12.24,11.56,15.37,5.34,3.13,12.41,4.7,21.21,4.7,7.11,0,13.42-.38,18.93-1.14,5.5-.76,9.1-1.4,10.8-1.91v-114.07h18.8v127.03c-5.08,1.36-11.9,2.88-20.45,4.57-8.55,1.69-18.76,2.54-30.62,2.54Z"/>
  <path class="cls-2"
        d="m765.8,350.22v-127.03c5.25-1.35,12.11-2.88,20.58-4.57,8.47-1.69,18.63-2.54,30.49-2.54,13.72,0,24.39,2.54,32.01,7.62,7.62,5.08,13,12.16,16.13,21.21,3.13,9.06,4.7,19.61,4.7,31.63v73.68h-19.05v-68.34c0-12.02-1.1-21.6-3.3-28.71-2.2-7.11-5.93-12.28-11.18-15.5-5.25-3.22-12.54-4.83-21.85-4.83-7.11,0-13.38.43-18.8,1.27-5.42.85-8.98,1.52-10.67,2.03v114.08h-19.05Z"/>
  <path class="cls-2"
        d="m947.05,353.01c-11.18,0-19.99-1.95-26.42-5.84-6.44-3.89-10.97-9.74-13.59-17.53-2.63-7.79-3.94-17.53-3.94-29.22v-119.92l19.05-3.3v41.41h51.58v16.01h-51.58v67.33c0,9.32,1.06,16.43,3.18,21.34,2.12,4.92,5.17,8.26,9.15,10.04,3.98,1.78,8.68,2.67,14.1,2.67,6.43,0,11.81-.76,16.13-2.29s7.75-2.88,10.29-4.07l4.06,15.5c-2.54,1.52-6.73,3.22-12.58,5.08-5.84,1.86-12.32,2.79-19.44,2.79Z"/>
  <path class="cls-2"
        d="m1049.31,352.76c-13.21,0-23.67-2.5-31.38-7.5-7.71-4.99-13.21-12.07-16.51-21.21-3.3-9.15-4.95-19.73-4.95-31.76v-73.68h19.05v68.6c0,11.86,1.18,21.34,3.56,28.46,2.37,7.11,6.22,12.24,11.56,15.37,5.34,3.13,12.41,4.7,21.21,4.7,7.11,0,13.42-.38,18.93-1.14,5.5-.76,9.1-1.4,10.8-1.91v-114.07h18.8v127.03c-5.08,1.36-11.9,2.88-20.45,4.57-8.55,1.69-18.76,2.54-30.62,2.54Z"/>
  <rect class="cls-1" x="30.25" y="169.38" width="193.57" height="193.57"/>
  <rect class="cls-4" width="254" height="400"/>
  <circle class="cls-3" cx="58.09" cy="255.92" r="26.3"/>
  <circle class="cls-3" cx="167.63" cy="198.24" r="26.3"/>
  <path class="cls-3"
        d="m117.41,323.61c-18.95-4.06-34.78-16.16-43.68-33.32-7.01,3.19-14.9,4.16-22.49,2.76,10.77,26.45,33.61,45.66,61.65,51.67,6.15,1.32,12.42,1.96,18.68,1.92-4.83-6.35-7.52-14.01-7.7-21.99-2.17-.24-4.33-.59-6.45-1.05Z"/>
  <circle class="cls-3" cx="161.71" cy="323.76" r="26.3"/>
  <path class="cls-3"
        d="m198.31,314.1c8.18-10.31,13.94-22.5,16.71-35.45,4.84-22.59.32-46.29-12.4-65.51-3.03,7.14-8.17,13.17-14.79,17.32,7.1,13.38,9.26,28.82,6.08,43.67-1.56,7.27-4.31,14.12-8.18,20.38,6.19,5.08,10.56,11.91,12.59,19.6Z"/>
  <path class="cls-3"
        d="m56.06,218.2c.67-.04,1.34-.05,2-.05,2.66,0,5.31.28,7.94.85,4.29.92,8.32,2.54,12.01,4.83,11.84-17.03,30.95-27.25,51.65-27.63.11-1.99.38-3.97.79-5.92,1.21-5.63,3.67-10.9,7.19-15.41-33.08-2.62-65.22,14.45-81.58,43.33Z"/>
</svg>
